<svg width="450" height="450" viewBox="0 0 450 450" fill="none" xmlns="http://www.w3.org/2000/svg">
<rect width="450" height="450" fill="white"/>
<g clip-path="url(#clip0_358_363)">
<path d="M264.087 111.293C264.447 109.939 264.902 108.611 265.449 107.321C265.635 106.947 265.894 106.614 266.212 106.343C266.53 106.072 266.9 105.868 267.299 105.744C267.842 105.658 268.755 106.416 269.119 107.031C269.643 107.912 269.822 109.002 270.562 109.994C270.623 109.298 270.457 108.466 270.79 107.937C271.332 107.062 272.146 105.843 272.929 105.775C273.713 105.707 274.921 106.668 275.445 107.493C276.062 108.429 276.062 109.71 276.37 110.843L277.166 110.714C277.314 109.932 277.265 109.027 277.653 108.392C278.171 107.536 279.065 106.274 279.737 106.311C280.656 106.354 281.55 107.426 282.395 108.128C282.611 108.306 282.574 108.743 282.74 109.058C283.067 109.643 283.45 110.197 283.813 110.763C284.091 110.148 284.43 109.532 284.646 108.916C285.09 107.684 285.133 106.169 287.026 106.145C288.919 106.12 289.012 107.592 289.493 108.799C289.84 109.769 290.394 110.654 291.115 111.391C291.349 106.305 293.68 104.353 298.453 105.35L293.384 101.471L293.723 100.608C294.376 100.462 295.046 100.402 295.715 100.43C299.68 101.138 303.072 100.873 305.452 96.8334C306.5 95.0536 308.43 93.6742 310.219 92.5226C311.125 91.9068 312.685 91.9068 313.795 92.1531C315.238 92.4795 316.065 93.4402 315.103 95.1706C314.448 96.4312 313.951 97.7673 313.623 99.1489C312.482 103.46 312.728 103.958 316.416 106.354C316.92 106.773 317.368 107.255 317.748 107.789C313.758 106.557 310.471 104.279 307.345 101.723L307.678 101.187L311.242 103.293C312.069 100.516 312.858 97.9726 313.567 95.4108C313.686 94.732 313.734 94.0426 313.709 93.354C312.95 93.5079 312.05 93.4586 311.452 93.8589C308.584 95.7618 307.135 98.6316 306.519 101.778H295.474C295.394 102.025 295.32 102.271 295.24 102.524C297.947 103.417 300.593 104.691 303.374 105.129C307.912 105.837 313.135 109.92 313.912 114.526C312.062 112.235 310.558 110.332 308.979 108.522C308.48 107.876 307.775 107.42 306.981 107.229C303.281 106.908 299.513 106.76 295.413 106.539C296.315 107.681 297.46 108.607 298.766 109.252C300.071 109.896 301.504 110.242 302.961 110.265C304.465 110.314 305.68 110.726 305.908 112.728H295.949L295.703 113.418C298.915 114.852 302.486 115.819 305.255 117.858C308.128 119.976 310.231 123.135 312.654 125.863L311.828 127.292C308.128 118.535 301.037 120.198 294.229 120.789C296.436 122.797 298.903 123.819 301.98 123.425C302.342 123.42 302.699 123.504 303.021 123.668C303.344 123.832 303.621 124.072 303.83 124.367C304.915 127.231 305.477 130.334 306.809 133.056C310.397 140.391 314.868 147.288 317.36 155.164C320.443 164.907 321.799 174.686 317.427 184.324C315.94 187.431 313.872 190.225 311.335 192.557C310.36 193.475 307.758 192.668 305.896 192.631C296.662 192.451 287.431 192.268 278.202 192.083C277.443 192.083 276.691 191.905 275.933 191.855L259.967 190.944C263.236 199.916 266.319 208.532 269.593 217.073C269.88 217.59 270.282 218.032 270.769 218.367C271.256 218.701 271.814 218.918 272.399 219.001C279.651 219.34 286.909 219.518 294.161 219.586C296.424 219.586 299.094 219.826 300.87 218.761C305.997 215.731 310.884 212.316 315.491 208.544C320.788 204.141 324.975 198.734 327.331 192.077C330.5 183.104 330.34 174.015 328.564 164.845C327.177 157.708 324.907 150.872 321.066 144.652C318.944 141.21 316.7 137.835 314.492 134.448C314.288 134.102 313.976 133.832 313.604 133.678C308.942 132.447 307.049 128.413 304.774 124.804C304.595 124.527 304.866 123.973 305.039 122.852C306.155 124.866 306.704 126.331 307.66 127.452C309.183 129.232 310.78 131.763 312.716 132.151C314.652 132.539 315.133 133.592 315.91 134.799L324.611 148.243L325.407 148.027C325.407 144.27 325.444 140.514 325.407 136.757C325.364 133.586 325.678 130.316 324.994 127.28C324.248 123.948 322.527 120.844 321.294 117.617C320.06 114.391 318.87 111.028 317.662 107.764C318.691 109.575 319.906 111.299 320.708 113.202C322.65 117.771 324.63 122.353 326.128 127.077C326.868 129.398 326.745 132.052 326.696 134.54C326.523 140.151 325.906 145.755 325.925 151.359C325.925 153.434 327.22 155.497 327.91 157.566C331.061 166.894 331.82 176.862 330.118 186.559C328.465 196.074 323.187 203.741 315.793 209.77C311.526 213.243 306.778 216.131 302.165 219.155C294.482 224.198 286.706 229.1 279.028 234.144C275.828 236.244 275.846 236.848 276.956 240.524C280.04 250.673 282.975 260.846 285.978 271.038C286.354 272.313 286.743 273.594 287.02 274.524C286.011 274.842 285.029 275.242 284.085 275.718C281.1 277.566 278.165 279.53 275.211 281.446C275.716 280.914 276.253 280.414 276.821 279.949C279.454 278.009 282.136 276.131 284.745 274.154C285.152 273.846 285.275 273.163 285.534 272.652C283.558 273.554 281.664 274.625 279.873 275.854C278.023 277.006 276.173 278.077 274.292 279.179L285.022 271.395C284.765 271.262 284.479 271.192 284.19 271.192C283.9 271.192 283.614 271.262 283.357 271.395C281.852 272.307 280.416 273.348 278.899 274.24C275.519 276.242 272.115 278.182 268.699 280.146C268.922 279.801 269.194 279.489 269.507 279.223C273.417 276.759 277.376 274.413 281.223 271.913C282.371 271.053 283.453 270.111 284.461 269.092L283.813 268.298C281.279 269.843 278.726 271.377 276.216 272.935C271.807 275.706 267.423 278.508 263.032 281.292C263.449 280.68 263.945 280.125 264.506 279.641C268.668 276.938 272.88 274.314 277.055 271.636C279.312 270.176 281.526 268.636 283.758 267.134L283.215 266.278C280.188 266.567 278.214 269.092 275.63 270.312C275.834 269.96 275.957 269.48 276.247 269.271C278.097 268.002 280.046 266.807 281.883 265.527C282.309 265.219 282.438 264.498 282.71 263.962C282.093 263.901 281.334 263.587 280.86 263.808C279.429 264.461 278.103 265.336 276.734 266.118C277.459 265.331 278.242 264.6 279.078 263.932C282.525 261.554 282.58 261.419 280.44 257.422L269.032 264.252C269.562 263.648 270.144 263.092 270.771 262.589C273.238 260.896 275.735 259.184 278.319 257.662C280.218 256.529 280.57 255.248 279.343 253.352L270.611 258.278C272.997 256.566 275.421 254.904 277.739 253.105C278.356 252.619 278.671 251.714 279.121 251.005L278.393 250.39L271.918 254.165L278.331 248.825C278.153 248.413 277.875 247.754 277.517 246.898C276.617 247.514 275.883 248.068 275.125 248.567L257.858 259.873C259.998 258.241 262.095 256.554 264.284 254.996C268.274 252.175 272.337 249.453 276.315 246.627C276.796 246.282 276.932 245.432 277.209 244.822C276.703 244.822 276.081 244.681 275.723 244.921C269.649 249.004 263.587 253.105 257.593 257.305C256.915 257.779 256.674 258.882 256.052 260.027L257.939 259.799C257.416 260.686 256.894 261.575 256.372 262.466L256.859 262.768L260.67 261.228C259.912 261.844 259.24 262.681 258.37 263.008C255.904 263.913 256.095 265.742 256.089 267.836L261.219 264.757C259.866 265.848 258.577 267.016 257.359 268.255C256.588 269.117 256.187 270.299 255.62 271.334L256.237 271.531L267.787 264.788C267.075 265.461 266.325 266.095 265.542 266.684C262.909 268.458 260.146 270.059 257.606 271.956C256.668 272.652 256.218 273.988 255.54 275.035L256.224 275.509L258.839 273.662C258.346 274.333 257.871 275.016 257.353 275.669C256.736 276.488 256.015 277.276 255.342 278.083L255.959 278.699L263.704 274.388C261.466 275.959 259.184 277.467 257.014 279.13C256.28 279.697 255.823 280.633 255.244 281.396L255.688 281.71L264.771 276.969C262.255 278.631 259.708 280.245 257.248 281.981C256.479 282.636 255.779 283.366 255.157 284.161L255.688 284.666L260.701 282.579C259.326 283.441 257.914 284.248 256.6 285.196C255.971 285.753 255.398 286.372 254.892 287.043L255.373 287.53L258.111 286.656C257.36 287.136 256.658 287.689 256.015 288.306C255.553 288.97 255.166 289.682 254.861 290.431L255.521 290.911L263.186 286.6C261.022 288.14 258.79 289.593 256.73 291.256C255.83 291.989 255.275 293.146 254.559 294.113L255.231 294.729L257.001 293.848L254.874 296.983L255.386 297.476L286.915 276.248L287.279 276.778C284.529 278.804 281.834 280.916 279.01 282.837C271.77 287.764 264.395 292.5 257.242 297.549C255.262 298.954 253.542 298.701 251.692 298.054C248.393 296.897 245.161 295.542 241.875 294.261C244.958 305.74 244.557 317.613 243.793 329.492C243.028 341.372 241.622 352.98 236.393 363.849L241.042 347.401L239.871 347C239.439 348.232 238.952 349.39 238.582 350.615C238.212 351.841 237.965 353.042 237.651 354.261V351.182L236.978 351.009C236.621 352.007 236.238 352.998 235.912 354.008C235.128 356.472 234.37 358.935 233.605 361.398C234.127 358.964 234.656 356.531 235.19 354.101L234.444 353.756L231.626 358.843C231.688 358.097 231.737 357.574 231.792 356.903C230.956 357.234 230.239 357.809 229.734 358.552C229.23 359.296 228.96 360.174 228.962 361.072C228.845 362.611 227.729 364.077 227.026 365.574L228.654 359.723L227.753 359.348C226.816 361.183 225.881 363.03 224.948 364.89L225.379 361.749L224.948 361.441L222.148 365.013C222.08 364.699 222.012 364.323 221.938 363.954L221.322 363.609C220.569 364.699 219.755 365.752 219.071 366.885C218.454 367.871 218.016 368.936 217.486 369.964C217.788 368.733 218.103 367.464 218.399 366.208L217.535 365.654L214.575 369.964L214.878 367.76C211.097 368.85 211.751 372.274 210.197 374.306L211.097 374.922L214.242 370.648C214.15 371.479 214.064 372.311 213.977 373.111L214.594 373.475L217.474 369.743C217.332 370.537 217.196 371.325 217.054 372.114L217.628 372.674L223.492 368.486L223.252 369.989L223.77 370.359C224.38 369.732 224.944 369.064 225.459 368.357C226.076 367.409 226.526 366.368 227.05 365.364C226.76 366.448 226.465 367.538 226.101 368.881C229.56 367.31 229.233 363.732 231.256 361.491L229.165 367.236L229.683 367.501L232.107 364.872L232.298 365.795C232.717 365.518 233.34 365.327 233.531 364.939C234.685 362.304 235.745 359.625 236.837 356.934C236.164 359.514 235.498 362.088 234.789 364.81L236.245 364.711C236.029 365.044 235.949 365.327 235.776 365.401C224.934 371.307 213.192 375.39 201.021 377.484C196.773 378.18 192.345 377.816 187.998 377.909C187.669 377.859 187.352 377.746 187.066 377.576C186.413 377.305 185.765 377.022 185.112 376.745C185.007 377.531 185.007 378.329 185.112 379.116C186.782 385.14 189.52 390.818 193.196 395.878C196.31 400.257 200.035 404.21 203.062 408.651C207.052 414.612 212.664 418.245 218.836 421.226C220.328 421.831 221.859 422.335 223.418 422.734C223.418 425.493 223.505 428.351 223.418 431.202C223.313 433.764 221.013 434.318 219.213 434.897C218.51 435.137 217.245 434.084 216.407 433.413C215.765 432.777 215.2 432.068 214.723 431.301C211.116 433.832 210.481 433.801 207.095 431.362C206.242 430.66 205.323 430.041 204.351 429.515C198.894 427.051 198.154 422.002 198.185 417.05C198.185 412.924 196.335 410.664 193.134 408.694C185.145 403.72 178.227 397.207 172.785 389.535C171.897 388.304 171.101 387.041 170.263 385.797L169.436 385.847C169.344 390.028 168.203 394.56 169.436 398.292C170.713 402.234 174.314 405.313 177.132 409.008C176.496 409.797 175.663 410.404 174.716 410.767C173.77 411.131 172.744 411.238 171.742 411.077C170.899 410.97 170.047 411.191 169.362 411.693C166.008 414.556 162.246 415.043 157.985 414.027C157.763 414.433 157.479 414.975 157.189 415.517L156.295 415.425C156.295 411.083 156.474 406.729 156.258 402.394C155.857 394.388 155.253 386.382 154.673 378.377C154.396 374.528 154.815 370.987 157.257 367.71C159.446 364.767 161.111 361.429 162.887 358.196C163.243 357.356 163.401 356.446 163.35 355.536C163.492 346.489 163.874 337.498 165.255 328.501C167.722 312.551 172.889 297.506 179.001 282.702C179.802 280.768 180.456 278.773 181.146 276.895C176.023 272.519 172.211 266.813 170.133 260.409C166.476 249.484 165.779 238.239 166.994 226.914C168.573 212.221 172.482 198.161 179.327 185.001C180.986 181.805 183.027 178.812 185.112 175.4L180.733 171.57C180.018 173.066 179.334 174.551 178.612 176.016C173.315 186.695 167.95 197.305 165.736 209.105C164.577 215.3 163.356 221.55 163.06 227.813C162.653 236.299 162.542 244.884 163.387 253.315C164.003 259.442 166.365 265.391 167.95 271.426C168.166 272.233 168.369 273.052 168.567 273.889L168.628 273.828C167.592 271.266 166.415 268.747 165.545 266.13C162.299 256.32 160.949 245.984 161.568 235.671C161.876 229.544 162.752 223.447 163.362 217.332C163.327 217.012 163.253 216.698 163.14 216.396C151.424 225.867 138.807 233.577 124.686 239.083C125.302 239.785 125.826 240.425 126.418 240.974C130.624 244.829 131.512 249.774 131.352 255.175C131.237 258.474 131.336 261.778 131.648 265.065C131.95 268.187 132.671 271.266 133.226 274.462L131.703 273.846C132.024 276.31 132.363 278.884 132.696 281.464L131.993 281.606C130.76 279.955 129.693 278.206 128.361 276.679C125.758 273.674 122.984 270.823 120.344 267.83C119.667 267.129 119.234 266.228 119.111 265.262C119.025 258.426 119.358 251.578 119.018 244.767C118.537 235.068 122.274 226.606 126.363 218.287C129.456 211.927 132.997 205.795 136.957 199.935C140.749 194.393 145.319 189.343 149.691 184.194C150.671 183.043 151.035 182.101 150.616 180.69C145.282 162.831 143.66 144.56 144.714 126.067C145.128 118.769 146.688 111.533 147.853 104.291C147.958 103.675 149.037 103.158 149.66 102.591C148.328 110.597 146.287 118.498 145.818 126.522C145.017 140.378 145.67 154.265 148.643 167.918C150.431 176.152 152.028 184.478 155.907 192.065C158.201 196.554 157.757 197.047 162.036 193.881C162.752 193.443 163.438 192.957 164.09 192.428C167.216 189.349 170.713 186.572 173.272 183.086C175.831 179.6 177.336 175.591 179.198 171.749C179.359 171.381 179.443 170.983 179.443 170.582C179.443 170.18 179.359 169.783 179.198 169.415C177.761 166.871 175.973 164.519 174.604 161.938C172.569 158.09 170.589 154.191 168.931 150.17C166.865 145.163 167.031 139.793 166.877 134.466C166.711 128.832 166.834 123.024 165.453 117.642C163.418 109.679 156.881 105.541 149.592 102.634L146.231 100.479C155.389 101.366 163.603 103.515 169.917 110.141C172.815 113.19 175.387 116.552 178.094 119.779C179.549 121.522 180.974 123.295 182.651 125.321C189.2 120.783 193.899 114.569 199.782 109.199C194.849 106.397 190.248 103.805 185.667 101.193C184.205 100.362 182.836 99.3459 181.319 98.6316C178.298 97.2152 175.985 95.5094 177.095 91.6112C177.124 91.2951 177.086 90.9764 176.986 90.6754C176.885 90.3744 176.723 90.0975 176.509 89.8622C171.977 84.64 167.438 79.3932 162.789 74.288C161.21 72.5391 160.939 70.9194 161.944 68.7887C163.892 64.4779 165.73 60.1671 167.426 55.7701C167.821 54.7478 167.531 53.4484 167.463 52.2784C167.37 51.4684 167.23 50.6644 167.044 49.8705C167.518 50.0306 167.747 50.0429 167.79 50.1353C170.189 55.1974 173.42 56.2936 178.606 53.5531C180.314 52.6479 181.738 51.2068 183.539 49.8089C178.02 47.5612 172.865 48.0661 167.703 48.9899C167.42 48.3309 167.198 47.8198 166.982 47.3025C167.981 47.4257 169.06 47.8506 169.96 47.6104C173.66 46.5943 177.274 47.0747 180.918 47.8937C183.348 48.4418 185.815 48.8298 188.263 49.2855C185.29 46.8222 182.349 44.2665 178.939 42.8316C174.881 41.1196 171.434 41.3413 168.739 45.4858C168.215 46.1554 167.629 46.7739 166.988 47.3333C167.161 44.3404 166.822 41.175 167.605 38.3977C169.301 32.4734 171.588 26.697 173.802 20.9329C173.185 28.9386 168.067 35.7927 167.753 44.1372C172.84 39.8264 176.448 39.8264 181.979 43.5213C185.679 45.9846 189.687 48.1031 194.176 50.7388C191.901 50.591 190.187 50.591 188.516 50.3385C186.209 49.9814 184.298 50.2215 182.54 52.0752C179.266 55.5423 175.06 56.3244 170.46 55.6531C169.794 55.5546 168.61 55.7701 168.419 56.1766C166.267 61.1032 164.256 66.0667 162.141 71.1842C165.175 72.3728 167.851 72.8223 170.472 70.4144C171.816 72.0279 173.716 73.4443 175.467 71.7323C176.7 70.5376 176.904 68.3145 177.934 66.5532V95.922C180.505 95.3554 182.676 95.0229 184.754 94.4009C191.537 92.3748 197.469 88.8584 201.934 83.316C205.856 78.451 207.706 72.5822 209.26 66.5902C210.018 63.6712 209.26 61.1032 208.372 58.4797C207.435 55.7393 205.178 54.5446 202.563 54.3168C200.096 54.1074 199.48 52.9188 198.937 50.6957C196.47 40.6208 192.592 31.2479 183.958 24.7879C181.634 23.0513 178.711 22.1029 175.726 20.6249C177.262 20.1754 178.809 19.3933 180.413 19.3071C185.556 19.0854 190.748 18.6912 195.829 19.1901C200.812 19.6458 205.696 21.0375 210.629 22.0105C211.083 22.115 211.56 22.0539 211.973 21.8381C214.064 20.4279 216.419 19.2393 218.072 17.4165C219.724 15.5936 221.648 15.803 223.178 16.5235C228.641 19.0915 233.938 21.9982 239.285 24.8002C240.925 25.6624 242.442 26.814 244.162 27.4237C246.518 28.2612 246.839 29.7207 246.845 32.0177C246.888 44.87 247.184 57.7284 247.283 70.5807C247.283 74.0109 246.962 77.4349 246.802 80.5941C239.895 83.3406 233.198 85.9517 226.538 88.6737C223.794 89.8006 223.455 92.5657 225.823 94.5179C228.111 96.3654 230.584 98.0219 233.02 99.697C237.953 103.078 242.886 106.422 248.115 109.55C247.758 103.509 244.964 98.7855 240.173 94.9674C240.729 94.027 241.54 93.2624 242.512 92.7613C243.484 92.2602 244.577 92.043 245.667 92.1346C251.044 92.4856 255.756 94.4624 258.487 99.389C260.596 103.195 262.268 107.235 264.136 111.17C264.531 113.812 264.931 116.46 265.369 119.459C272.448 119.613 279.552 119.847 286.625 119.871C290.387 119.871 294.155 119.563 297.91 119.299C299.847 119.163 301.77 118.831 304.138 118.529C301.61 117.334 299.205 116.712 297.509 115.29C293.97 112.352 290.011 111.804 285.707 112.174C285.452 112.189 285.197 112.189 284.942 112.174L264.087 111.293ZM236.195 77.7428L244.409 80.6741L244.606 80.2122L236.238 76.4619C232.568 74.221 228.758 72.2175 224.83 70.4637C224.726 70.6916 224.615 70.9133 224.51 71.135L233.975 76.2771H232.255L232.206 76.7636L242.245 81.5363L242.541 80.9204L236.195 77.7428ZM215.883 120.654L214.088 117.279C213.742 118.627 213.475 119.995 213.287 121.374C213.243 121.848 213.848 122.384 214.156 122.895C214.594 122.512 215.006 122.101 215.389 121.663C215.603 121.316 215.773 120.944 215.895 120.555C215.994 121.503 215.408 123.018 217.196 122.686C217.578 122.618 217.813 121.035 217.844 120.136C217.844 119.711 217.338 119.249 217.061 118.806L215.883 120.654ZM237.466 208.052L243.737 202.669C241.371 203.663 239.137 204.944 237.083 206.481C236.935 206.586 237.355 207.479 237.509 208.008C237.194 208.747 236.892 209.486 236.411 210.626C241.11 208.452 242.794 206.857 243.256 204.56L237.466 208.052ZM173.136 78.7404L166.92 73.6906L166.143 74.5035C167.377 75.4704 168.826 76.2833 169.893 77.4349C171.385 79.036 172.612 80.8896 173.956 82.6324L164.503 73.3458L164.028 73.8384L177.114 89.1232C177.385 85.8409 175.054 84.5107 173.895 82.5893L177.009 84.7755C176.804 83.793 176.361 82.8755 175.72 82.1028C174.85 80.9328 173.938 79.7935 173.044 78.6419L176.793 81.9673L177.292 81.4501L169.479 73.3827L168.863 73.9554L173.136 78.7404ZM195.336 197.823L202.655 192.089L202.285 191.529L197.969 193.61C199.56 192.284 201.155 190.964 202.754 189.651L202.415 189.183L200.331 190.051L200.139 189.7L203.143 187.483L202.612 186.732L194.22 192.323L194.694 193.075L197.303 191.905L193.763 195.15L194.263 195.698L196.575 194.362L193.184 198.414L195.385 197.755L193.208 200.545L193.708 200.883L197.876 198.753C196.742 199.701 195.564 200.6 194.497 201.604C194.023 202.153 193.61 202.752 193.264 203.39L193.726 203.648L199.794 200.354L193.529 205.28L194.041 206.056L203.556 200.384C205.517 205.003 207.04 209.708 209.457 213.896C211.307 217.086 214.267 219.641 216.789 222.431C217.696 223.429 218.528 223.225 219.552 222.246C229.011 213.181 233.069 202.207 231.7 189.146C231.466 186.873 230.664 186.461 228.573 186.448C221.568 186.411 214.563 186.19 207.564 185.931C203.679 185.796 203.679 185.703 203.673 189.626C203.673 192.742 203.673 195.864 203.673 198.968L199.751 200.421L203.247 197.256L202.631 196.505L197.772 198.845L202.89 194.411L202.273 193.727L195.336 197.823ZM197.969 209.394L195.12 212.061L195.508 212.596L198.542 211.365L195.582 213.828L196.199 214.493L202.865 210.909C201.178 212.315 199.382 213.586 197.494 214.709C197.062 214.986 196.877 215.614 196.551 216.076C197.124 216.076 197.827 216.279 198.259 216.026C200.929 214.468 203.55 212.818 206.146 211.143C206.392 210.989 206.392 210.441 206.503 210.078L204.9 209.591L205.813 207.744L203.568 208.359C203.969 207.633 204.37 206.912 205.005 205.779L202.045 206.82C202.742 205.933 203.439 205.052 204.129 204.166L203.476 203.624L194.398 209.782L194.756 210.398L197.969 209.394ZM262.046 211.531C262.679 210.903 263.35 210.315 264.056 209.77C265.499 208.784 265.505 207.756 264.265 206.321C262.36 209.037 257.131 208.273 257.482 213.619L261.336 211.562C260.282 212.498 259.16 213.372 258.198 214.401C257.678 215.087 257.236 215.829 256.878 216.611L257.495 217.116C260.177 215.435 262.896 213.797 265.511 212.011C265.893 211.746 265.789 210.78 265.961 209.844L262.046 211.531ZM204.018 223.336C204.628 222.728 205.291 222.173 205.998 221.68C207.724 220.664 209.519 219.765 211.289 218.816L210.962 218.022L207.176 219.007L209.889 216.981L209.58 216.174L205.332 217.517L208.988 214.973C206.781 213.046 205.646 215.866 204.024 215.645C206.004 213.686 206.978 212.399 206.83 211.593L197.26 217.751L199.11 221.101L200.38 220.725L200.534 223.115C201.311 225.252 202.662 223.379 203.716 223.576L202.057 224.931C202.853 225.972 203.451 226.742 203.963 227.395L213.743 221.914L213.311 221.064L203.876 225.861L203.599 225.344L212.405 220.59L211.911 219.561L204.018 223.336ZM263.439 226.003C265.061 224.716 266.738 223.496 268.261 222.111C268.81 221.606 268.989 220.701 269.334 219.974L268.576 219.543C265.388 221.532 262.144 223.447 259.042 225.572C258.228 226.126 257.858 227.321 256.952 228.743L262.169 226.649C260.578 228.207 257.963 228.799 257.149 231.681L260.115 230.72L257.464 233.799L258.185 234.507C262.44 231.884 266.701 229.273 270.913 226.594C271.16 226.44 271.012 225.683 271.086 224.747L264.722 228.134C266.035 227.093 267.367 226.083 268.65 225.005C269.328 224.439 269.926 223.774 270.562 223.158L269.896 222.413L263.439 226.003ZM262.039 235.961C262.505 235.415 263.021 234.913 263.581 234.464C265.949 232.882 268.385 231.385 270.734 229.796C271.252 229.445 271.511 228.712 272.282 227.567C270.975 227.93 270.432 227.961 270.037 228.183C266.048 230.646 262.021 233.073 258.13 235.647C257.63 235.973 257.587 237.001 257.143 238.215L262.12 235.85C260.826 236.712 259.59 237.659 258.42 238.683C257.803 239.299 257.55 240.333 257.137 241.177L257.723 241.343L265.123 237.408C263.038 238.874 261.022 240.438 258.857 241.768C257.266 242.741 256.662 243.911 257.125 245.629L260.646 243.93C259.967 244.545 259.382 245.321 258.598 245.709C257.014 246.498 256.656 247.624 257.186 249.238L260.51 247.544C259.149 249.01 257.782 250.474 256.409 251.935C256.644 252.188 256.872 252.44 257.106 252.687C258.117 252.04 259.11 251.356 260.152 250.747C263.236 248.949 266.319 247.181 269.433 245.401C265.678 247.926 261.885 250.396 258.204 253.025C257.377 253.641 256.97 254.787 256.354 255.692L257.057 256.184C258.389 255.335 259.739 254.503 261.047 253.616C265.863 250.365 270.685 247.107 275.464 243.794C275.963 243.443 276.204 242.716 276.562 242.168L276.062 241.749L271.129 244.213C272.202 243.326 273.244 242.396 274.354 241.559C275.464 240.721 276.204 240.013 274.662 238.627L272.233 240.155L260.448 247.661C261.034 247.093 261.652 246.559 262.298 246.06C266.455 243.178 270.636 240.333 274.81 237.476L274.638 236.718C274.017 236.67 273.393 236.718 272.788 236.86C271.493 237.414 270.259 238.128 269.001 238.781C269.902 238.085 270.784 237.371 271.696 236.694C273.102 235.653 274.163 234.557 272.381 232.765L265.086 237.519C266.991 235.948 268.927 234.409 270.796 232.789C271.442 232.154 272.044 231.475 272.596 230.757L272.042 230.295L262.039 235.961ZM255.577 172.728C254.991 173.183 254.436 173.959 253.826 174.033C250.224 174.329 246.543 174.976 243.028 174.501C236.639 173.639 230.861 170.856 225.57 167.296C219.706 172.555 213.028 175.844 205.221 176.275C197.414 176.706 190.076 174.976 183.021 171.767C193.184 181.91 202.81 184.964 215.377 185.451C226.736 185.894 238.002 185.672 248.405 180.13C251.766 178.338 255.225 176.675 257.821 173.091L255.552 172.777C256.243 164.919 256.933 157.055 257.686 148.47C247.819 153.489 238.027 153.705 228.148 152.325C218.423 150.971 208.945 148.63 200.546 143.193L203.728 147.048L203.167 147.522C202.551 146.875 201.934 146.216 201.317 145.576C196.384 140.506 191.428 135.437 186.45 130.371C184.563 128.438 182.565 126.596 180.77 124.576C176.398 119.65 172.322 114.471 167.728 109.797C164.324 106.317 159.915 104.205 154.439 102.949C155.235 103.564 155.494 103.78 155.74 103.995C158.392 106.311 161.395 108.306 163.615 111.01C167.407 115.567 167.981 121.232 168.03 126.99C168.086 133.075 168.073 139.19 168.746 145.213C169.282 150.065 171.73 154.308 174.357 158.533C178.711 165.535 184.587 169.92 192.524 171.81C199.467 173.473 205.905 171.508 212.214 169.057C215.106 167.93 217.652 166.052 218.886 162.961C213.25 158.545 207.854 153.988 203.864 148.027C205.632 149.544 207.304 151.169 208.871 152.892C215.198 159.574 222.598 164.857 230.621 169.261C235.202 171.779 240.062 173.855 245.42 173.781C248.781 173.713 252.179 173.091 255.577 172.728ZM257.538 176.811L257.106 176.712C256.57 177.944 255.817 179.083 255.534 180.352C253.382 189.946 248.787 198.482 243.651 206.666C237.484 216.519 229.11 224.636 220.748 232.641C214.545 238.584 207.934 244.102 201.811 250.125C194.503 257.311 188.244 265.373 183.718 274.653C182.213 277.732 180.789 280.879 179.537 284.075C177.009 290.511 174.289 296.891 172.273 303.486C169.627 312.157 166.791 320.822 166.106 329.967C165.983 331.562 165.594 333.132 165.372 334.721C165.169 336.211 165.033 337.714 164.867 339.21L165.483 339.364C170.565 316.819 182.034 297.839 197.685 281.187C213.435 264.424 232.754 253.894 254.874 248.277C251.947 249.54 248.951 250.638 245.901 251.566C237.323 254.374 229.127 258.234 221.5 263.057C216.222 266.389 216.228 266.573 219.509 271.913C223.065 277.563 227.62 282.521 232.952 286.545C237.345 289.802 241.952 292.762 246.74 295.406C248.744 296.564 251.205 296.946 254.226 297.931C255.336 257.016 256.434 216.913 257.538 176.841V176.811ZM265.702 120.9C265.702 122.667 265.745 124.595 265.702 126.504C265.357 139.017 265.001 151.529 264.635 164.038C264.568 166.557 264.722 169.187 261.386 169.913C261.268 169.961 261.16 170.032 261.07 170.122C260.98 170.212 260.909 170.319 260.862 170.437C259.659 173.085 257.778 175.468 258.469 178.769C258.79 180.265 258.296 181.941 258.117 183.523C257.698 187.28 259.443 189.915 262.631 190.076C270.568 190.47 278.504 190.839 286.447 191.129C289.826 191.252 293.304 190.673 296.584 191.264C301.024 192.065 303.639 189.712 305.618 186.707C314.06 173.879 313.678 160.313 308.085 146.598C305.329 139.824 302.036 133.253 299.107 126.541C298.145 124.336 294.112 121.288 291.707 121.245C287.187 121.165 282.673 120.974 278.14 120.912C273.972 120.851 269.797 120.9 265.702 120.9ZM211.171 418.59L211.369 418.245C208.902 416.108 206.115 414.273 204.111 411.785C199.177 405.676 194.374 399.469 190.039 392.916C187.612 389.243 185.779 385.211 184.606 380.969C182.891 374.555 181.6 368.036 180.739 361.454C179.451 352.013 179.913 342.831 183.755 333.698C189.044 320.818 197.034 309.218 207.188 299.68C212.855 294.384 218.602 289.211 226.304 286.957C227.568 286.594 228.771 286.095 230.109 285.633C229.899 285.221 229.844 284.931 229.665 284.796C224.457 280.571 220.127 275.371 216.919 269.486C215.266 266.573 214.323 267.509 212.781 268.87C208.662 272.467 204.468 276.002 200.528 279.795C192.37 287.688 185.343 296.67 179.648 306.485C173.21 317.502 167.814 329.16 166.211 342.018C165.2 350.135 164.151 358.424 164.725 366.522C165.391 375.969 169.893 384.381 175.72 391.919C183.736 402.295 194.756 409.008 205.689 415.77C207.435 416.829 209.34 417.629 211.171 418.59ZM207.052 77.0777C221.408 72.2927 236.146 58.7692 232.668 37.049C233.136 37.5546 233.45 38.1825 233.575 38.8595C233.716 42.4683 234.191 46.1509 233.704 49.6796C232.804 55.9733 229.862 61.5035 225.725 66.35C224.436 67.8526 224.491 68.9919 226.341 69.9464C229.998 71.8247 233.605 73.8077 237.281 75.6551C240.031 77.0407 242.861 78.2909 245.846 79.6888C246.067 78.7303 246.215 77.7566 246.29 76.7759C246.173 63.3325 245.729 49.8828 246.019 36.4455C246.136 31.1802 244.921 27.7439 239.704 26.2597C239.499 26.1582 239.303 26.0387 239.118 25.9026C233.975 23.1806 228.837 20.4566 223.702 17.7306C222.21 16.9361 221.235 17.2502 221.161 19.0115C221.05 21.0314 220.828 23.1006 221.161 25.0589C221.352 26.192 222.395 27.3313 223.295 28.138C225.99 30.5644 228.845 32.8429 231.595 35.1831L230.978 35.9713C224.319 29.2958 216.487 24.4985 207.348 22.2199C198.209 19.9414 189.083 18.7775 179.179 20.668C181.455 22.029 183.329 22.885 184.853 24.1167C193.288 30.977 197.624 40.2328 199.924 50.5972C200.417 52.8142 201.854 53.5963 203.759 52.2537C206.226 50.5171 207.798 48.2324 207.687 45.0424C207.626 43.3612 207.687 41.6739 207.687 39.9865L208.766 40.0235C212.978 52.4447 211.881 64.6626 207.052 77.0777ZM183.866 375.753C200.762 372.908 212.528 363.049 222.351 350.72C232.175 338.391 237.891 323.931 240.524 307.612C236.923 308.08 233.661 308.062 230.658 308.973C220.252 312.158 210.777 317.822 203.05 325.477C195.804 332.584 189.268 340.257 184.341 349.217C182.596 352.383 180.641 355.616 181.19 359.434C182.016 365.013 183.003 370.543 183.891 375.753H183.866ZM186.45 176.768C185.723 177.344 185.029 177.961 184.372 178.615C183.803 179.244 183.308 179.936 182.898 180.678C176.687 191.527 172.22 203.283 169.658 215.515C168.998 218.736 167.975 222.074 168.252 225.258C168.937 233.14 170.454 240.887 173.981 248.148C176.657 253.653 179.611 258.906 184.026 263.217C186.524 265.68 187.572 265.619 189.471 262.971C195.348 254.774 202.211 247.471 209.568 240.61C211.387 238.911 213.385 237.408 215.63 235.548C204.678 232.309 198.777 224.66 194.91 215.072C191.007 205.379 192.148 195.612 194.534 185.9C183.323 207.51 186.376 227.29 203.167 245.783C197.001 242.482 189.132 229.408 187.381 217.455C185.531 204.788 187.905 192.982 195.502 182.353L186.45 176.768ZM183.619 125.826C187.936 130.956 193.134 134.497 198.709 137.404C205.684 140.993 213.39 142.936 221.235 143.082C233.809 143.408 244.477 138.537 253.622 130.15C254.901 129.033 255.859 127.596 256.397 125.987C257.797 120.888 256.909 116.749 251.125 112.931C243.725 108.066 236.504 102.998 229.196 98.0342C227.84 97.1105 226.427 96.2853 224.263 94.9058V124.028L187.029 123.209L183.619 125.826ZM122.219 238.369C139.399 234.778 163.196 204.24 167.296 191.467L157.627 197.958L151.424 184.127C144.024 191.098 138.394 198.987 133.331 207.251C127.59 216.624 122.811 226.483 120.714 237.426C120.394 238.701 120.187 240.001 120.098 241.312C120.054 247.138 120.011 252.97 120.165 258.796C120.264 262.583 119.259 266.512 123.31 269.517C126.338 271.765 128.515 275.152 131.068 278.034L131.765 277.634C130.192 274.727 129.008 271.475 126.955 269.012C123.415 264.671 123.44 259.849 124.075 254.768C124.586 255.777 124.826 256.902 124.772 258.032C124.371 263.334 126.363 267.491 130.075 270.416C130.075 265.169 130.242 259.713 130.013 254.275C129.872 250.741 130.445 246.929 127.578 243.985C125.826 242.162 124.106 240.333 122.219 238.369ZM222.469 120.506L223.344 120.216V69.9895C218.3 72.6992 213.324 75.298 208.427 78.0507C207.04 78.8328 205.486 79.7996 204.727 81.1298C199.313 90.3672 190.217 93.7974 180.333 97.1413L222.469 120.506ZM243.003 302.47H242.202C238.28 333.508 224.491 358.165 196.372 373.666C204.727 369.971 213.681 367.846 221.482 362.821C228.296 358.43 234.697 353.694 239.044 346.705C240.167 344.9 241.394 342.917 241.684 340.885C242.384 335.875 242.796 330.83 242.917 325.773C243.151 317.995 243.003 310.229 243.003 302.47ZM243.003 93.9021C243.659 94.5071 244.346 95.0766 245.063 95.6079C248.881 98.021 251.858 101.555 253.585 105.726C256.372 112.057 258.111 118.627 258.074 125.555C258.013 136.954 257.815 148.341 257.593 159.74C257.519 163.49 257.186 167.235 256.94 171.564C259.684 169.014 263.569 168.589 263.624 163.995C263.797 151.143 264.5 138.297 264.531 125.445C264.531 119.003 263.914 112.512 261.127 106.453C259.277 102.394 257.266 98.5146 253.505 95.9835C250.588 93.9575 247.289 93.1754 243.028 93.9021H243.003ZM157.886 409.876C158.99 408.675 159.736 407.961 160.353 407.154C161.839 405.233 163.109 403.12 164.75 401.347C167.124 398.773 168.289 395.934 168.03 392.405C167.907 390.749 168.295 389.061 168.425 387.38C168.554 385.699 169.103 383.95 168.659 382.453C167.679 379.165 166.193 376.024 164.922 372.822C163.584 369.459 161.148 368.16 158.521 369.632C156.795 370.605 155.574 372.003 155.74 374.294C156.123 379.497 156.357 384.707 156.678 389.917C157.103 396.303 157.455 402.671 157.886 409.876ZM214.335 424.256L215.223 424.403C215.453 424.939 215.62 425.499 215.722 426.072C215.815 427.507 215.414 429.102 215.92 430.346C216.425 431.59 217.677 433.376 218.793 433.536C219.216 433.595 219.646 433.569 220.057 433.457C220.469 433.346 220.853 433.152 221.188 432.888C221.522 432.623 221.799 432.294 222.002 431.92C222.206 431.545 222.331 431.134 222.37 430.709C222.549 428.203 222.413 425.666 222.413 423.935L198.98 413.725C199.307 416.853 199.597 420.185 200.041 423.498C200.158 424.36 200.509 425.456 201.145 425.961C204.308 428.388 207.601 430.642 210.851 432.957C213.102 430.186 215.716 428.154 214.335 424.256ZM244.946 202.558C249.645 194.103 253.382 186.128 255.46 177.143C248.997 181.522 242.282 184.533 234.45 185.956C239.556 190.457 242.713 195.827 244.946 202.571V202.558ZM180.425 168.041C191.013 178.781 215.698 177.833 224.368 166.569L219.823 163.65C217.634 167.567 214.175 169.667 209.87 171.04C204.32 172.826 198.703 174.206 193.042 172.845C188.485 171.761 184.236 169.525 180.425 168.041ZM167.654 399.068L158.151 412.518C161.888 414.101 165.761 413.097 168.635 410.135C168.308 409.691 167.975 409.254 167.37 408.435C170.454 409.131 173.056 411.188 175.812 408.663L167.654 399.068ZM199.295 116.447L198.98 116.546V111.94C195.959 114.988 197.414 118.769 196.662 122.273C200.263 122.747 197.71 119.311 199.369 118.615C199.358 119.516 199.424 120.416 199.566 121.306C199.665 121.725 200.238 122.033 200.602 122.396C200.923 121.996 201.496 121.614 201.527 121.165C201.743 118.086 201.915 114.963 201.952 111.866C201.952 111.151 201.373 110.437 201.064 109.723L200.115 109.864C199.839 112.073 199.566 114.267 199.295 116.447ZM207.225 121.485L208.514 122.914C208.927 122.212 209.611 121.546 209.691 120.814C209.871 119.301 209.851 117.77 209.63 116.263C209.5 115.376 208.803 114.575 208.353 113.732L207.811 113.972C207.694 114.588 207.57 115.203 207.435 115.893C206.818 114.588 206.201 113.387 205.634 112.198L204.487 112.531C204.487 115.111 204.45 117.698 204.487 120.278C204.566 121.135 204.708 121.985 204.912 122.821L207.225 121.485ZM257.001 224.66L257.858 225.208C261.256 223.053 264.679 220.898 268.027 218.699C268.209 218.479 268.334 218.219 268.392 217.94C268.45 217.661 268.439 217.372 268.36 217.098C268.18 216.915 267.957 216.781 267.711 216.709C267.465 216.637 267.204 216.629 266.954 216.685C263.92 218.49 260.899 220.331 257.994 222.333C257.39 222.739 257.303 223.866 257.001 224.66ZM211.369 368.893C210.438 369.293 209.691 369.41 209.272 369.847C208.853 370.285 208.711 371.079 208.396 371.8C208.255 371.184 208.156 370.71 208.051 370.235C202.976 372.083 202.6 372.477 202.322 376.344L207.724 374.195C208.958 375.137 210.086 373.776 211.369 368.893ZM257.704 221.045C260.658 219.352 263.488 217.708 266.337 216.119C267.972 215.189 267.645 214.105 266.553 212.633C264.222 214 261.959 215.386 259.641 216.673C258.006 217.56 257.001 218.718 257.704 221.045ZM263.285 203.186C257.421 206.962 257.421 206.962 257.914 209.234C263.92 206.272 264.487 205.656 263.285 203.199V203.186ZM193.449 122.076L194.17 122.741C194.787 122.175 195.792 121.676 195.909 121.017C196.298 118.849 196.359 116.62 196.526 114.415C193.399 116.337 194.176 119.453 193.449 122.076ZM203.087 110.375C202.082 114.384 202.341 121.928 203.642 122.821C203.55 118.726 205.011 114.76 203.087 110.394V110.375ZM235.967 83.7163C232.539 81.4439 229.184 78.9744 224.923 78.5741C228.456 80.631 231.718 83.2914 235.967 83.7348V83.7163ZM193.72 207.417L194.454 208.569C196.107 207.583 197.876 206.758 199.387 205.582C200.898 204.406 203.007 204.012 203.624 202.029L203.13 201.413L193.72 207.417ZM237.996 83.3776L238.582 82.3184L225.373 76.0185L224.978 76.819L237.996 83.3776ZM210.931 122.969L211.918 122.852C213.391 117.31 213.28 116.644 210.345 115.462C210.549 118.079 210.752 120.524 210.931 122.969ZM224.935 79.9351L224.319 81.0682L232.859 85.416L233.414 84.326L224.935 79.9351ZM226.452 74.8299L226.144 75.4827L240.327 82.3923L240.66 81.6841L226.452 74.8299ZM236.257 197.379L237.2 197.773L240.253 194.602L239.84 194.183L236.676 195.064L239.198 192.97L238.742 192.182C238.008 192.533 236.781 192.736 236.627 193.253C236.269 194.522 236.374 195.963 236.282 197.348L236.257 197.379ZM262.292 200.458C258.827 201.924 257.636 203.291 257.976 205.25C263.026 202.472 263.032 202.466 262.317 200.434L262.292 200.458ZM205.868 227.832L215.735 223.429L215.426 222.696C211.77 223.275 208.834 225.59 205.868 227.832ZM271.295 109.716L272.085 110.492C273.281 110.714 274.736 111.194 274.798 109.205C274.798 108.423 274.002 107.616 273.565 106.816L271.295 109.716ZM285.367 110.948L289.067 111.207L287.489 107.025L286.644 107.124C286.292 108.269 285.922 109.384 285.367 110.948ZM203.186 185.543L202.477 184.576L194.867 189.922L195.323 190.581L203.186 185.543ZM243.046 200.791L242.584 200.28C239.229 201.93 236.966 204.073 237.441 205.662L243.046 200.791ZM170.38 71.9848L169.812 72.5144L176.688 79.6334L177.397 78.956L170.38 71.9848ZM207.786 227.789L208.144 228.595L216.438 224.876L216.099 224.112L207.786 227.789ZM281.526 111.084L282.333 109.938L279.867 107.592L278.745 109.618L281.526 111.084ZM236.911 199.806L237.873 200.508L241.307 196.246L240.543 195.63C239.908 197.496 236.652 197.164 236.911 199.806ZM258.191 202.17L261.99 198.925L261.232 198.057C259.597 198.722 258.099 199.547 258.191 202.17ZM269.334 110.542L267.719 107.087C267.318 107.302 266.695 107.432 266.566 107.758C266.339 108.532 266.191 109.326 266.122 110.129L269.334 110.542ZM193.227 117.722L192.37 117.482C191.852 118.743 191.42 120.037 191.075 121.356C191.007 121.676 191.87 122.193 192.659 122.969L193.227 117.722ZM236.867 202.164C240.191 201.745 241.659 200.317 241.566 197.798L236.867 202.164ZM230.701 86.0564L231.003 85.3298L225.126 82.6016L224.732 83.5439C227.056 83.5377 228.16 86.6045 230.713 86.0256L230.701 86.0564ZM292.638 111.305L295.622 111.157C295.148 109.723 294.784 108.633 294.42 107.549L293.563 107.635C293.291 108.737 293.002 109.87 292.65 111.281L292.638 111.305ZM202.674 372.674C199.967 373.222 199.517 374.017 200.109 377.207C201.04 375.568 201.749 374.312 202.674 372.674Z" fill="black"/>
<path d="M168.567 273.865L175.239 286.853C173.537 286.317 168.696 277.239 168.629 273.809L168.567 273.865Z" fill="black"/>
<path d="M180.425 168.041C184.205 169.525 188.485 171.736 193.042 172.857C198.703 174.218 204.315 172.857 209.871 171.053C214.187 169.667 217.634 167.567 219.823 163.663L224.368 166.582C215.686 177.833 191.019 178.781 180.425 168.041Z" fill="white"/>
<path d="M203.087 110.394C205.011 114.76 203.55 118.726 203.642 122.839C202.341 121.946 202.082 114.403 203.087 110.394Z" fill="white"/>
<path d="M263.088 286.717L274.379 279.007C273.442 279.915 272.447 280.763 271.4 281.544C268.669 283.33 265.863 284.999 263.088 286.717Z" fill="black"/>
<path d="M312.537 119.841L306.272 112.796L307 112.137L313.314 119.206L312.537 119.841Z" fill="black"/>
<path d="M258.808 273.674C265.16 269.425 271.511 265.175 277.863 260.926C278.578 260.446 279.349 260.046 280.089 259.608L280.428 260.156C277.536 262.109 274.656 264.073 271.758 266.019C268.335 268.31 264.925 270.619 261.447 272.83C260.701 273.311 259.696 273.397 258.814 273.655L258.808 273.674Z" fill="black"/>
</g>
<defs>
<clipPath id="clip0_358_363">
<rect width="212" height="418.952" fill="white" transform="translate(119 16)"/>
</clipPath>
</defs>
</svg>
