<svg width="450" height="450" viewBox="0 0 450 450" fill="none" xmlns="http://www.w3.org/2000/svg">
<rect width="450" height="450" fill="white"/>
<path d="M122.98 186.069C123.109 184.706 122.711 182.81 123.457 182.07C127.198 178.385 130.367 173.763 135.847 172.445C139.593 171.548 143.457 171.105 147.294 170.645C154.826 169.736 162.415 169.26 169.891 168.043C176.386 166.982 182.129 163.842 187.115 159.523C187.799 158.928 188.175 157.667 188.214 156.696C188.478 150.398 188.685 144.094 188.753 137.79C188.798 133.6 188.461 129.405 188.489 125.215C188.534 119.41 188.753 113.599 188.921 107.795C188.977 105.882 189.246 103.969 189.179 102.068C189.106 100.066 185.668 97.856 183.52 98.2542C181.265 98.6693 179.37 101.21 179.975 103.352C180.374 104.76 181.26 106.028 181.983 107.475C176.79 112.349 170.777 113.476 166.161 110.358C166.161 104.491 166.161 98.731 166.161 92.7746C168.5 94.1095 171.187 95.6687 173.172 92.9821C174.058 91.7819 174.142 89.028 173.351 87.7381C171.36 84.4682 168.388 85.618 165.449 87.6203C165.449 82.4828 165.37 77.85 165.555 73.2285C165.578 72.6957 167.098 71.7871 167.866 71.8432C168.579 71.8937 169.633 72.9032 169.801 73.6548C170.115 75.0738 169.756 76.6273 169.936 78.0912C170.385 81.7312 175.085 84.3 178.461 82.8305C180.71 81.8546 181.405 79.6897 180.233 77.3228C179.106 75.0345 177.547 74.5129 174.894 75.887C175.062 72.8527 175.225 70.0372 175.359 67.547C173.581 67.031 171.832 66.8964 170.547 66.0607C168.803 64.9221 168.079 62.9928 168.977 60.9063C169.958 58.6405 172.106 58.5171 174.193 58.3208C175.045 58.2422 176.728 59.263 176.492 58.0459C174.036 56.5036 171.697 55.7744 170.586 54.1872C168.534 51.2539 170.839 47.6756 174.58 47.3559C179.252 46.9633 181.506 48.7917 182.101 53.8339C185.169 54.1087 188.332 54.3947 191.49 54.6808C191.232 55.0397 190.946 55.724 190.727 55.7015C187.317 55.3594 183.918 54.9219 180.261 54.4788C181.462 51.4109 180.065 49.9078 177.726 48.8197C175.662 47.855 173.649 48.2533 172.241 49.6779C171.484 50.4406 171.164 52.4485 171.618 53.4469C172.959 56.369 175.472 56.2063 178.276 54.4788C177.928 57.2495 177.659 59.4201 177.317 62.1907C176.476 61.2316 176.195 60.8503 175.859 60.5306C174.625 59.392 171.102 59.5995 170.171 60.8446C169.341 61.9552 170.02 64.3949 171.703 65.2923C172.527 65.7298 173.772 65.7634 174.714 65.5279C176.61 65.0511 176.924 65.8083 176.745 67.4348C176.532 69.3698 176.442 71.3216 176.302 73.2566C176.958 73.4416 177.272 73.5482 177.592 73.6099C180.66 74.2325 182.196 76.6217 181.877 80.301C181.669 82.6678 179.628 84.2607 176.773 84.2831C171.568 84.328 168.36 80.6936 168.393 74.8831C168.399 74.2156 167.928 73.5426 167.676 72.8752C167.289 73.5146 166.587 74.1371 166.565 74.7877C166.453 78.108 166.515 81.434 166.515 84.9842C169.751 83.7896 172.454 84.2495 174.496 87.037C175.954 89.0224 175.831 91.1537 174.692 93.1055C172.981 96.0276 170.177 95.994 167.311 95.1919C167.311 100.217 167.311 105.097 167.311 109.988C172.359 111.693 176.498 110.644 180.34 107.738C177.816 102.965 178.354 99.1348 181.955 97.6036C183.195 97.0764 185.163 96.9643 186.229 97.6036C188.091 98.7198 189.51 100.571 191.142 102.135C192.342 101.294 193.98 100.15 195.607 99.0114C195.399 103.117 195.113 107.217 195.029 111.322C194.973 114.048 195.287 116.785 195.309 119.517C195.36 124.963 195.326 130.414 195.326 135.866C195.539 135.899 195.747 135.939 195.96 135.972C196.111 135.411 196.397 134.856 196.397 134.295C196.425 130.863 196.381 127.436 196.375 124.003C196.369 116.768 196.403 109.533 196.336 102.298C196.324 101.216 195.831 100.139 195.562 99.0563C193.357 96.2239 190.89 93.5486 189 90.5199C185.803 85.3936 183.183 80.015 183.845 73.6099C184.109 71.058 185.281 69.2969 187.267 67.9171C190.065 65.9653 192.937 64.1033 195.674 62.0673C197.951 60.3735 198.557 57.6926 197.463 55.1967C196.65 53.3403 194.928 52.8131 193.257 53.8675C192.684 54.2265 192.039 54.462 191.434 54.7537C191.557 53.7105 191.681 52.6673 191.81 51.6128C186.762 52.6056 184.361 49.6442 184.002 46.6043C183.554 42.8129 185.668 40.1544 191.31 40.0927C194.171 40.059 196.885 43.5644 196.672 47.0586C197.441 47.1708 198.231 47.283 199.342 47.4456C199.342 44.0075 199.342 40.7545 199.342 37.036C201.597 38.5896 203.262 41.2593 205.876 38.584C207.289 37.1369 206.919 35.5497 206.173 34.0298C205.534 32.7229 204.087 32.5547 201.883 33.267C201.72 30.3393 201.428 27.3779 201.423 24.4222C201.417 22.0385 204.715 19.7165 207.25 20.1035C210.8 20.6419 210.75 20.6419 210.856 24.1642C210.901 25.7065 211.182 27.2433 211.344 28.6847C212.511 28.6847 213.476 28.623 214.424 28.7016C215.321 28.7745 216.213 28.9876 217.419 29.1951C217.419 26.7441 217.419 24.3324 217.419 21.9263C217.648 21.9095 217.884 21.8927 218.114 21.8758C218.226 23.0817 218.333 24.2932 218.462 25.7009C219.454 25.8075 220.481 25.9141 220.974 25.9645C221.799 28.4996 222.051 31.0852 223.386 32.8632C224.586 34.4616 226.953 35.2076 228.877 36.1947C229.023 36.2676 230.06 35.2805 230.111 34.7308C230.229 33.4745 230.834 31.7695 228.383 31.8143C226.218 31.8536 225.265 30.3673 225.299 28.4155C225.332 26.3571 226.499 24.8653 228.641 24.9326C230.313 24.983 231.967 25.6224 233.745 26.0262C233.79 25.2691 233.863 23.9566 233.936 22.6442C234.149 22.6667 234.362 22.6835 234.57 22.7059C234.57 24.7867 234.57 26.8675 234.57 29.4531C233.504 28.3482 232.87 27.305 231.951 26.8507C230.801 26.2786 229.303 25.7626 228.153 26.0431C227.368 26.2338 226.353 27.8883 226.465 28.7464C226.577 29.5653 227.935 30.3785 228.911 30.8553C229.438 31.1133 230.318 30.6646 231.132 30.5131C231.182 30.9955 231.356 31.5003 231.261 31.9546C230.919 33.5811 230.487 35.1851 230.088 36.8004C228.013 36.2452 225.562 36.2003 223.941 35.0225C221.457 33.2165 220.06 30.4234 220.666 26.9629C220.015 26.9012 219.37 26.8339 218.647 26.7666C218.316 28.1743 218.002 29.498 217.665 30.9058C215.657 30.4683 213.722 28.0453 211.956 30.6534C211.479 31.3544 211.569 33.0931 212.124 33.7157C213.633 35.4095 215.601 35.2244 217.845 33.6764C217.845 35.2132 217.951 36.4078 217.822 37.58C217.548 40.0198 218.854 40.7601 220.986 40.8555C223.571 40.9733 226.151 41.1471 228.731 41.3715C229.589 41.4444 230.431 41.7304 231.221 42.4091C228.064 42.2184 224.906 42.0557 221.754 41.8202C219.881 41.6799 218.422 42.2015 216.835 43.3737C213.801 45.6116 210.425 47.3727 207.194 49.3526C206.448 49.8069 205.741 50.3228 204.423 51.2146C208.77 51.467 212.404 51.6914 216.05 51.8877C219.124 52.0503 222.197 52.2747 225.271 52.2803C226.791 52.2859 227.385 53.0318 228.019 54.2208C228.804 55.6959 229.881 57.0196 230.997 58.6517C231.406 52.9028 231.788 47.5241 232.169 42.1511C232.444 42.1455 232.719 42.1398 232.994 42.1342C233.067 42.7792 233.229 43.4298 233.19 44.0692C232.91 49.1058 232.534 54.1423 232.332 59.1845C232.287 60.2613 232.629 61.484 233.162 62.4263C235.675 66.8739 238.142 71.3664 241.008 75.5785C242.001 77.0424 243.061 77.9902 242.304 79.9084C241.738 81.3386 241.968 83.2904 241.059 84.3056C240.386 85.0515 238.445 84.6533 237.071 84.7655C236.746 84.7935 236.415 84.816 235.966 84.8552C235.736 89.0673 235.478 93.257 235.321 97.4522C235.304 97.9346 235.77 98.5459 236.179 98.9105C240.593 102.87 245.047 106.779 249.455 110.739C249.836 111.081 249.971 111.693 250.218 112.18C249.113 111.524 247.963 110.93 246.92 110.189C245.327 109.062 243.712 108.692 241.581 109.645C241.822 110.604 241.771 111.962 242.343 112.326C243.375 112.983 244.783 113.039 246.696 113.504C244.94 115.955 243.19 118.4 241.44 120.846C241.233 120.722 241.031 120.599 240.823 120.47C240.823 119.976 240.79 119.483 240.829 118.995C240.975 117.183 239.887 116.482 238.339 116.23C236.488 115.927 235.456 117.335 235.501 118.597C235.546 119.791 236.538 121.536 237.57 121.979C239.449 122.781 239.348 123.577 238.389 124.856C237.385 126.196 236.314 127.481 235.602 128.384C234.155 127.313 233.039 126.107 231.676 125.68C231.171 125.518 229.415 127.178 229.421 127.997C229.432 129.399 230.386 130.79 230.941 132.186C231.261 132.192 231.58 132.192 231.9 132.198C230.335 134.228 228.765 136.253 227.2 138.283C227.065 138.048 226.936 137.812 226.802 137.582C225.831 137.84 224.429 137.801 224.003 138.429C223.515 139.141 223.891 140.448 223.891 141.497C223.128 143.207 221.67 144.783 220.324 146.449C219.847 147.038 219.421 147.818 219.348 148.547C219.084 151.334 218.944 154.139 218.821 156.937C218.753 158.502 218.809 160.067 218.809 161.632C219.701 160.83 220.066 160.017 220.385 159.181C222.377 153.942 225.355 149.422 229.802 145.905C234.121 142.49 242.074 140.869 246.998 144.531C247.958 145.243 248.911 145.956 250.336 147.021C250.336 135.097 250.336 123.701 250.336 112.304C250.667 112.304 251.132 112.164 251.312 112.332C255.552 116.275 259.724 120.285 263.981 124.211C269.882 129.657 275.872 135.013 281.766 140.465C284.722 143.196 287.549 146.062 289.888 148.339C290.493 166.237 291.082 183.651 291.677 201.066C291.413 201.246 291.144 201.425 290.88 201.605C290.23 201.077 289.327 200.69 288.962 200.012C285.614 193.797 280.263 190.617 273.561 188.935C267.386 187.381 262.063 191.307 259.842 195.379C257.492 199.692 257.189 202.766 258.165 210.006C252.473 202.906 245.518 203.467 238.058 204.846C240.694 208.649 244.576 208.941 248.507 209.187C247.105 210.433 244.054 210.427 241.536 209.137C240.369 208.542 239.023 208.004 238.238 207.051C237.408 206.041 236.673 204.549 236.718 203.298C236.948 197.022 237.447 190.757 237.879 184.078C235.31 183.814 232.893 183.399 230.47 183.343C222.18 183.158 214.429 180.819 207.009 177.392C199.841 174.083 192.999 165.883 189.617 157.229C188.551 163.971 196.824 179.394 204.939 186.018C214.031 193.438 224.614 196.484 236.28 196.725C235.316 197.937 232.158 197.937 225.949 196.815C225.949 203.635 225.955 210.348 225.949 217.062C225.944 223.989 225.904 230.915 225.91 237.842C225.91 241.353 225.652 244.909 226.14 248.353C226.347 249.816 228.182 251.039 229.242 252.402C229.735 253.036 230.145 253.731 230.919 254.892C228.019 254.892 225.815 254.892 223.409 254.892C223.554 257.999 223.683 260.871 223.824 263.737C223.981 266.934 224.278 270.125 224.289 273.322C224.34 286.878 224.351 300.434 224.295 313.985C224.261 322.072 223.975 330.166 224.02 338.253C224.048 343.256 224.704 348.254 224.665 353.251C224.626 358.618 224.009 363.975 223.807 369.342C223.554 375.955 223.538 382.578 223.291 389.191C223.078 394.979 222.618 400.756 222.438 406.544C222.388 408.126 222.954 409.73 223.24 411.317L223.319 411.227C222.354 412.966 221.384 413.061 220.217 411.356C218.793 409.264 217.267 407.24 215.691 405.063C213.65 407.492 211.816 409.719 209.92 411.884C209.594 412.254 208.983 412.366 208.501 412.596C208.31 412.091 207.962 411.592 207.957 411.087C207.918 407.851 207.962 404.609 207.957 401.367C207.951 389.539 207.789 377.71 207.99 365.887C208.086 360.307 208.927 354.748 209.297 349.168C209.477 346.436 209.365 343.683 209.376 340.94C209.409 332.824 209.393 324.709 209.51 316.598C209.55 314.147 210.099 311.708 210.178 309.257C210.217 308.012 209.572 306.755 209.482 305.488C208.63 293.278 205.472 281.567 201.625 270.03C200.245 265.885 198.428 261.886 196.807 257.82C196.543 257.876 196.274 257.926 196.01 257.983C196.274 264.662 196.627 271.337 196.768 278.017C196.857 282.066 196.611 286.127 196.538 290.182C196.465 294.31 196.381 298.438 196.364 302.571C196.336 309.969 196.42 317.367 196.336 324.765C196.263 331.31 195.96 337.855 195.87 344.4C195.786 350.334 195.893 356.268 195.842 362.202C195.702 378.624 195.539 395.052 195.309 411.474C195.292 412.562 194.642 413.639 194.137 415.176C193.279 414.25 192.841 413.779 192.185 413.073C191.305 420.235 190.458 427.161 189.633 433.875C179.515 436.427 170.648 423.628 171.517 413.617C163.85 413.016 156.178 412.416 148.5 411.816C148.528 411.457 148.55 411.093 148.578 410.734C150.289 410.908 151.994 411.093 153.704 411.255C158.791 411.749 163.873 412.394 168.971 412.59C170.087 412.635 171.54 411.283 172.353 410.207C173.789 408.3 175.393 407.498 177.81 407.677C180.783 407.896 183.789 407.806 186.779 407.705C188.495 407.643 189.757 407.941 190.632 409.657C191.254 410.88 192.365 411.855 193.257 412.938C193.503 412.82 193.75 412.708 193.997 412.59C194.12 411.351 194.356 410.106 194.339 408.866C194.255 402.321 193.969 395.781 194.025 389.241C194.064 384.794 194.608 380.357 194.827 375.904C194.928 373.851 194.732 371.787 194.737 369.729C194.765 364.109 194.849 358.495 194.872 352.875C194.894 347.351 194.76 341.82 194.9 336.302C195.141 326.862 195.747 317.423 195.775 307.984C195.786 303.973 194.956 299.907 194.075 295.964C192.522 289.021 190.845 282.089 188.82 275.274C187.603 271.163 185.634 267.276 184.002 263.288C183.784 263.322 183.565 263.356 183.34 263.389C183.155 269.234 182.914 275.083 182.802 280.928C182.611 290.787 182.499 300.647 182.37 310.507C182.342 312.667 182.151 314.86 182.432 316.985C183.139 322.409 180.89 327.03 178.949 331.815C176.93 336.801 175.18 341.899 173.335 346.952C170.699 354.165 168.074 361.383 165.466 368.607C164.411 371.529 164.013 374.906 162.274 377.317C159.779 380.772 159.622 384.783 158.253 388.473C155.897 394.833 153.564 401.205 151.181 407.554C150.945 408.182 150.451 408.709 150.081 409.287C149.868 409.18 149.661 409.079 149.448 408.973C149.986 407.694 150.412 406.353 151.074 405.142C155.09 397.789 157.692 389.915 158.876 381.692C160.126 372.971 161.007 364.165 161.5 355.365C162.246 342.107 162.532 328.825 162.992 315.55C163.351 305.123 163.716 294.697 163.979 284.27C164.103 279.374 163.951 274.472 164.019 269.576C164.097 264.275 164.327 258.981 164.406 253.681C164.428 252.295 164.002 250.899 164.03 249.514C164.058 248.123 164.636 246.732 164.568 245.363C164.114 236.726 161.646 228.605 158.348 220.652C155.83 214.577 152.027 209.356 148.135 204.168C147.221 202.951 146.29 201.745 144.921 200.892C145.897 204.633 148.23 207.791 147.35 211.695C146.071 205.755 143.317 200.657 138.769 196.742C136.733 194.986 134.074 193.921 131.618 192.704C131.102 192.446 130.165 192.777 129.531 193.074C125.723 194.852 122.223 196.972 121.118 201.47L121.186 201.397C118.69 198.245 118.937 191.161 121.634 187.813C122.094 187.246 122.481 186.618 122.907 186.024C124.102 185.39 125.263 184.706 126.48 184.134C134.955 180.118 143.968 181.458 152.79 181.823C160.311 182.131 167.788 182.563 175.208 181.026C177.076 180.64 179.308 180.146 180.519 178.884C182.695 176.618 184.227 173.735 186.038 171.094C185.747 171.15 185.337 171.178 184.961 171.307C177.087 174.072 168.943 175.597 160.648 176.063C152.869 176.5 145.067 176.45 137.277 176.629C130.524 176.747 125.28 179.192 122.98 186.069ZM203.38 196.602C201.849 195.368 200.312 194.139 198.781 192.906C198.618 193.096 198.461 193.293 198.299 193.483C198.994 194.369 199.695 195.261 200.391 196.147C199.454 195.631 198.517 195.115 197.581 194.599C197.429 194.734 197.278 194.869 197.121 195.003C197.811 195.934 198.501 196.865 199.561 198.295C198.175 197.348 197.351 196.781 196.526 196.215C196.358 196.417 196.19 196.619 196.022 196.82C197.502 198.419 198.983 200.017 200.458 201.61C195.601 198.38 195.601 198.38 194.877 199.12C196.672 200.707 198.461 202.289 200.559 204.14C201.412 201.812 202.101 199.928 202.786 198.049C202.965 197.55 203.145 197.056 203.318 196.557C203.604 196.058 204.227 195.216 204.126 195.121C202.758 193.803 201.288 192.586 199.841 191.341C199.74 191.481 199.639 191.627 199.533 191.767C200.823 193.377 202.101 194.992 203.38 196.602ZM218.658 197.191C218.366 197.634 218.08 198.077 217.789 198.52C217.015 199.63 217.531 200.141 218.585 200.702C220.032 201.481 221.345 202.508 222.713 203.422C221.103 202.749 219.488 202.076 217.346 201.184C219.011 204.566 222.433 204.695 224.586 206.529C224.805 206.299 225.024 206.063 225.237 205.833C224.362 205.009 223.487 204.185 222.618 203.36C223.324 203.495 224.037 203.624 224.743 203.758C224.828 203.562 224.912 203.36 224.99 203.164C223.409 202.121 221.821 201.083 220.24 200.04C221.67 200.561 223.1 201.083 224.53 201.599C224.57 201.481 224.609 201.363 224.648 201.246C222.904 200.006 221.154 198.772 219.41 197.533C219.129 196.91 218.843 196.282 218.551 195.631C220.75 196.585 222.848 197.493 224.94 198.402C225.052 198.15 225.17 197.892 225.282 197.639C223.672 195.059 220.189 196.31 218.209 194.487C218.019 194.611 217.828 194.728 217.637 194.852C217.985 195.631 218.322 196.411 218.658 197.191ZM223.151 228.879C223.796 229.036 224.435 229.188 225.203 229.379C224.659 227.141 219.668 224.101 216.83 224.432C217.693 225.127 218.237 225.621 218.838 226.036C220.29 227.034 221.765 227.993 223.24 228.975C221.322 228.061 219.41 227.141 217.491 226.226C217.362 226.434 217.239 226.647 217.11 226.855C218.871 229.833 222.517 229.99 224.934 231.987C225.091 231.801 225.248 231.616 225.405 231.437C224.659 230.573 223.902 229.726 223.151 228.879ZM194.221 216.389C195.203 216.877 196.184 217.365 197.149 217.847C197.093 216.473 193.156 212.586 190.469 211.408C190.06 211.229 189.471 211.448 188.601 211.509C190.772 213.4 192.539 214.936 194.311 216.479C192.438 215.407 190.564 214.331 188.691 213.259C188.573 213.456 188.45 213.658 188.332 213.854C191.075 215.884 193.812 217.915 196.554 219.945C196.689 219.777 196.824 219.614 196.958 219.446C196.044 218.43 195.13 217.41 194.221 216.389ZM186.874 235.486C185.943 235.161 185.017 234.83 184.086 234.505C184.008 234.673 183.929 234.841 183.856 235.01C185.219 236.35 186.582 237.691 187.94 239.031C186.644 238.307 185.348 237.584 183.98 236.821C184.215 239.334 193.537 245.716 195.59 245.105C193.071 243.103 190.463 241.033 187.855 238.958C190.273 240.45 192.696 241.942 195.113 243.434C195.337 243.198 195.567 242.957 195.792 242.721C194.928 242.082 194.047 241.471 193.212 240.798C191.271 239.227 189.359 237.623 187.435 236.03C189.998 237.707 192.561 239.384 195.119 241.061C195.152 240.248 194.889 239.575 194.418 239.115C193.077 237.82 191.652 236.614 190.256 235.369C191.871 236.401 193.492 237.427 195.107 238.459C195.287 238.319 195.461 238.184 195.64 238.044C195.135 237.276 194.687 236.462 194.109 235.744C193.61 235.122 192.965 234.611 192.387 234.051C193.318 234.477 194.255 234.903 195.186 235.329C195.102 234.409 194.771 233.596 194.182 233.091C192.135 231.347 189.998 229.715 187.889 228.032C190.295 229.479 192.701 230.927 195.079 232.362C195.388 230.439 193.357 228.734 185.102 224.779C186.061 225.896 187.02 227.012 187.979 228.128C187.037 227.589 186.089 227.057 185.146 226.518C184.95 226.703 184.754 226.894 184.558 227.079C185.489 228.218 186.414 229.362 187.345 230.5C186.582 230.186 185.819 229.872 185.057 229.558C184.883 229.737 184.715 229.911 184.541 230.091C185.135 230.826 185.646 231.661 186.347 232.284C187.62 233.411 189 234.409 190.34 235.464C188.394 234.443 186.442 233.422 184.07 232.177C185.174 233.478 186.027 234.482 186.874 235.486ZM192.006 225.105C190.076 223.972 188.147 222.839 186.178 221.683C185.848 224.017 186.571 224.639 195.702 229.317C194.44 227.887 193.178 226.451 191.916 225.015C193.161 225.806 194.406 226.597 195.797 227.483C195.416 224.667 188.915 219.53 186.089 220.068C187.233 221.033 188.136 221.79 189.039 222.558C190.026 223.405 191.013 224.258 192.006 225.105ZM188.467 216.669C187.923 217.18 187.379 217.69 186.835 218.201C190.155 220.562 193.06 222.626 195.966 224.695C196.179 224.432 196.397 224.168 196.611 223.905C195.994 223.265 195.421 222.581 194.754 221.998C192.651 220.169 190.514 218.386 188.388 216.58C190.991 218.33 193.599 220.079 196.201 221.829C196.347 221.633 196.493 221.431 196.639 221.235C193.851 219.087 191.058 216.939 188.27 214.79C188.125 214.942 187.979 215.093 187.833 215.245C188.041 215.716 188.254 216.193 188.467 216.669ZM218.843 145.681C218.507 145.12 217.895 144.565 217.873 143.987C217.637 138.025 217.548 132.052 217.312 126.09C217.177 122.68 216.846 119.281 216.605 115.871C215.983 115.86 215.927 116.23 215.714 116.46C206.908 125.871 198.086 135.266 189.28 144.671C189.089 144.879 188.893 145.227 188.932 145.479C189.465 149.209 189.521 153.112 190.738 156.612C192.039 160.347 194.232 163.836 196.414 167.184C201.35 174.739 208.983 178.037 217.564 180.213C217.677 179.288 217.806 178.654 217.822 178.015C218.002 169.731 218.17 161.441 218.322 153.152C218.35 151.654 218.237 150.157 218.31 148.665C218.361 147.649 218.624 146.64 218.793 145.63C220.245 144.335 221.704 143.045 223.117 141.788C221.698 138.878 222.377 136.382 224.912 136.371C227.828 136.359 228.658 134.25 230.296 132.865C227.318 129.601 227.071 127.425 229.365 125.361C231.322 123.594 233.527 123.987 235.742 126.668C236.493 125.608 237.211 124.604 237.974 123.527C235.579 122.596 233.998 121.468 234.284 118.888C234.486 117.099 235.181 115.613 237.043 115.288C239.298 114.895 241.261 115.462 242.141 118.305C243.229 116.875 244.144 115.675 245.136 114.373C241.923 113.947 240.021 112.539 240.347 110.767C240.784 108.395 242.439 107.514 245.321 108.047C241.642 104.962 238.428 102.27 235.495 99.8078C234.216 103.543 233.083 107.2 231.715 110.767C228.165 120.005 224.469 129.18 220.935 138.418C220.032 140.762 219.527 143.258 218.843 145.681ZM130.294 176.708C131.18 176.422 131.595 176.186 132.027 176.164C139.705 175.805 147.384 175.53 155.056 175.121C160.452 174.835 165.886 174.7 171.215 173.898C177.412 172.961 183.632 171.778 189.089 168.295C189.499 168.031 190.228 168.261 191.097 168.261C189.129 170.14 187.222 171.514 185.909 173.315C183.217 177.016 180.688 180.858 178.366 184.807C173.89 192.423 170.872 200.674 168.943 209.255C166.402 220.556 166.386 232.065 166.918 243.574C167.098 247.5 167.911 248.325 171.966 248.998C174.075 249.345 176.189 249.671 178.31 249.929C178.831 249.99 179.566 249.923 179.897 249.603C181.753 247.82 183.711 246.075 182.488 242.991C182.179 242.205 182.398 241.174 182.505 240.276C182.937 236.602 183.509 232.94 183.868 229.261C184.788 219.833 187.687 210.943 191.826 202.547C194.776 196.574 198.652 191.06 202.18 185.233C195.343 178.172 190.845 169.523 188.45 159.529C187.323 160.364 186.436 160.953 185.623 161.632C179.527 166.719 172.235 169.018 164.596 170.028C156.817 171.054 148.932 171.273 141.136 172.182C137.389 172.614 133.525 173.371 130.294 176.708ZM209.331 410.93C213.767 405.759 217.935 400.93 222.057 396.062C222.32 395.747 222.287 395.142 222.315 394.665C222.489 391.524 222.724 388.383 222.78 385.237C223.005 372.92 223.386 360.604 223.285 348.287C223.195 337.311 224.16 326.318 222.954 315.348C222.679 312.846 223.005 310.277 222.82 307.759C222.259 299.98 222.287 292.162 219.449 284.652C217.576 279.694 216.521 274.427 214.973 269.34C214.188 266.754 213.117 264.259 211.945 261.101C211.743 265.291 211.507 268.74 211.423 272.195C211.249 279.408 211.142 286.62 211.019 293.833C210.929 299.2 210.918 304.573 210.755 309.941C210.559 316.537 210.172 323.127 210.01 329.723C209.914 333.727 210.284 337.743 210.099 341.742C209.847 347.149 209.073 352.527 208.871 357.934C208.551 366.397 208.411 374.872 208.405 383.341C208.4 391.199 208.658 399.051 208.837 406.909C208.871 408.109 209.129 409.309 209.331 410.93ZM290.134 198.576C290.28 196.888 290.701 194.622 290.617 192.378C290.449 187.852 289.893 183.348 289.714 178.822C289.461 172.658 289.389 166.483 289.276 160.314C289.226 157.627 289.271 154.946 289.271 152.215C288.648 152.277 288.413 152.232 288.345 152.316C284.144 157.644 279.96 162.984 275.776 168.323C275.675 168.452 275.642 168.626 275.552 168.76C273.028 172.485 269.495 175.182 265.883 177.661C260.414 181.413 254.037 182.608 247.548 183.214C244.637 183.483 241.726 183.78 238.681 184.083C238.344 190.735 238.025 197.056 237.711 203.366C244.34 203.534 251.104 200.887 256.27 206.72C256.455 204.291 256.466 202.255 256.786 200.27C257.632 195.059 260.515 191.105 265.109 188.694C270.953 185.62 276.55 187.504 281.525 190.847C284.75 193.018 287.392 196.069 290.134 198.576ZM208.501 190.152C208.254 190.528 207.94 190.982 207.654 191.459C203.251 198.666 200.581 206.473 198.865 214.751C196.992 223.781 195.921 232.822 196.386 242.026C196.594 246.12 198.119 249.659 202.242 251.241C206.269 252.783 210.217 253.131 213.162 248.975C213.537 248.448 214.16 248.1 214.575 247.59C214.889 247.208 215.209 246.709 215.248 246.244C215.489 243.204 215.714 240.158 215.82 237.107C215.927 234.095 215.871 231.072 215.927 228.061C216.134 217.034 216.364 206.002 216.532 194.975C216.538 194.51 216.129 193.82 215.719 193.612C213.392 192.412 211.002 191.335 208.501 190.152ZM203.24 92.4213C203.341 92.2025 203.436 91.9838 203.537 91.7594C205.175 91.7594 206.846 91.967 208.439 91.7034C210.346 91.3893 212.247 90.8116 214.031 90.06C214.625 89.8076 215.338 88.5177 215.158 87.9624C211.995 78.08 205.231 71.4562 195.5 68.4724C187.216 65.9373 184.092 70.8617 185.001 77.2555C186.229 85.904 190.699 93.156 196.981 98.8712C202.864 104.222 209.628 108.602 216.454 113.751C216.454 108.428 216.454 103.88 216.454 100.324C211.614 97.4354 207.424 94.9283 203.24 92.4213ZM250.263 181.929C250.263 181.021 250.263 180.129 250.263 179.237C250.24 172.187 250.195 165.132 250.218 158.082C250.223 156.068 250.296 154.571 248.126 153.039C242.298 148.928 236.336 149.113 231.693 154.582C225.265 162.159 222.433 171.425 219.589 181.105C229.853 182.474 239.87 183.651 250.263 181.929ZM217.761 98.9609C220.273 100.363 222.932 102.023 225.736 103.375C229.219 105.052 233.257 103.981 233.639 101.154C234.362 95.7921 234.609 90.3685 235.063 84.8945C232.068 84.6309 229.634 84.2887 227.189 84.2327C224.783 84.1766 223.409 82.7408 222.949 80.789C222.382 78.3772 222.304 75.6851 224.53 73.8959C226.634 72.2021 229.225 71.1365 231.822 72.4153C234.306 73.6379 236.465 75.472 235.966 78.9605C236.886 78.6801 237.593 78.4782 238.288 78.2482C240.363 77.5696 240.795 76.4198 239.404 74.6251C238.653 73.6548 238.019 72.5835 237.385 71.5291C233.925 65.7466 230.481 59.9585 226.751 53.7049C224.02 57.1598 221.631 60.1828 219.269 63.1722C216.903 57.1373 212.259 53.8731 206.925 54.6191C206.515 58.7134 207.037 62.6618 209.107 66.2738C209.639 67.2048 210.587 68.45 211.457 68.5453C216.375 69.1006 216.028 72.8023 216.291 76.1618C216.398 77.4855 216.258 78.8259 216.33 80.1496C216.482 82.8305 216.706 85.5114 216.914 88.383C218.591 87.8502 220.043 87.3062 221.541 86.936C223.207 86.521 224.598 86.5883 224.216 89.0056C223.953 90.677 223.852 92.3764 223.706 93.8178C221.917 93.6327 220.374 93.4701 219.202 93.3523C218.686 95.3378 218.271 96.953 217.761 98.9609ZM251.441 181.638C252.349 181.554 253.218 181.643 253.953 181.369C257.621 180.006 261.615 179.103 264.823 177.005C272.456 172.008 275.72 164.088 271.222 155.502C269.31 151.85 266.539 148.558 263.729 145.501C259.926 141.362 255.714 137.599 251.446 133.454C251.441 149.764 251.441 165.513 251.441 181.638ZM120.821 197.695C128.454 190.427 134.248 189.467 141.999 189.249C147.21 189.103 152.448 190.41 157.687 190.948C162.196 191.414 166.722 191.812 171.248 192.008C172.202 192.047 173.632 191.324 174.097 190.522C175.937 187.347 177.479 184.005 179.263 180.471C177.384 181.066 175.859 181.671 174.277 182.03C165.247 184.083 156.144 182.737 147.086 182.389C141.786 182.187 136.621 181.857 131.399 183.393C124.024 185.553 120.44 189.703 120.821 197.695ZM216.667 35.8357C215.781 35.8357 214.867 35.9311 213.98 35.8189C211.866 35.5441 210.408 34.4616 210.363 32.1789C210.296 28.6735 210.346 25.1625 210.346 21.3879C208.434 21.3879 206.897 21.1355 205.5 21.4832C204.665 21.6908 203.599 22.7732 203.492 23.5753C203.397 24.2763 204.362 25.3588 205.124 25.8524C205.825 26.3067 206.886 26.2001 207.794 26.3403C207.789 26.5759 207.777 26.8114 207.772 27.047C206.184 26.9461 204.592 26.8507 202.937 26.7441C202.937 28.1295 202.937 29.7728 202.937 31.3713C205.012 31.7022 207.166 32.336 207.603 34.5626C207.901 36.0713 207.615 38.2475 206.672 39.3187C205.175 41.0181 202.842 41.2705 200.643 39.7842C200.643 42.0725 200.671 44.1253 200.638 46.1781C200.604 48.2701 199.235 48.4215 197.57 48.3318C195.921 48.242 195.175 47.67 195.405 45.8808C195.713 43.4579 193.969 42.2801 192.124 41.478C190.306 40.6928 186.476 41.6295 186.106 43.1662C185.662 44.9778 185.814 47.1203 186.386 48.9039C186.672 49.79 188.422 50.5977 189.577 50.7042C190.643 50.8052 191.798 49.9134 193.021 49.4199C193.021 50.4911 193.021 51.5175 193.021 51.9381C194.743 52.4373 196.768 52.4093 197.474 53.3627C198.63 54.9163 198.927 57.1093 199.521 58.8424C201.198 57.3336 201.232 57.2103 200.525 53.5422C205.506 50.9566 216.095 54.821 219.69 60.5642C221.821 58.1918 223.947 55.8305 226.342 53.1664C217.755 52.8187 209.393 52.4766 200.312 52.112C206.644 48.3318 212.354 44.9161 217.665 41.7472C217.295 39.5655 216.987 37.7315 216.667 35.8357ZM181.355 408.709C181.355 408.703 181.355 408.698 181.355 408.687C180.441 408.687 179.532 408.681 178.618 408.687C174.086 408.703 172.74 409.915 172.959 414.492C173.082 417.055 173.559 419.696 174.423 422.108C175.23 424.368 176.717 426.399 177.984 428.479C179.858 431.542 182.948 432.591 186.24 433.135C187.654 433.365 188.781 433 188.972 431.149C189.544 425.518 190.262 419.898 190.895 414.267C191.299 410.689 190.116 409.107 186.571 408.743C184.855 408.563 183.099 408.709 181.355 408.709ZM218.473 140.229C218.658 140.24 218.849 140.252 219.034 140.263C223.594 128.339 228.153 116.415 232.786 104.295C226.746 107.06 222.663 102.478 217.57 100.318C217.878 113.846 218.176 127.038 218.473 140.229ZM166.374 216.383C166.969 213.153 167.479 210.517 167.928 207.875C168.074 207.034 168.433 205.962 168.079 205.357C166.795 203.164 165.443 200.954 163.761 199.064C160.351 195.233 155.937 192.765 151.164 191.083C149.167 190.382 146.918 190.415 144.781 190.112C154.72 196.607 162.617 204.302 166.374 216.383ZM223.796 78.5118C223.79 81.9948 226.106 83.6942 229.309 82.4772C230.756 81.9275 232.298 81.4227 233.493 80.5029C234.334 79.8467 235.153 78.5062 235.119 77.5023C235.035 75.0457 231.866 72.9929 229.051 73.2173C225.787 73.4809 223.801 75.4776 223.796 78.5118ZM191.882 103.476C191.406 103.975 190.374 104.547 190.267 105.259C189.942 107.436 189.891 109.668 189.88 111.878C189.841 120.184 189.863 128.49 189.858 136.797C189.858 138.709 189.858 140.622 189.858 142.534C190.867 141.564 191.804 140.369 191.815 139.164C191.922 127.318 191.882 115.473 191.882 103.476ZM217.43 241.112C217.475 240.916 217.519 240.719 217.564 240.517C219.892 241.718 222.22 242.923 224.547 244.124C224.704 243.838 224.867 243.552 225.024 243.266C222.545 241.897 220.066 240.523 217.581 239.154C217.654 238.997 217.727 238.84 217.794 238.683C220.043 239.682 222.292 240.674 224.541 241.673C224.693 241.353 224.839 241.033 224.99 240.714C222.472 239.446 219.948 238.173 217.43 236.905C217.503 236.743 217.581 236.586 217.654 236.423C219.97 237.421 222.281 238.414 224.598 239.412C223.409 236.294 219.92 236.255 218.131 233.894C220.24 234.909 222.349 235.924 224.541 236.973C224.805 236.434 225.041 235.946 225.254 235.514C222.59 234.28 220.038 233.103 217.104 231.751C216.88 235.458 216.673 238.79 216.465 242.256C219.191 243.658 222.018 245.111 224.85 246.569C225.013 246.289 225.175 246.014 225.338 245.733C222.707 244.191 220.071 242.649 217.43 241.112ZM194.373 101.608C194.081 101.619 193.789 101.625 193.503 101.636C192.213 113.919 193.116 126.253 193.172 138.664C193.801 138.137 194.333 137.515 194.339 136.892C194.384 125.131 194.373 113.37 194.373 101.608ZM197.429 100.621C197.429 111.967 197.429 122.831 197.429 133.981C199.426 132.057 199.454 102.994 197.429 100.621ZM202.707 104.654C202.528 104.743 202.343 104.839 202.163 104.929C202.163 112.713 202.163 120.498 202.163 128.277C202.466 128.361 202.763 128.446 203.066 128.53C203.492 127.414 204.283 126.297 204.277 125.187C204.244 119.208 204.059 113.224 203.801 107.25C203.767 106.37 203.088 105.517 202.707 104.654ZM199.768 102.59C199.768 112.495 199.768 121.665 199.768 131.211C201.849 129.259 201.815 106.033 199.768 102.59ZM240.678 83.4587C240.952 81.7536 241.25 79.9084 241.637 77.4742C237.896 79.4373 234.716 81.1086 231.535 82.78C231.586 83.0044 231.631 83.2343 231.681 83.4587C234.631 83.4587 237.582 83.4587 240.678 83.4587ZM192.185 203.966C191.86 205.738 194.709 208.498 198.641 210.444C199.875 206.826 198.226 204.437 193.032 202.306C192.864 202.468 192.701 202.631 192.533 202.794C193.621 203.798 194.704 204.796 195.792 205.8C195.719 205.895 195.651 205.996 195.579 206.091C194.518 205.424 193.458 204.762 192.185 203.966ZM204.945 106.482C204.945 113.089 204.945 119.337 204.945 126.067C206.936 123.79 206.785 109.606 204.945 106.482ZM197.62 215.649C197.777 213.405 193.761 209.748 190.357 208.829C190.088 210.27 190.088 210.27 197.62 215.649ZM217.295 229.008C217.194 230.786 221.664 233.613 225.22 233.894C223.246 231.403 220.414 230.22 217.295 229.008ZM207.228 108.344C207.228 113.325 207.228 118.311 207.228 123.701C208.68 121.513 208.725 111.429 207.228 108.344ZM217.867 203.798C217.862 205.632 220.313 207.6 224.861 209.429C224.581 207.309 222.304 205.469 217.867 203.798ZM224.99 222.457C224.962 220.298 220.397 217.23 216.908 216.669C218.91 219.878 222.489 219.967 224.99 222.457ZM224.844 214.639C224.345 212.384 220.116 209.406 217.003 209.294C219.202 212.177 222.186 212.973 224.844 214.639ZM224.743 218.857C224.9 218.593 225.052 218.33 225.209 218.066C222.786 216.72 220.357 215.379 217.643 213.871C218.108 215.974 222.163 218.588 224.743 218.857ZM225.192 226.271C223.425 223.478 220.195 223.03 217.407 221.841C219.331 224.359 222.36 225.144 225.192 226.271ZM198.534 213.416C197.631 210.169 193.116 206.781 190.721 207.219C193.273 209.244 195.657 211.134 198.534 213.416ZM224.396 216.709C224.603 216.383 224.816 216.058 225.024 215.727C222.618 214.291 220.206 212.861 217.8 211.425C218.899 214.875 222.197 214.953 224.396 216.709ZM225.057 210.836C222.775 209.356 220.498 207.875 218.069 206.299C218.024 208.155 222.276 211.201 225.057 210.836ZM217.716 218.879C217.519 219.21 217.318 219.547 217.121 219.878C219.466 221.779 222.287 222.833 225.007 224.062C225.147 223.815 225.293 223.574 225.433 223.327C222.859 221.846 220.285 220.365 217.716 218.879ZM194.49 199.726C194.16 200.124 193.823 200.516 193.492 200.915C195.573 202.597 197.654 204.274 199.74 205.957C199.953 205.699 200.166 205.447 200.38 205.189C198.411 203.366 196.448 201.548 194.49 199.726ZM191.692 245.907C191.894 245.599 192.096 245.29 192.297 244.987C189.583 243.204 186.868 241.415 184.154 239.631C183.991 239.878 183.828 240.13 183.666 240.377C186.335 242.222 189.016 244.068 191.692 245.907ZM223.375 247.977C223.549 247.635 223.728 247.298 223.902 246.956C221.49 245.745 219.079 244.527 216.667 243.316C216.544 243.58 216.415 243.843 216.291 244.107C218.652 245.397 221.014 246.687 223.375 247.977ZM210.985 119.337C211.148 119.365 211.305 119.393 211.468 119.427C211.468 116.729 211.468 114.037 211.468 111.339C211.305 111.334 211.148 111.334 210.985 111.328C210.985 113.998 210.985 116.667 210.985 119.337ZM200.895 189.686C200.694 189.967 200.486 190.247 200.284 190.528C201.798 191.739 203.318 192.956 204.833 194.168C205.018 193.915 205.209 193.663 205.394 193.41C203.986 192.047 202.948 190.152 200.895 189.686ZM201.081 188.234C202.965 189.765 204.44 190.965 205.921 192.171C205.551 189.81 203.481 188.228 201.081 188.234ZM209.224 120.661C209.37 120.678 209.516 120.694 209.662 120.711C209.662 117.11 209.662 113.51 209.662 109.909C209.516 109.915 209.37 109.926 209.224 109.931C209.224 113.51 209.224 117.082 209.224 120.661ZM184.552 243.462C185.848 244.084 186.936 244.612 188.024 245.133C188.119 244.954 188.209 244.78 188.304 244.6C186.941 243.675 185.578 242.744 183.817 241.544C183.885 243.08 183.924 244.017 183.969 244.954C184.204 244.937 184.44 244.92 184.675 244.903C184.647 244.516 184.614 244.124 184.552 243.462Z" fill="black"/>
<path d="M334.538 260.908C334.925 260.235 335.312 259.556 335.896 258.546C336.098 259.04 336.468 259.517 336.462 259.982C336.389 263.207 336.199 266.432 336.109 269.657C336.008 273.275 335.784 276.909 335.963 280.515C336.143 284.15 336.339 287.88 337.281 291.363C338.386 295.462 342.054 297.667 345.453 299.792C348.022 301.396 350.775 302.698 353.44 304.145C353.726 304.302 354.04 304.509 354.202 304.773C356.401 308.446 360.254 306.713 363.002 307.729C362.834 314.947 362.683 322.311 362.492 329.675C362.346 335.312 362.576 340.999 361.897 346.574C361.006 353.916 361.308 361.257 360.927 368.593C360.596 375.032 360.361 381.477 359.99 387.91C359.766 391.819 359.317 395.717 359.059 399.626C358.958 401.124 358.19 401.724 356.844 401.673C348.986 401.37 341.134 401.006 333.276 400.731C330.725 400.641 328.173 400.781 325.621 400.759C319.261 400.709 312.889 400.781 306.535 400.512C299.114 400.193 291.717 399.548 284.302 399.06C279.697 398.757 275.093 398.448 270.482 398.201C265.81 397.949 261.133 397.775 256.455 397.209C258.323 397.209 260.19 397.169 262.058 397.214C267.594 397.36 273.141 397.411 278.671 397.742C286.663 398.224 294.633 399.093 302.631 399.486C308.946 399.8 315.284 399.576 321.611 399.716C328.532 399.873 335.447 400.204 342.368 400.406C346.956 400.54 351.549 400.664 356.137 400.608C356.765 400.602 357.842 399.604 357.926 398.964C358.291 396.267 358.386 393.529 358.527 390.804C359.031 381.224 359.514 371.65 360.002 362.071C360.03 361.571 360.018 361.072 360.03 360.573C360.198 352.783 360.305 344.987 360.557 337.196C360.809 329.355 361.191 321.52 361.566 313.685C361.645 312.053 361.948 310.432 362.178 308.575C358.728 308.166 355.762 307.538 352.267 308.486C348.599 309.478 344.454 308.817 340.528 308.676C337.315 308.559 334.123 308.082 330.91 307.891C330.153 307.846 329.294 308.2 328.61 308.592C322.856 311.89 316.613 313.332 310.051 313.287C307.628 313.27 305.205 312.675 302.345 312.288C302.238 315.401 302.177 318.834 301.986 322.261C301.683 327.813 301.7 333.427 300.758 338.873C300.354 341.207 298.054 343.321 296.327 345.284C292.395 349.743 288.402 354.162 284.229 358.391C276.54 366.182 267.571 372.295 258.042 377.601C251.177 381.42 243.785 383.703 235.916 384.976C235.916 388.437 235.916 391.897 235.916 395.952C242.506 396.3 249.091 396.648 255.681 396.996C255.698 397.158 255.715 397.321 255.732 397.484C254.991 397.551 254.251 397.697 253.51 397.663C247.823 397.399 242.142 397.069 236.455 396.861C235.703 396.833 234.621 397.169 234.217 397.725C231.031 402.122 227.963 406.609 224.873 411.073C224.362 411.814 223.936 412.879 223.297 411.174L223.218 411.264C225.428 408.213 227.627 405.156 229.853 402.116C230.683 400.983 231.642 399.94 232.405 398.768C233.914 396.452 234.968 394.208 234.918 391.107C234.643 375.318 234.671 359.519 234.845 343.725C234.946 334.207 235.535 324.695 235.832 315.177C236.045 308.329 236.202 301.481 236.281 294.632C236.354 288.037 236.421 281.435 236.247 274.84C236.101 269.22 235.546 263.611 235.282 257.997C235.148 255.069 235.26 252.13 235.26 249.191C234.985 249.135 234.71 249.079 234.436 249.023C233.409 250.879 232.383 252.736 231.362 254.592C231.205 254.587 231.048 254.581 230.885 254.576C231.07 253.74 231.093 252.826 231.463 252.08C235.114 244.716 240.28 238.647 247.105 234.031C248.62 233.005 250.207 232.079 252.333 230.744C248.143 230.453 244.61 230.071 241.076 230.015C239.332 229.987 238.62 229.432 237.885 227.828C235.939 223.593 233.622 219.527 231.48 215.377C231.138 214.715 230.969 213.969 230.655 213.088C234.755 213.15 237.285 215.483 239.068 218.159C241.014 221.075 243.477 222.281 246.685 222.41C249.641 222.522 252.608 222.432 255.945 222.432C253.651 218.31 251.295 214.064 248.934 209.819C249.209 209.667 249.489 209.516 249.764 209.364C250.246 210.15 250.751 210.924 251.211 211.726C252.91 214.721 254.649 217.693 256.231 220.75C256.567 221.4 256.556 222.5 256.219 223.145C255.984 223.593 254.918 223.835 254.245 223.795C250.364 223.582 246.483 223.335 242.624 222.904C241.788 222.808 240.942 222.023 240.263 221.384C237.952 219.219 235.72 216.97 233.432 214.777C233.246 214.597 232.871 214.614 232.663 214.558C234.716 218.619 236.842 222.573 238.698 226.65C239.337 228.058 239.943 228.529 241.53 228.63C244.963 228.849 248.362 229.589 251.794 229.909C253.78 230.094 255.81 229.858 257.812 229.819C257.56 230.184 257.341 230.834 257.05 230.868C252.781 231.356 249.461 233.689 246.09 236.101C244.425 237.29 244.503 238.305 245.344 239.769C248.423 245.097 252.192 249.881 256.904 253.841C261.194 257.447 265.855 260.448 271.486 261.558C272.266 247.195 273.46 232.994 271.969 218.579C268.575 221.586 265.429 224.485 262.148 227.217C260.841 228.305 259.22 229.017 257.739 229.903C260.796 227.149 263.875 224.418 266.91 221.642C268.945 219.78 270.836 217.744 272.956 215.983C276.063 213.403 279.338 211.036 282.496 208.512C284.616 206.818 286.646 205.006 288.721 203.251C289.232 202.819 289.748 202.387 290.264 201.95C290.432 202.135 290.6 202.314 290.769 202.499C289.742 203.559 288.772 204.692 287.667 205.663C286.315 206.846 284.863 207.929 283.41 208.994C281.733 210.228 281.273 211.759 281.055 213.896C280.393 220.301 282.373 225.641 286.332 230.492C287.364 231.754 288.105 233.246 288.98 234.637C287.403 232.674 285.783 230.739 284.263 228.725C283.32 227.48 282.524 226.117 281.666 224.811C281.335 224.883 281.004 224.956 280.668 225.029C280.668 230.127 280.611 235.226 280.679 240.324C280.785 247.89 281.021 255.456 281.127 263.028C281.184 267.128 281.183 271.233 281.015 275.327C280.886 278.552 280.544 281.777 280.09 284.974C280.011 285.507 278.833 286.343 278.245 286.281C272.714 285.675 267.549 284.004 262.871 280.858C257.56 277.279 252.72 273.258 249.024 267.947C243.942 260.65 239.113 253.252 237.84 243.992C237.212 245.114 236.365 246.364 236.46 247.542C236.729 250.857 237.016 254.25 237.975 257.408C239.281 261.715 241.216 265.838 242.882 270.039C241.845 268.21 240.667 266.443 239.803 264.536C238.603 261.878 237.638 259.113 236.32 255.753C238.143 284.542 236.786 312.58 236.258 340.747C237.077 340.747 238.193 340.971 239.186 340.713C246.943 338.688 254.172 335.43 260.589 330.617C265.849 326.675 270.993 322.547 275.9 318.177C279.804 314.706 283.27 310.74 287.392 306.517C281.032 305.895 275.945 303.971 271.195 301.155C263.04 296.321 256.208 289.91 250.398 282.529C247.391 278.71 245.299 274.172 242.798 269.96C243.824 271.587 244.851 273.213 245.877 274.84C251.076 283.073 257.498 290.196 265.216 296.147C271.453 300.959 278.144 304.75 286.192 305.502C287.897 305.665 288.778 305.081 288.806 303.242C288.89 297.224 289.03 291.2 289.187 285.182C289.316 280.179 289.658 275.182 289.636 270.179C289.58 258.642 289.355 247.11 289.204 235.573C295.317 235.927 301.436 236.263 307.55 236.639C311.582 236.886 315.621 237.121 319.636 237.525C320.635 237.626 321.93 238.114 322.48 238.871C326.299 244.121 329.962 249.489 333.652 254.834C334 255.338 334.185 255.966 334.079 256.724C330.012 251.104 325.94 245.484 321.869 239.853C320.629 241.608 321.156 243.039 322.39 244.502C323.697 246.056 324.841 247.75 326.058 249.382C324.499 247.778 322.94 246.174 321.167 244.351C321.179 247.234 322.07 249.163 323.781 251.031C326.013 253.471 327.752 256.359 329.704 259.051C327.057 256.079 324.409 253.106 321.762 250.133C321.712 251.485 321.958 252.781 322.671 253.706C326.608 258.804 330.663 263.813 334.679 268.855C334.909 268.765 335.144 268.676 335.374 268.586C335.032 267.537 334.897 266.354 334.314 265.456C332.856 263.224 331.196 261.121 329.62 258.967C331.403 260.874 333.192 262.775 335.464 265.204C335.088 263.437 334.813 262.175 334.538 260.908ZM331.055 304.33C331.661 304.464 332.273 304.605 333.035 304.778C330.41 301.834 327.976 299.102 325.542 296.377C326.271 296.853 327.096 297.235 327.718 297.824C329.519 299.534 331.201 301.363 333.019 303.057C333.428 303.438 334.179 303.46 334.78 303.645C334.836 303.472 334.886 303.298 334.942 303.124C330.45 298.396 325.963 293.662 321.47 288.934C321.296 289.063 321.123 289.198 320.949 289.327C321.33 289.972 321.678 290.639 322.093 291.262C323.259 293.006 324.454 294.733 325.643 296.472C324.303 294.969 322.962 293.471 321.622 291.968C321.375 292.159 321.128 292.355 320.887 292.546C321.291 293.247 321.588 294.043 322.121 294.627C325.099 297.913 328.128 301.155 331.145 304.408C327.808 301.553 324.471 298.699 320.988 295.715C323.136 300.325 327.315 302.776 331.067 306.383C331.055 305.278 331.055 304.806 331.055 304.33ZM332.587 282.882C333.198 283.37 333.815 283.858 334.426 284.352C334.634 284.172 334.841 283.993 335.043 283.813C331.42 277.75 326.322 272.843 321.47 267.728C324.078 273.628 329.121 277.745 332.66 282.955C332.16 282.703 331.532 282.563 331.19 282.176C328.565 279.203 326.002 276.174 323.405 273.174C322.85 272.529 322.244 271.929 321.661 271.306C321.403 271.53 321.139 271.76 320.881 271.985C325.166 277.722 329.743 283.219 335.077 288.171C334.931 287.106 334.561 286.163 334.09 285.283C333.647 284.447 333.091 283.679 332.587 282.882ZM333.108 290.426C332.749 290.179 332.34 289.977 332.031 289.674C328.47 286.191 324.925 282.692 321.375 279.197C321.313 280.252 321.616 281.076 322.155 281.682C323.243 282.91 324.465 284.026 325.632 285.193C329.872 289.439 334.09 293.713 338.386 297.902C338.818 298.323 339.721 298.261 340.405 298.418C340.489 298.11 340.573 297.801 340.663 297.498C339.794 296.949 338.795 296.528 338.089 295.821C336.328 294.066 334.701 292.176 333.024 290.342C333.994 290.97 334.959 291.604 335.929 292.232C336.131 292.036 336.339 291.845 336.541 291.649C331.527 285.978 326.512 280.308 321.504 274.638C321.296 274.767 321.083 274.901 320.876 275.03C321.571 276.371 322.037 277.907 323.001 279.007C325.834 282.232 328.885 285.272 331.807 288.418C332.34 288.99 332.676 289.747 333.108 290.426ZM330.568 268.457C332.031 269.825 333.495 271.2 334.959 272.568C332.211 265.367 326.17 260.554 321.627 254.458C321.891 256.679 321.711 258.709 321.252 260.723C321.229 260.829 321.425 260.992 321.532 261.115C325.867 266.236 330.197 271.362 334.533 276.483C334.78 276.354 335.026 276.219 335.273 276.09C334.791 275.03 334.409 273.897 333.798 272.921C332.817 271.362 331.684 269.904 330.612 268.401L330.568 268.457ZM290.685 236.561C290.685 237.845 290.685 238.967 290.685 240.088C290.679 253.387 290.628 266.685 290.713 279.983C290.724 281.716 291.262 283.51 291.862 285.165C294.173 291.52 298.189 296.904 302.564 301.862C306.355 306.158 310.78 310.017 317.034 310.639C318.43 310.78 319.064 310.611 319.165 309.153C319.457 305.048 320.006 300.953 320.068 296.842C320.208 287.79 320.079 278.738 320.13 269.68C320.175 262.102 320.326 254.525 320.41 246.948C320.444 244.048 320.416 241.143 320.416 238.524C310.533 237.879 300.595 237.217 290.685 236.561ZM242.136 382.144C245.243 382.346 246.595 380.977 246.674 378.353C246.859 371.976 247.206 365.593 247.077 359.227C246.96 353.282 246.303 347.342 245.916 341.397C245.9 341.134 246.236 340.842 246.41 340.567C246.606 340.606 246.808 340.64 247.004 340.679C247.307 354.005 247.605 367.337 247.913 381.017C248.867 380.265 250.437 379.665 250.639 378.756C251.284 375.879 251.705 372.89 251.705 369.945C251.699 362.233 251.407 354.521 251.273 346.81C251.217 343.854 251.261 340.898 251.261 337.897C245.978 339.636 240.97 341.279 235.664 343.029C235.664 356.327 235.664 369.956 235.664 383.726C237.795 383.316 239.523 382.985 241.497 382.604C241.497 369.182 241.497 356.013 241.497 342.844C241.71 342.839 241.923 342.833 242.136 342.833C242.136 355.946 242.136 369.059 242.136 382.144ZM261.469 373.894C262.911 373.484 264.206 373.181 264.268 371.314C264.397 367.421 264.649 363.535 264.717 359.642C264.801 354.712 264.761 349.782 264.767 344.847C264.773 339.788 264.767 334.723 264.767 329.535C262.047 330.208 261.744 332.121 261.733 334.145C261.699 338.8 261.722 343.461 261.722 348.116C261.48 348.116 261.234 348.116 260.992 348.122C260.992 342.799 260.992 337.471 260.992 331.795C258.687 333.13 257.375 334.291 257.571 336.798C257.79 339.653 257.554 342.547 257.459 345.424C257.235 352.127 256.993 358.823 256.724 365.526C256.567 369.373 256.348 373.215 256.147 377.203C260.42 375.369 260.409 375.369 260.465 371.976C260.555 366.642 260.639 361.313 260.779 355.985C260.807 354.97 261.105 353.961 261.278 352.945C261.34 352.962 261.407 352.985 261.469 353.001C261.469 359.883 261.469 366.771 261.469 373.894ZM251.727 379.054C251.968 379.216 252.204 379.373 252.445 379.536C253.381 378.65 254.756 377.915 255.154 376.833C255.726 375.262 255.659 373.434 255.743 371.712C256.102 364.034 256.483 356.355 256.713 348.672C256.853 344.044 256.741 339.406 256.741 334.773C256.528 334.667 256.32 334.56 256.107 334.459C254.817 335.609 252.894 336.529 252.394 337.954C251.66 340.051 251.772 342.508 251.834 344.802C252.063 353.209 252.529 361.611 252.664 370.018C252.708 373.024 252.058 376.042 251.727 379.054ZM275.984 319.753C273.584 321.223 273.242 323.124 273.169 325.278C272.995 330.472 272.524 335.654 272.451 340.848C272.327 349.591 272.417 358.341 272.417 367.32C273.152 366.692 274.122 366.272 274.178 365.75C275.777 350.556 275.648 335.295 275.984 319.753ZM265.692 371.622C267.336 371.078 268.155 369.816 268.222 368.005C268.385 363.377 268.676 358.756 268.671 354.129C268.659 346.765 268.435 339.406 268.317 332.042C268.289 330.393 268.312 328.744 268.312 327.235C265.457 327.527 265.547 329.49 265.552 331.33C265.58 338.598 265.664 345.873 265.692 353.142C265.715 359.272 265.692 365.397 265.692 371.622ZM275.693 364.914C276.556 363.888 277.886 363.002 278.116 361.886C278.609 359.485 278.66 356.967 278.682 354.493C278.755 345.609 278.744 336.72 278.761 327.836C278.766 324.459 278.761 321.083 278.761 317.706C278.531 317.617 278.295 317.532 278.065 317.443C277.605 318.25 276.786 319.036 276.747 319.866C276.472 325.609 276.371 331.358 276.192 337.107C276.035 342.143 275.805 347.174 275.704 352.205C275.625 356.305 275.693 360.405 275.693 364.914ZM353.922 306.725C353.883 306.394 353.843 306.063 353.804 305.732C350.114 303.505 346.44 301.251 342.705 299.097C342.284 298.856 341.347 299.013 340.932 299.344C338.156 301.525 335.453 303.797 332.744 306.063C332.626 306.164 332.704 306.506 332.671 307.246C338.745 307.454 344.752 307.717 350.759 307.807C351.807 307.824 352.867 307.106 353.922 306.725ZM272.529 323.113C270.263 324.039 269.046 325.435 269.131 328.256C269.344 335.301 269.187 342.362 269.181 349.412C269.175 355.985 269.181 362.559 269.181 369.126C269.394 369.21 269.607 369.295 269.826 369.373C270.297 368.565 271.122 367.775 271.166 366.945C271.335 363.938 271.189 360.915 271.245 357.903C271.374 351.414 271.503 344.919 271.739 338.43C271.924 333.332 272.26 328.234 272.529 323.113ZM281.75 314.745C281.559 314.666 281.374 314.588 281.184 314.509C280.684 315.267 279.826 315.99 279.753 316.787C279.434 320.118 279.187 323.472 279.209 326.82C279.265 333.73 279.551 340.64 279.669 347.555C279.742 351.913 279.68 356.277 279.68 361.05C280.23 360.382 281.049 359.838 281.139 359.193C281.458 356.832 281.649 354.443 281.677 352.059C281.756 344.319 281.739 336.579 281.75 328.839C281.756 324.139 281.75 319.439 281.75 314.745ZM287.981 308.284C287.684 308.2 287.387 308.11 287.089 308.026C286.781 308.704 286.265 309.361 286.209 310.056C285.956 313.141 285.788 316.242 285.682 319.338C285.468 325.536 285.328 331.739 285.126 337.937C285.065 339.9 284.823 341.863 284.795 343.831C284.739 347.825 284.779 351.824 284.779 356.557C285.553 355.514 286.069 355.127 286.153 354.667C288.879 339.272 285.934 323.702 287.981 308.284ZM285.368 310.617C282.395 312.255 282.681 314.7 282.659 317.117C282.569 327.561 282.406 338.01 282.288 348.453C282.249 351.818 282.283 355.189 282.283 358.554C283.006 357.999 283.556 357.326 283.623 356.613C283.892 353.568 284.094 350.511 284.179 347.455C284.392 339.989 284.481 332.519 284.706 325.054C284.846 320.281 285.138 315.508 285.368 310.617ZM287.802 353.125C287.734 353.181 288.026 353.052 288.071 352.867C288.626 350.422 289.54 347.982 289.608 345.52C289.81 338.066 289.681 330.606 289.681 323.147C289.681 317.319 289.681 311.492 289.681 305.087C289.238 306.102 288.722 306.753 288.699 307.426C288.475 313.881 288.29 320.342 288.172 326.804C288.015 335.62 287.925 344.437 287.802 353.125ZM290.612 350.13C290.713 350.164 290.814 350.197 290.909 350.231C291.167 349.098 291.604 347.965 291.644 346.821C291.874 340.421 292.014 334.011 292.171 327.606C292.328 321.33 292.507 315.048 292.58 308.772C292.591 307.779 292.07 306.781 291.795 305.782C291.397 305.861 291.004 305.939 290.606 306.018C290.612 320.724 290.612 335.43 290.612 350.13ZM292.541 347.539C292.799 347.623 293.051 347.707 293.309 347.785C293.595 346.624 294.089 345.469 294.134 344.302C294.336 338.643 294.454 332.984 294.538 327.32C294.622 321.402 294.655 315.485 294.633 309.568C294.633 308.912 294.106 308.261 293.825 307.605C293.646 307.689 293.472 307.779 293.293 307.863C293.046 321.094 292.793 334.314 292.541 347.539ZM297.925 309.764C297.561 321.1 297.202 332.036 296.832 343.551C297.263 342.614 297.6 342.199 297.634 341.762C298.004 337.348 298.329 332.934 298.66 328.52C298.991 324.078 299.367 319.641 299.625 315.199C299.737 313.315 299.967 311.301 297.925 309.764ZM321.425 263.056C323.983 270.274 329.951 274.969 334.611 280.633C332.721 272.916 325.918 268.844 321.425 263.056ZM295.396 344.549C295.693 342.199 296.091 340.343 296.142 338.475C296.389 329.103 296.551 319.725 296.697 310.348C296.703 309.86 296.271 309.361 296.046 308.867C295.828 308.94 295.615 309.013 295.396 309.086C295.396 320.718 295.396 332.356 295.396 344.549ZM338.975 299.854C332.985 293.898 327.247 288.194 321.51 282.49C321.958 285.782 336.602 300.258 338.975 299.854ZM321.51 285.457C321.257 285.687 320.999 285.917 320.747 286.141C325.043 292.103 330.573 296.999 335.879 302.316C336.103 301.492 336.114 300.65 335.699 300.179C334.443 298.749 333.002 297.487 331.678 296.113C328.268 292.574 324.897 289.007 321.51 285.457ZM300.696 311.318C300.04 320.959 299.395 330.455 298.733 340.13C300.101 338.576 301.666 314.459 300.696 311.318ZM320.579 303.539C320.932 303.247 321.285 302.956 321.633 302.664C322.396 303.932 323.018 305.317 323.961 306.433C325.884 308.716 325.957 308.654 327.309 307.644C325.38 305.547 323.439 303.438 321.257 301.066C320.949 302.182 320.764 302.86 320.579 303.539ZM320.775 304.56C320.595 306.859 320.472 308.475 320.326 310.325C321.022 310.28 321.678 310.236 322.429 310.185C322.115 309.417 321.908 308.906 321.605 308.16C322.828 308.66 323.691 309.007 324.549 309.361C324.639 309.192 324.729 309.024 324.819 308.856C323.585 307.549 322.351 306.237 320.775 304.56ZM321.296 298.57C321.123 298.732 320.954 298.889 320.78 299.052C322.76 302.456 326.299 304.414 329.014 307.51C329.25 306.859 329.451 306.528 329.384 306.461C326.703 303.814 324 301.195 321.296 298.57Z" fill="black"/>
<path d="M121.116 201.441C121.296 202.064 121.817 202.854 121.604 203.275C120.449 205.535 119.193 207.756 117.819 209.893C116.013 212.698 116.512 217.818 118.923 220.185C119.361 220.611 119.714 221.122 120.107 221.593C119.922 221.812 119.742 222.025 119.557 222.243C118.609 221.492 117.706 220.667 116.702 220.006C116.013 219.557 115.121 218.951 114.42 219.058C105.603 220.404 98.536 224.779 94.4081 232.67C92.0076 237.252 90.7232 242.474 89.3659 247.527C87.1225 255.878 87.5656 264.353 90.1792 272.48C91.8225 277.601 94.6437 282.346 97.0049 287.225C97.4087 288.061 98.1771 288.728 98.9735 289.715C99.4839 283.871 99.181 278.251 102.069 273.271C100.639 271.785 99.3717 270.13 97.7789 268.896C95.5691 267.191 95.7878 264.964 95.8046 262.654C95.8159 260.932 95.7093 259.199 95.5635 257.483C95.126 252.362 94.6549 247.241 94.1781 242.126C93.9931 240.163 94.9073 239.344 96.7974 239.507C100.908 239.871 105.02 240.298 109.136 240.612C111.829 240.819 114.532 240.892 117.235 240.982C118.57 241.027 119.176 241.369 119.181 242.973C119.198 247.079 119.524 251.178 119.748 255.811C120.729 254.903 121.442 254.375 121.997 253.714C126.131 248.789 131.347 248.655 136.938 250.326C140.864 251.498 144.117 253.652 145.968 257.438C146.406 258.335 146.417 259.49 146.451 260.534C146.518 262.687 146.473 264.852 146.473 267.253C141.083 268.672 135.912 268.066 130.629 266.153C130.371 270.472 130.124 274.707 129.843 279.457C126.876 278.689 124.111 277.976 121.206 277.225C121.335 277.068 121.178 277.169 121.156 277.298C120.37 281.471 123.018 282.783 126.31 284.006C128.223 284.718 129.782 286.384 131.762 287.814C134.616 285.767 137.774 283.54 140.892 281.263C144.364 278.728 147.746 276.064 151.28 273.624C153.142 272.34 154.151 270.926 153.977 268.548C153.708 264.925 153.618 261.285 153.652 257.656C153.663 256.619 154.095 255.245 154.836 254.673C155.318 254.302 156.866 254.891 157.645 255.452C158.868 256.327 160.248 257.359 160.854 258.655C162.553 262.278 161.571 264.359 157.46 266.602C159.732 268.229 160.713 270.388 160.562 273.159C160.439 275.329 159.435 276.754 157.511 277.556C155.581 278.358 153.742 278.01 152.272 276.563C151.296 275.604 150.551 274.976 150.074 275.8C150.618 278.515 151.336 280.607 151.386 282.71C151.498 287.13 151.437 291.572 151.061 295.969C150.96 297.164 149.597 298.336 148.649 299.368C142.177 306.407 135.66 313.401 129.165 320.411C127.841 321.836 126.557 323.294 125.256 324.741C124.992 324.528 124.734 324.315 124.47 324.102C124.824 323.591 125.121 323.036 125.536 322.582C130.836 316.783 136.142 310.989 141.465 305.206C144.033 302.419 146.647 299.682 149.204 296.883C149.563 296.491 149.928 295.913 149.934 295.414C149.995 291.948 149.967 288.476 149.967 285.643C147.011 285.184 144.381 284.769 142.11 284.415C142.474 285.599 143.472 287.276 143.355 288.863C143.231 290.529 142.368 292.408 141.24 293.669C139.266 295.879 136.877 294.584 134.594 293.653C134.594 298.358 134.594 303.058 134.594 307.758C134.336 307.882 134.078 307.999 133.82 308.123C131.935 302.419 128.783 297.988 122.491 296.154C122.95 305.621 123.399 314.876 123.848 324.13C123.64 324.186 123.438 324.248 123.231 324.304C122.995 323.401 122.608 322.503 122.547 321.589C122.047 313.905 121.649 306.21 121.139 298.527C120.836 293.961 120.427 289.407 119.983 284.853C119.815 283.12 119.024 282.132 116.988 281.813C110.864 280.848 104.863 286.373 103.034 291.415C102.518 292.828 101.694 294.135 101.06 295.391C100.639 295.363 100.376 295.414 100.331 295.335C97.1956 289.592 93.9482 283.905 90.9868 278.072C87.5039 271.201 86.814 263.775 87.0383 256.176C87.2795 247.875 88.9901 239.883 92.905 232.636C97.0666 224.936 103.421 219.613 112.367 218.009C112.928 217.908 113.461 217.661 114.021 217.588C114.476 217.532 114.953 217.633 115.766 217.695C113.904 210.976 118.564 206.528 121.172 201.346C121.184 201.368 121.116 201.441 121.116 201.441ZM130.522 259.692C128.419 262.104 125.738 265.099 123.152 268.178C121.189 270.517 120.466 270.635 118.475 268.386C117.959 267.802 117.779 266.939 117.325 266.282C116.304 264.796 114.924 263.495 113.068 264.033C111.8 264.404 110.269 265.391 109.748 266.518C108.553 269.087 109.226 271.65 111.127 273.798C113.057 275.98 116.052 276.524 117.863 274.763C119.434 273.237 120.6 273.54 121.711 275.038C123.5 277.438 126.131 277.438 129.058 277.982C129.058 273.293 129.058 268.902 129.058 264.207C131.049 265.009 132.58 265.806 134.207 266.232C135.862 266.664 137.611 266.883 139.322 266.933C145.082 267.09 145.088 267.045 145.407 261.47C145.413 261.347 145.267 261.212 145.189 261.078C145.155 261.296 145.121 261.515 145.088 261.734C140.393 261.072 135.693 260.416 130.522 259.692ZM145.503 259.502C143.764 254.908 140.186 252.143 135.374 250.948C129.097 249.4 123.73 251.459 120.931 256.692C119.26 259.821 120.404 264.454 120.314 268.414C120.314 268.526 120.701 268.649 121.066 268.851C123.691 265.778 126.445 262.816 128.879 259.614C130.236 257.825 131.408 257.763 133.287 258.627C137.135 260.399 141.15 260.831 145.503 259.502ZM96.5955 240.92C98.4183 249.058 107.482 252.777 118.402 250.18C118.301 249.131 118.189 248.071 118.105 247.011C117.987 245.531 118.391 243.629 117.622 242.704C116.944 241.885 114.958 242.16 113.545 241.952C113.461 241.941 113.382 241.913 113.304 241.913C107.796 241.582 102.294 241.257 96.5955 240.92ZM111.677 260.893C106.938 259.008 101.806 256.967 96.5394 254.875C96.7189 256.204 97.3078 257.847 97.0778 259.361C96.3767 264 97.5377 267.769 101.346 270.624C101.654 270.854 101.84 271.269 102.165 271.442C102.428 271.583 102.972 271.639 103.13 271.476C104.964 269.62 106.87 267.814 108.508 265.789C109.815 264.196 110.78 262.312 111.677 260.893ZM116.091 263.59C116.36 263.557 116.629 263.523 116.899 263.495C116.529 259.844 116.164 256.193 115.783 252.446C114.7 252.508 113.741 252.564 112.462 252.637C112.698 254.852 112.917 256.888 113.13 258.918C113.466 258.896 113.803 258.873 114.139 258.851C114.139 256.905 114.139 254.959 114.139 253.012C114.296 253.012 114.448 253.018 114.605 253.018C115.11 256.535 115.603 260.062 116.091 263.59ZM119.036 265.374C118.822 260.702 118.615 256.035 118.396 251.162C116.758 252.609 116.994 263.529 119.036 265.374ZM126.893 297.281C127.314 297.209 127.74 297.136 128.161 297.063C127.959 293.619 127.791 290.175 127.505 286.743C127.465 286.249 126.848 285.801 126.495 285.335C126.26 285.442 126.024 285.543 125.788 285.649C126.159 289.525 126.523 293.4 126.893 297.281ZM122.676 294.875C122.995 294.83 123.315 294.78 123.64 294.735C123.158 290.983 122.67 287.231 122.188 283.479C121.874 283.523 121.559 283.568 121.245 283.613C121.767 287.36 120.948 291.308 122.676 294.875ZM96.2421 244.79C96.9376 247.572 95.3616 250.993 98.4912 253.607C98.536 250.191 98.923 247.14 96.2421 244.79ZM125.026 295.582C125.968 289.609 124.992 284.595 123.13 284.174C123.764 287.982 124.392 291.779 125.026 295.582ZM131.178 290.59C130.971 294.096 130.298 297.635 131.722 301.022C131.621 297.539 132.597 293.984 131.178 290.59ZM129.165 298.588C129.473 298.577 129.782 298.566 130.09 298.555C129.928 295.105 129.771 291.662 129.608 288.212C129.462 288.218 129.316 288.229 129.165 288.235C129.165 291.684 129.165 295.139 129.165 298.588ZM108.604 258.604C109.058 258.369 109.978 258.094 109.972 257.858C109.894 256.035 110.69 253.972 108.604 252.042C108.604 254.476 108.604 256.406 108.604 258.604ZM106.248 258.01C108.39 257.741 107.426 256.041 107.487 255.093C107.555 254.044 108.065 252.502 106.248 251.756C106.248 254.028 106.248 255.789 106.248 258.01ZM133.169 304.073C133.483 304.045 133.798 304.017 134.106 303.989C133.932 301.454 133.753 298.925 133.579 296.39C133.444 296.406 133.304 296.418 133.169 296.435C133.169 298.981 133.169 301.527 133.169 304.073ZM103.819 251.021C103.819 253.13 103.819 255.054 103.819 257.135C105.637 255.918 105.513 252.306 103.819 251.021ZM101.8 250.057C101.8 252.003 101.8 253.949 101.8 255.895C102.036 255.895 102.266 255.901 102.501 255.901C103.236 253.966 102.541 252.014 101.8 250.057Z" fill="black"/>
<path d="M123.395 213.988C119.816 220.371 121.611 223.388 125.599 225.138C125.7 221.902 124.612 218.352 128.392 215.654C128.285 216.608 128.409 217.264 128.145 217.539C126.435 219.294 126.547 221.291 126.872 223.534C127.618 228.728 128.123 233.961 128.74 239.311C131.219 237.803 130.989 235.481 130.871 233.288C130.703 230.08 130.366 226.883 130.125 223.68C130.103 223.372 130.181 222.962 130.377 222.744C131.841 221.1 133.339 219.496 135.341 217.326C135.571 222.99 135.835 227.898 135.941 232.811C136.003 235.683 137.226 237.977 139.48 240.125C139.48 237.808 139.492 235.486 139.475 233.17C139.469 232.087 139.621 230.96 139.357 229.939C138.084 225.077 141.449 222.923 144.994 220.192C148.858 224.583 152.661 228.902 156.486 233.243C156.418 224.897 153.844 217.729 146.054 212.962C148.241 212.513 150.978 214.179 153.474 217.954C157.164 223.529 158.359 229.709 157.204 236.238C156.962 236.328 156.721 236.412 156.48 236.501C155.779 235.268 155.235 233.893 154.338 232.817C151.595 229.541 148.723 226.367 145.874 223.181C144.859 222.042 144.068 222.25 142.84 223.276C140.748 225.026 140.31 227.028 140.411 229.592C140.596 234.107 140.462 238.633 140.462 243.798C137.327 240.646 135.19 237.696 134.988 233.686C134.775 229.395 134.595 225.11 134.399 220.747C131.387 222.031 131.264 224.454 131.482 227.101C131.735 230.147 132.318 233.277 131.881 236.238C131.544 238.493 129.839 240.545 128.487 243.193C127.831 242.02 127.377 241.56 127.326 241.05C127.007 238.106 126.407 235.122 126.614 232.2C126.872 228.532 125.111 226.49 122.413 224.533C118.908 221.986 119.306 216.675 123.395 213.988Z" fill="black"/>
<path d="M219.921 22.4525C220.381 21.6504 221.705 20.3885 221.716 19.1097C221.733 16.8943 219.512 16.2718 217.779 16.1932C216.781 16.1484 215.384 17.1523 214.767 18.0777C213.32 20.2539 215.754 21.0728 216.797 22.4076C214.56 22.4581 213.286 21.1232 213.331 18.8854C213.37 16.8326 215.367 14.8976 217.341 15.0042C220.813 15.1893 223.057 17.4215 222.86 20.9157C226.461 21.112 230.067 21.3083 233.679 21.5102C233.674 21.8243 233.674 22.1328 233.668 22.4469C228.833 22.4525 223.988 22.4525 219.921 22.4525Z" fill="black"/>
<path d="M334.621 261.003C332.109 257.632 329.59 254.256 327.078 250.885C329.59 254.261 332.103 257.632 334.621 261.003Z" fill="black"/>
<path d="M330.616 268.406C327.851 265.45 325.086 262.489 322.321 259.533C322.64 259.264 322.96 259 323.28 258.731C325.708 261.973 328.137 265.215 330.565 268.462L330.616 268.406Z" fill="black"/>
</svg>
