<svg width="300" height="300" viewBox="0 0 300 300" fill="none" xmlns="http://www.w3.org/2000/svg">
<rect width="300" height="300" fill="white"/>
<g clip-path="url(#clip0_358_258)">
<path d="M250.897 65.7087C252.778 67.4806 254.442 69.5192 253.441 73.3868C252.439 77.2544 252.359 81.1868 253.57 85.0278C253.905 86.0871 254.827 86.9635 255.718 88.2857C256.221 86.0299 256.72 84.3343 256.937 82.6043C257.074 81.5221 257.656 81.3507 258.49 81.0306C260.947 80.0856 263.624 79.373 265.726 77.8755C269.382 75.2539 272.227 71.8055 271.606 66.8557C271.381 65.0419 270.536 63.2738 269.782 61.5667C268.217 58.0268 267.847 54.4907 269.02 50.7374C270.258 46.786 275.323 43.0593 279.348 43.5547C278.373 44.2596 277.357 44.7321 276.705 45.5095C273.659 49.1523 274.123 53.0961 275.765 57.1961C276.93 60.1073 278.236 63.0605 278.743 66.1126C279.92 73.1887 277.063 78.9691 271.758 83.4769C269.687 85.2412 267.063 86.3538 264.725 87.817C264.214 88.1371 263.563 88.6401 263.464 89.1507C262.794 92.5801 262.249 96.0095 261.678 99.4694C261.685 99.63 261.719 99.7883 261.777 99.9381C261.579 99.2637 261.137 98.5587 261.232 97.9338C261.636 95.2665 262.207 92.5992 262.706 89.9318C262.95 88.621 263.274 87.6189 264.785 86.9444C267.228 85.9177 269.509 84.5446 271.56 82.8672C275.601 79.3883 278.076 74.8653 278.358 69.4658C278.587 65.0571 277.17 60.9799 275.152 57.1123C273.845 54.605 273.419 51.9644 274.139 49.2475C274.519 47.7995 275.281 46.4506 275.978 44.816C272.825 45.8867 270.772 47.7843 269.641 50.7793C268.064 54.9708 269.009 58.8423 270.898 62.6184C273.183 67.191 272.642 71.2911 269.409 75.2692C266.61 78.6986 263.034 80.7181 258.78 81.625C257.809 81.8308 257.413 82.2423 257.23 83.2216C256.407 87.5655 255.459 91.8828 254.614 96.2229C254.084 98.9398 253.658 101.679 253.144 104.652L261.75 99.9C261.903 99.8505 262.108 99.7133 262.196 99.7667C264.1 100.948 265.707 104.648 265.3 106.904C264.515 111.255 263.742 115.614 262.95 119.966C262.893 120.271 262.702 120.8 262.569 120.804C260.532 120.827 259.781 122.965 258.06 123.494C257.062 123.799 256.095 124.203 254.72 124.71L262.242 126.2C262.287 126.36 262.333 126.52 262.382 126.68L259.336 129.111L261.971 129.759L259.397 132.807L261.175 133.459L258.273 136.366C259.713 136.961 259.5 137.704 258.384 138.652C256.16 140.558 256.19 140.577 251.46 139.918C250.733 143.873 249.99 147.836 249.286 151.806C247.534 161.668 245.792 171.533 244.061 181.402C241.985 193.355 239.982 205.32 237.895 217.27C236.532 225.066 235.031 232.839 233.668 240.636C232.145 249.304 230.743 257.992 229.239 266.661C228.131 273.047 226.927 279.415 225.811 285.793C225.05 290.103 224.349 294.42 223.568 298.726C223.492 299.153 223.05 299.831 222.75 299.846C220.769 299.949 218.778 299.9 216.546 299.9C225.93 247.441 235.271 195.204 244.701 142.49L242.61 143.743L242.64 143.778C243.943 142.303 245.222 140.813 246.551 139.369C247.256 138.607 248.048 137.925 248.81 137.197C248.212 136.179 247.667 135.292 246.925 134.004L249.827 134.766C249.122 133.569 248.459 132.457 247.801 131.336L248.28 131.07C248.661 131.717 248.993 132.369 249.366 133.009C251.087 135.955 254.317 135.676 256.982 136.225C257.771 136.389 258.909 134.869 260.265 133.832L249.45 131.717C249.45 131.641 249.45 131.565 249.45 131.489L250.592 131.241C249.884 130.06 249.194 128.905 248.341 127.488H250.893C250.31 126.345 249.788 125.285 249.263 124.245C249.29 124.062 249.312 123.864 249.339 123.696C253.753 125.08 257.336 123.761 260.787 120.778C255.775 120.24 251.129 119.741 246.487 119.253L246.532 119.295L248.654 118.8L243.84 114.521C245.321 113.61 246.167 113.046 247.05 112.558C248.159 111.953 249.335 111.488 250.402 110.798C250.756 110.565 250.843 109.845 250.954 109.327C251.167 108.279 251.335 107.22 251.487 106.168L251.971 106.244C251.445 110.436 250.923 114.65 250.371 119.074L257.988 119.787C258.628 116.415 259.393 113.084 259.865 109.716C260.216 107.197 261.411 105.661 263.845 105.029C264.217 104.87 264.572 104.674 264.904 104.442L262.082 100.456L252.1 105.947C253.216 100.46 254.225 95.2093 255.402 90.0004C255.627 89.0021 255.402 88.3696 254.785 87.8247C252.995 86.2814 252.386 84.1552 252.37 82.0137C252.38 78.8592 252.598 75.7087 253.022 72.5828C253.326 70.167 253.182 69.1877 251.399 67.3548L243.493 113.93C240.702 109.079 238.086 104.492 235.427 99.9305C234.797 98.8194 234.084 97.7571 233.295 96.7526C229.57 92.1305 228.85 86.7006 229.132 81.0535C229.406 75.574 229.871 70.106 230.275 64.6342C230.393 62.9766 230.656 61.3267 230.698 59.6806C230.801 57.9303 230.52 56.1785 229.873 54.5489C229.226 52.9194 228.23 51.4518 226.954 50.2497C229.305 50.7244 231.441 51.9427 233.047 53.7248C237.073 58.0459 237.511 63.1595 236.429 68.6428C235.801 71.8474 235.111 75.052 234.738 78.2909C234.401 80.6209 234.873 82.9962 236.075 85.0202C238.596 89.0669 241.003 93.2127 245.169 95.8838C245.317 95.9477 245.471 95.9949 245.63 96.0248C246.182 93.4375 246.829 90.8768 247.256 88.2819C248.398 81.3392 249.43 74.3775 250.523 67.4272C250.615 66.8366 250.794 66.2574 250.935 65.6744L250.897 65.7087ZM249.453 127.918C250.916 132.11 254.336 132.388 257.557 132.533C258.605 132.582 259.713 131.26 260.794 130.563L260.577 130.067L249.453 127.918ZM250.131 124.508C251.377 128.364 254.644 128.391 257.367 128.791C258.551 128.966 259.949 127.671 261.251 127.042L261.042 126.505L250.131 124.508ZM248.273 134.983C249.708 138.652 252.603 139.415 255.707 139.415C256.628 139.415 257.557 138.309 258.483 137.711L258.231 137.254L248.273 134.983Z" fill="black"/>
<path d="M202.981 203.609C202.916 206.189 202.939 206.303 205.483 206.658C207.893 207.065 210.336 207.243 212.779 207.187C214.158 207.119 215.491 206.17 216.633 205.705C215.872 209.104 201.05 212.48 195.44 210.331C198.772 210.179 203.038 210.11 207.276 209.729C208.868 209.584 210.399 208.723 211.957 208.205V207.74C210.544 207.641 209.135 207.519 207.726 207.446C204.702 207.298 201.861 206.761 199.157 205.16C193.574 201.845 188.303 198.233 184.541 192.799C183.779 191.702 183.261 190.273 182.237 189.572C180.184 188.169 179.758 186.001 178.962 183.985C178.474 182.755 177.438 182.614 176.509 182.865C176.033 182.991 175.725 183.928 175.439 184.542C174.651 186.245 173.992 188.013 173.154 189.686C170.534 194.895 167.061 199.433 162.403 203.022C162.208 203.12 161.998 203.184 161.782 203.213C161.91 202.978 162.059 202.756 162.228 202.55C164.026 200.759 165.865 199.006 167.609 197.162C167.774 196.942 167.89 196.689 167.947 196.42C168.005 196.15 168.004 195.872 167.944 195.604C167.663 194.596 167.25 193.629 166.714 192.73C163.748 187.8 159.65 183.909 155.103 180.48C151.178 177.477 146.603 175.438 141.747 174.528C152.764 181.261 159.459 190.604 160.648 203.567L161.847 203.152C157.232 207.344 152.326 211.017 145.902 211.981L148.412 211.021C145.864 208.022 143.461 204.882 142.771 200.98C142.231 197.958 142.162 194.834 142.109 191.751C142.044 188.28 142.653 184.759 141.458 181.379C140.41 178.407 139.553 175.259 136.297 173.728C136.102 173.564 135.952 173.352 135.862 173.113C135.772 172.874 135.745 172.616 135.783 172.364C138.422 165.939 137.977 159.366 136.831 152.747C136.831 152.437 136.857 152.127 136.907 151.821C137.931 155.223 138.33 158.783 138.083 162.327C137.916 165.642 137.387 168.938 137.036 172.093C150.441 173.865 163.077 178.03 172.602 189.198L174.971 184.134C171.943 182.164 168.95 180.198 165.93 178.274C165.526 178.014 164.928 177.732 164.536 177.847C163.508 178.152 163.447 177.382 163.138 176.841L163.104 176.879C163.454 176.246 164.029 175.644 164.125 174.974C164.665 171.255 164.163 167.612 163.005 164.053C162.597 162.867 162.255 161.66 161.98 160.437C164.193 165.52 165.332 170.786 164.429 176.711C168.698 175.107 171.81 172.139 175.016 169.643C175.397 170.169 175.637 170.691 176.041 170.996C176.861 171.616 177.529 172.415 177.994 173.332C178.459 174.249 178.709 175.26 178.726 176.288C178.794 177.652 179.822 177.534 180.576 177.744C184.004 178.689 186.875 180.621 189.587 182.854C186.228 180.75 182.884 178.624 178.962 177.778C178.234 178.845 177.693 179.973 176.844 180.781C175.995 181.589 174.837 182.08 173.771 182.736L174.913 183.677L175.854 181.954C189.153 184.351 197.447 192.41 202.131 204.817M170.945 174.928C169.822 176.014 169.742 176.959 170.542 177.892C171.528 179.036 172.724 179.036 173.969 178.327C175.214 177.618 175.26 176.49 174.731 175.317C174.369 174.494 173.82 173.88 172.754 174.326C174.22 174.814 174.464 175.942 173.992 177.069C173.771 177.599 172.743 178.213 172.217 178.117C170.679 177.801 170.945 176.376 170.945 174.928Z" fill="black"/>
<path d="M174.834 227.859L178.177 228.876L169.704 239.191C170.412 239.191 171.17 239.412 171.406 239.157C174.072 236.219 176.681 233.209 179.286 230.206C179.4 230.077 179.369 229.825 179.442 229.471L180.497 230.187L180.527 230.153C178.455 232.424 176.384 234.694 174.312 236.962C173.333 238.037 172.377 239.126 171.425 240.19C172.64 241.493 173.242 240.643 173.943 239.858C174.872 238.822 175.885 237.858 176.864 236.863L176.833 236.833C176.452 237.351 176.09 237.869 175.71 238.38C174.784 239.626 173.859 240.864 172.93 242.106C172.49 241.769 172.072 241.405 171.677 241.016C170.328 239.523 168.885 239.774 167.392 240.734C166.189 241.497 164.966 242.259 163.809 243.108C159.185 246.465 155.202 250.455 152.487 255.515C148.496 262.876 145.798 270.867 144.508 279.14C143.747 284.174 143.472 289.234 144.866 294.454C145.137 294.279 145.217 293.936 145.418 293.692C147.243 291.604 149.033 289.478 150.94 287.466C154.943 283.24 159.113 279.171 163.028 274.872C167.316 270.163 171.383 265.259 175.565 260.454C177.675 258.028 179.807 255.621 181.963 253.233C182.637 252.471 182.804 252.013 181.906 251.217C180.638 250.097 179.579 248.736 178.429 247.479C179.381 248.012 180.12 247.65 180.817 246.961C184.107 243.714 187.412 240.483 190.695 237.225C191.35 236.577 191.914 235.842 192.527 235.141C191.385 233.94 190.726 234.863 190.082 235.476C188.102 237.381 186.156 239.286 184.194 241.192C184.876 240.346 185.508 239.458 186.247 238.669C187.63 237.195 189.073 235.773 190.554 234.268C189.557 233.575 188.921 233.479 188.121 234.344C184.857 237.888 181.502 241.352 178.219 244.88C177.892 245.227 177.8 245.799 177.599 246.263C178.105 246.096 178.718 246.054 179.095 245.734C180.851 244.24 182.545 242.685 184.259 241.131C183.117 242.377 181.974 243.619 180.832 244.873C180.04 245.749 179.263 246.641 178.478 247.54L172.907 242.08C173.539 241.954 174.232 241.95 174.784 241.668C175.513 241.234 176.206 240.742 176.856 240.197L176.825 240.17C176.25 240.803 175.725 241.485 175.096 242.076C174.179 242.91 174.518 243.409 175.477 243.928L178.196 241.82C177.701 242.464 177.168 243.085 176.726 243.764C176.596 243.974 176.51 244.208 176.473 244.452C176.437 244.697 176.45 244.946 176.513 245.185C180.961 241.579 184.962 237.455 188.433 232.9L198.544 236.627L198.99 236.295C197.916 232.962 196.841 229.627 195.764 226.289L195.726 226.327C195.932 226.449 196.267 226.529 196.328 226.708C197.47 230.031 198.571 233.369 199.69 236.722C196.868 239.344 193.978 242 191.152 244.686C191.018 244.812 190.913 244.964 190.842 245.134C190.771 245.303 190.737 245.485 190.741 245.669C191.529 249.575 190.219 253.103 188.563 256.456C187.329 258.948 185.588 261.193 184.073 263.548C184.268 263.047 184.507 262.564 184.785 262.104C187.188 258.842 188.944 255.149 189.956 251.225C190.356 249.636 190.337 247.944 190.501 246.298L189.861 246.111C179.228 256.064 170.61 267.831 160.617 278.443C161.413 278.282 162.187 278.026 162.921 277.681C164.826 276.797 166.707 275.863 168.634 274.987C173.181 272.906 177.511 270.528 180.87 266.684C181.868 265.541 183.048 264.55 184.145 263.487C180.5 268.821 175.515 272.498 169.715 275.147C166.345 276.69 162.822 277.932 159.574 279.689C157.933 280.577 156.687 282.249 155.385 283.671C152.369 286.921 149.413 290.225 146.454 293.525C145.872 294.172 145.38 294.9 144.611 295.43C141.945 285.633 144.268 276.442 146.789 267.263C140.152 264.752 135.631 259.714 131.503 254.307C127.314 248.809 125.547 242.354 124.861 234.977L122.34 238.14L121.959 237.785C122.442 237.217 122.888 236.617 123.292 235.99C123.959 234.809 124.477 233.544 125.166 232.378C125.88 231.153 126.754 230.028 127.763 229.033C127.653 236.116 131.099 241.485 135.456 246.29C139.813 251.095 145.281 254.338 152.186 254.7C154.897 251.194 157.491 247.509 158.568 242.887C159.364 239.458 160.598 236.139 161.665 232.683C159.288 230.713 157.019 228.872 154.783 226.967C154.316 226.518 153.88 226.037 153.481 225.527C153.926 225.527 154.581 225.721 154.787 225.5C156.032 224.144 157.171 222.696 158.466 221.137L156.908 220.489C155.937 221.61 154.973 222.6 154.17 223.705C153.789 224.216 153.74 224.952 153.542 225.588C151.447 223.885 149.303 222.242 147.281 220.459C145.51 218.904 143.884 217.19 142.189 215.543C142.61 215.75 143.005 216.006 143.366 216.306C144.325 217.312 144.996 217.129 145.708 215.677C144.87 215.49 144.158 215.38 143.476 215.17C142.795 214.96 142.219 214.671 141.344 214.313L142.246 215.608C141.652 215.227 140.921 214.926 140.491 214.4C139.424 213.101 137.939 212.876 136.484 212.8C129.744 212.381 123.433 210.514 117.408 207.511C116.648 207.145 115.815 206.951 114.971 206.943L111.193 203.43C116.373 206.097 121.476 205.789 126.617 203.655L126.575 203.689C128.453 202.958 130.498 202.5 132.166 201.445C135.782 199.185 138.36 195.587 139.337 191.435C139.406 191.229 139.49 191.03 139.588 190.836L140.011 190.985C139.375 192.631 138.941 194.395 138.065 195.901C134.557 201.932 128.83 204.607 122.26 205.697C120.177 206.044 117.987 205.754 115.809 205.945C119.964 208.319 124.252 210.338 128.94 211.173C133.628 212.007 138.305 212.491 142.539 213.078L141.115 213.223L141.043 213.524L150.899 217.559L148.45 220.135L148.069 219.823L149.714 217.773C148.244 216.123 147.681 218.634 146.416 218.386C146.885 217.83 147.281 217.357 147.749 216.793L146.192 216.077L145.049 217.765L149.436 221.633L152.064 218.817C151.546 218.249 151.222 217.898 150.902 217.544L167.095 224.605L165.553 224.277L159.84 230.465C160.88 231.227 161.029 231.208 162.053 230.229L166.12 226.369L161.17 231.993C162.011 231.993 162.765 232.226 163.074 231.955C165.111 230.05 167.05 228.049 169.148 225.954L167.746 224.955L170.812 226.137C170.256 226.281 169.529 226.247 169.175 226.598C167.137 228.602 165.191 230.698 163.146 232.835L164.525 234.36C166.81 231.78 168.954 229.356 171.063 226.895C171.151 226.796 170.865 226.373 170.751 226.098L173.177 227.215L173.23 227.169C172.594 227.344 171.757 227.318 171.357 227.726C169.159 229.947 167.069 232.271 164.944 234.565L164.963 235.072L167.16 235.156L167.259 235.251L167.289 236.993L167.948 237.115C170.26 234.405 172.587 231.707 174.86 228.964C175.051 228.735 174.891 228.202 174.895 227.821L174.834 227.859ZM183.871 249.156C183.82 249.36 183.757 249.561 183.684 249.758C183.475 250.245 183.242 250.725 183.022 251.209C183.536 250.962 184.164 250.828 184.545 250.447C187.845 247.323 191.122 244.174 194.374 241.001C195.657 239.759 196.903 238.471 198.182 237.191L197.84 236.638L195.935 237.473C196.438 236.497 196.438 236.497 195.025 235.895L191.598 239.515C192.54 238.227 193.482 236.942 194.424 235.659C193.772 235.487 193.117 235.487 192.786 235.815C188.769 239.77 184.785 243.759 180.832 247.78C180.573 248.039 180.573 248.542 180.451 248.946C180.832 248.855 181.312 248.881 181.567 248.653C183.09 247.292 184.53 245.852 186.038 244.461C187.892 242.765 189.781 241.108 191.651 239.435C190.33 240.83 189.046 242.266 187.675 243.608C185.771 245.463 183.814 247.235 181.917 249.079C181.723 249.266 181.788 249.72 181.734 250.051C182.058 250.067 182.383 250.028 182.694 249.937C183.106 249.708 183.5 249.447 183.871 249.156ZM169.487 238.559L177.248 229.246L176.917 228.693C176.407 228.853 175.721 228.857 175.416 229.196C173.013 231.902 170.683 234.672 168.287 237.473L169.487 238.559ZM159.414 230.176C161.272 228.11 163.013 226.178 164.719 224.277C163.82 223.248 163.276 223.385 162.636 224.102C161.234 225.66 159.76 227.15 158.321 228.674C158.259 228.778 158.214 228.892 158.188 229.01L159.414 230.176ZM157.704 228.743L162.716 223.176C161.718 222.208 161.192 222.299 160.507 223.176C159.319 224.75 157.967 226.198 156.626 227.748L157.704 228.743ZM155.446 227.158L156.173 227.36L160.636 222.292L160.073 221.663C157.491 221.633 157.152 224.601 155.476 225.794C155.255 225.954 155.446 226.693 155.446 227.162V227.158ZM152.78 224.388C153.903 222.97 154.962 221.636 156.025 220.303L155.579 219.83C153.26 219.727 153.111 222.517 151.203 223.26L152.78 224.388ZM154.189 219.194C151.881 218.836 151.504 220.749 150.445 221.541C150.278 221.667 150.575 222.414 150.727 223.267L154.189 219.194Z" fill="black"/>
<path d="M115.379 196.861C116.498 199.597 118.692 201.209 121.308 202.234C122.995 202.893 124.808 203.221 126.571 203.693L126.617 203.655C123.254 204.177 120.406 202.977 117.938 200.843C115.611 198.827 113.433 196.651 111.14 194.491C107.857 198.93 103.005 199.166 97.9862 198.111C92.9668 197.055 88.9796 194.552 87.3229 189.049C85.4493 192.555 82.3722 194.384 79.3789 196.19C78.4763 196.735 77.2881 196.853 76.2142 197.059C71.6023 197.939 67.0476 197.962 62.8242 195.562C60.326 194.144 59.0159 191.698 58.06 189.126C55.9769 183.479 57.7973 179.119 61.8264 175.378C64.4465 172.943 70.0105 173.282 72.5392 175.869C73.118 176.464 73.7426 177.012 74.2757 177.652C75.7381 179.379 75.7343 181.269 74.5804 183.368C77.41 181.802 77.9888 179.6 77.1586 174.322C79.3674 178.685 77.7718 184.008 71.6023 185.822C72.1698 185.06 72.5811 184.526 72.9505 183.978C73.9063 182.556 73.556 181.124 71.9984 180.407C69.165 179.104 65.5243 180.678 65.4976 184.656C65.5066 187.319 66.3973 189.903 68.0304 192.005C69.6634 194.107 71.9468 195.608 74.5233 196.274C76.1304 196.682 78.3011 195.809 79.9234 194.963C81.8276 193.969 83.4652 192.403 85.1484 191.004C86.2109 190.124 86.5575 189.019 86.5042 187.514C86.4219 185.688 86.7417 183.867 87.441 182.179C89.3756 177.816 92.4375 174.429 97.1978 173.034C98.5726 172.634 100.069 172.653 101.509 172.497L101.684 173.065C101.354 173.355 100.994 173.611 100.61 173.827C96.7028 175.549 96.1886 177.1 96.5352 180.994C97.1179 187.571 101.513 192.159 108.051 193.664C108.367 193.779 108.707 193.811 109.038 193.755C111.593 192.887 113.113 195.07 115.131 195.79C115.291 195.847 115.367 196.141 115.481 196.32C115.436 196.529 115.405 196.697 115.379 196.861Z" fill="black"/>
<path d="M104.399 232.633C102.846 231.715 101.715 230.793 100.42 230.347C95.8003 228.697 91.0133 231.658 90.9866 237.076C90.96 242.861 94.0676 247.201 99.4982 248.066C102.008 248.447 104.784 247.78 107.336 247.159C109.24 246.698 110.992 245.608 112.747 244.674C114.503 243.741 116.175 242.666 118.105 241.519C117.858 241.923 117.77 242.243 117.565 242.381C112.443 245.741 107.259 249.018 100.808 248.858C93.82 248.698 88.4008 245.619 84.5811 239.759C83.8575 238.646 83.1911 237.473 82.5018 236.356C80.0111 232.241 81.1003 228.533 83.7928 225.009C83.9261 224.833 84.0784 224.673 84.2117 224.502C84.2408 224.417 84.26 224.329 84.2688 224.239C81.3022 224.852 79.1695 226.834 76.8579 228.457C71.6329 232.134 67.8513 237.286 63.3575 241.718C56.8187 248.165 49.1488 251.187 39.7766 249.338C33.0206 248.005 27.2968 245.273 23.6523 239.233C20.8989 234.676 20.5447 229.722 24.9128 225.634C26.6265 224.022 28.843 223.168 31.2079 223.561C29.9321 223.987 28.5154 224.323 27.1978 224.921C23.1838 226.674 21.3254 231.506 22.803 235.64C25.0499 241.992 29.4866 245.734 35.8769 247.715C41.2884 249.396 46.6086 249.784 52.0393 248.222C56.6968 246.869 60.3337 243.886 63.6812 240.506C67.1886 236.958 70.5361 233.266 74.1921 229.863C77.6195 226.681 81.4278 224.048 86.1044 222.886C90.781 221.724 95.4081 222.044 99.3763 224.715C101.418 226.087 102.697 228.617 104.22 230.698C104.51 231.094 104.342 231.826 104.399 232.633Z" fill="black"/>
<path d="M250.946 65.6549C248.745 68.7376 245.596 69.5531 242.05 69.252C241.517 69.2063 241.03 68.5852 240.717 68.3642C242.458 66.478 244.289 64.9348 245.569 62.9876C247.016 60.8042 248.083 58.3389 249.115 55.9116C250.977 51.541 251.579 46.8579 252.234 42.1939C252.428 40.8222 252.778 39.6409 254.084 38.8826C254.968 38.3682 254.956 37.5375 255.025 36.5163C255.246 33.2355 255.463 29.8823 256.327 26.7311C257.611 22.0518 259.45 17.5212 261.061 12.9296C261.257 12.5993 261.48 12.2858 261.728 11.9922C261.91 16.8353 262.234 21.183 262.181 25.5231C262.147 28.6592 261.629 31.7914 261.29 34.9197C261.235 35.4705 261.076 36.0059 260.821 36.4973C260.06 37.9072 259.801 39.1913 260.36 40.8717C260.741 42.0148 260.086 43.539 259.835 44.8727C258.932 49.6548 257.794 54.3988 257.169 59.2191C256.628 63.3001 257.417 67.1753 261.004 69.9112C261.339 70.1703 261.644 70.4638 262.242 70.982C256.495 72.148 254.282 68.1394 251.678 64.4851C251.358 64.9996 251.137 65.3501 250.916 65.7007L250.946 65.6549ZM261.088 15.3568C258.3 22.4329 254.869 29.3146 255.604 37.6747L258.27 35.1941L259.675 37.8614C262.512 30.3739 261.655 22.8634 261.088 15.353V15.3568Z" fill="black"/>
<path d="M130.779 223.496C129.861 224.052 128.944 224.597 128.033 225.157C125.444 226.746 122.607 226.621 119.83 226.099C115.356 225.26 111.57 222.856 108.192 219.952C105.214 217.395 104.178 213.574 102.548 209.938C101.524 211.436 100.618 212.987 99.5018 214.339C96.6036 217.91 93.2562 220.547 88.1949 219.815C85.3806 219.411 83.2822 217.834 81.4581 215.902C79.0017 213.303 77.2918 210.304 77.6231 206.479C75.0449 209.736 72.5162 213.021 67.6416 212.488C67.9846 212.336 68.3401 212.215 68.7041 212.126C72.6495 211.493 75.1363 208.974 77.1547 205.762C77.5584 205.122 78.3505 204.722 78.9636 204.215C79.3445 204.714 79.7482 205.191 80.0871 205.713C82.8176 209.923 86.1004 213.524 90.8836 215.448C91.8966 215.856 92.9782 216.092 93.9797 216.523C95.404 217.136 96.497 216.637 97.3729 215.574C98.7058 213.962 99.9626 212.282 101.242 210.62C101.707 210.018 102.137 209.39 102.682 208.635C104.167 209.999 105.507 211.253 106.871 212.48C110.298 215.559 114.289 217.053 118.905 216.752C119.667 216.702 120.428 216.416 121.373 216.195L119.088 213.166L119.206 213.071C120.501 214.244 121.784 215.437 123.098 216.588C125.383 218.581 127.668 220.543 129.953 222.532C130.251 222.837 130.523 223.166 130.768 223.515L130.779 223.496Z" fill="black"/>
<path d="M76.7627 143.568C75.0376 141.994 72.9849 141.662 71.4578 142.588C69.9307 143.514 68.8567 146.064 69.2337 147.797C69.6358 149.889 70.7851 151.762 72.467 153.067C74.1236 154.344 75.9401 153.597 77.5206 153.067C80.44 152.094 82.9742 150.216 84.7563 147.706C85.061 147.287 85.518 146.986 86.2796 146.3C86.1387 150.64 88.0734 153.361 91.4132 155.178C94.7531 156.996 98.1158 156.912 101.543 155.178C100.054 157.308 94.0333 157.464 91.5465 156.028C88.2523 154.123 85.9712 151.566 85.7617 147.797C83.9337 149.321 82.2848 151.078 80.3044 152.297C76.3438 154.732 72.208 154.923 67.7676 153.113C61.4534 150.533 61.2668 144.837 63.5518 140.359C64.7003 137.983 66.6681 136.102 69.0928 135.063C71.2826 134.133 73.5219 133.897 75.4717 135.185C77.6539 136.629 78.8421 138.759 78.3622 141.613C77.9395 144.12 77.3302 144.936 75.3156 144.749L76.7627 143.568Z" fill="black"/>
<path d="M139.816 38.3721C140.163 36.7755 140.51 35.1789 140.978 33.0374C137.806 37.7738 132.981 38.1587 128.563 39.439C122.496 41.1918 118.406 44.8461 117.549 51.4115C117.424 52.3679 117.039 53.854 117.488 54.2198C118.669 55.1838 117.778 55.8354 117.667 56.6166L117.13 56.6661C117.024 55.0505 116.639 53.4005 116.868 51.8344C117.405 48.1726 118.479 44.5946 121.537 42.2016C124.366 39.9839 127.778 38.8903 131.267 38.0977C132.006 37.9263 132.741 37.7167 133.59 37.5147C129.214 34.0586 121.335 33.769 117.919 38.2311C117.972 37.85 117.892 37.3585 118.102 37.1146C119.678 35.278 121.35 33.5252 122.919 31.6847C123.87 30.521 125.059 29.5751 126.406 28.9112C127.754 28.2472 129.228 27.8806 130.73 27.8361C134.317 27.6532 137.227 25.8318 140.026 23.8085C138.941 25.2164 137.56 26.3679 135.98 27.1813C134.401 27.9946 132.661 28.4498 130.886 28.5144C127.321 28.6783 124.831 30.3815 122.668 32.9612C125.977 30.8998 129.584 30.2939 133.434 30.2177C135.07 30.2155 136.687 29.8591 138.174 29.1731C139.66 28.4872 140.98 27.4877 142.044 26.2434C143.031 25.1002 143.895 23.8618 144.817 22.6653L144.782 22.6387C143.842 25.687 142.916 28.7354 141.953 31.7838C141.256 33.9786 140.498 36.1544 139.771 38.3416L139.816 38.3721Z" fill="black"/>
<path d="M123.586 181.062C123.445 182.4 123.338 183.402 123.205 184.804L118.551 180.567L118.326 183.581L114.065 179.733C113.303 180.647 112.576 181.565 111.552 182.827C111.243 181.379 110.957 180.285 110.79 179.176C110.306 176.059 109.918 172.927 109.388 169.818C109.194 168.675 109.187 167.714 109.807 166.678C110.428 165.642 110.737 164.533 111.525 163.515C112.355 167.779 113.376 172.02 113.955 176.318C114.301 178.91 115.729 180.464 117.839 182.213C117.782 181.365 117.67 180.521 117.504 179.687C116.788 177.157 115.923 174.669 115.276 172.123C114.579 169.391 114.084 166.606 113.448 163.854C113.306 163.328 113.06 162.836 112.725 162.406C108.741 157.011 104.727 151.642 100.747 146.242C99.4031 144.417 98.0816 142.581 96.8934 140.645C96.3276 139.661 95.9686 138.572 95.8385 137.444C95.2749 132.936 94.7913 128.421 94.3495 123.902C93.9877 120.148 93.5878 116.391 93.4507 112.627C93.2032 106.149 93.1765 99.6291 96.6688 93.7724C98.6948 90.3735 101.395 87.7595 105.515 86.9326C93.9496 92.5569 93.0433 102.51 94.578 113.514L94.2314 112.996C94.1972 113.095 94.1248 113.191 94.1324 113.282C94.677 120.068 95.2026 126.859 95.7928 133.641C95.9528 135.459 96.0594 137.353 96.6535 139.045C97.2095 140.618 98.3025 142.028 99.3193 143.407C103.326 148.93 107.366 154.425 111.441 159.892C113.52 162.669 115.725 165.352 117.957 168.183C121.042 160.456 121.982 152.659 121.289 144.669C120.585 136.545 116.407 129.77 112.29 122.995L112.705 122.751C113.003 123.201 113.296 123.65 113.593 124.096C113.927 124.536 114.234 124.997 114.511 125.475C116.476 129.366 118.669 133.173 120.276 137.208C121.24 139.62 121.419 142.382 121.708 145.016C122.55 152.816 121.434 160.387 118.742 167.741C118.524 168.242 118.429 168.789 118.467 169.334C118.791 171.407 119.229 173.457 119.61 175.526C119.953 177.534 121.564 178.525 122.912 179.717C124.881 181.459 126.895 183.147 128.891 184.862L128.552 185.269L123.586 181.062ZM114.259 164.563C114.304 165.386 114.39 166.207 114.518 167.021C115.124 169.768 116.015 172.478 116.35 175.255C116.834 179.256 120.132 180.754 122.561 183.105C122.82 181.703 123.152 180.384 121.659 179.454C119.602 178.17 118.78 176.17 118.73 173.826C118.658 170.241 117.02 167.402 114.259 164.563ZM111.875 180.742L112.424 180.96C112.869 179.999 113.768 178.993 113.677 178.087C113.402 175.419 112.744 172.752 112.229 170.111C111.948 168.648 111.658 167.181 111.373 165.718C110.588 166.644 109.796 167.65 109.91 168.541C110.428 172.619 111.197 176.669 111.875 180.735V180.742Z" fill="black"/>
<path d="M21.1615 181.764C20.4646 185.399 22.5325 189.061 26.0704 190.909C31.0859 193.538 36.7602 190.528 39.5669 187.152C42.6136 183.513 43.4362 179.1 43.9503 174.634C44.3844 170.889 44.4073 167.097 44.7119 163.332C45.1385 157.754 45.2337 152.057 47.4158 146.826C50.0207 140.58 53.5091 134.823 59.2215 130.863C62.9422 128.299 66.9409 126.291 71.6556 127.358C75.9056 128.333 80.129 132.09 80.2547 137.185C79.7673 135.916 79.4512 134.838 78.9561 133.847C75.9437 127.827 69.3516 126.367 63.5668 129.122C57.7096 131.911 53.4025 136.335 50.4853 142.127C49.815 143.457 48.8363 144.646 48.2841 146.018C46.0334 151.608 45.6983 157.563 45.2718 163.477C44.8452 169.391 44.8909 175.233 43.261 180.948C41.7377 186.283 38.691 190.257 33.2909 192.121C30.0538 193.233 27.0719 192.673 24.3452 190.646C23.9644 190.352 23.5835 190.051 23.1761 189.754L22.8371 190.208C24.0367 191.012 25.1602 191.976 26.4512 192.593C28.9075 193.763 31.4591 194.296 34.163 193.165C35.3055 192.681 36.6574 192.643 37.8304 192.181C42.7469 190.246 44.6853 185.97 46.0296 181.341C47.3435 176.825 49.0762 172.531 52.4466 169.147C55.7522 165.828 59.8004 164.194 64.515 164.731C66.3278 164.937 68.0948 165.573 69.8809 166.011L69.7819 166.411C68.5214 166.087 67.2761 165.63 65.9965 165.463C61.3999 164.86 57.0165 165.527 53.6614 168.957C51.167 171.506 49.0229 174.322 47.8728 177.915C46.4714 182.286 45.7821 187.114 41.9966 190.364C40.8818 191.349 39.62 192.154 38.2569 192.749C33.3709 194.78 28.5153 195.352 23.9453 191.869C22.6886 190.913 21.7213 189.834 21.5956 188.059C21.4928 186.664 20.872 185.315 20.6931 183.917C20.5902 183.235 20.9863 182.472 21.1615 181.764Z" fill="black"/>
<path d="M132.101 106.347C131.64 107.326 131.175 108.302 130.661 109.395C136.553 109.803 140.628 113.446 144.752 117.016C150.711 122.258 157.745 126.131 165.359 128.364C166.68 128.745 167.769 128.436 168.523 127.049C169.974 124.382 170.831 121.589 170.618 118.506C171.155 120.793 170.999 123.048 169.875 125.034C168.813 126.901 169.22 128.33 170.603 129.606C171.505 130.444 171.543 131.237 170.961 132.19C170.123 133.554 169.411 135.025 168.394 136.244C166.627 138.37 166.49 138.355 167.834 140.63C168.55 141.826 168.489 142.68 167.605 143.747C165.812 145.907 164.037 148.037 161.036 148.491C160.466 148.561 159.887 148.51 159.338 148.342C163.234 147.854 165.838 145.694 167.792 142.345C164.745 140.782 161.809 139.395 158.991 137.81C154.337 135.229 150.296 131.669 147.147 127.377L147.113 127.423C147.558 127.696 147.976 128.011 148.362 128.364C151.79 132.136 155.434 135.756 160.13 137.89C163.885 139.605 163.866 139.974 166.204 137.738C167.59 136.408 168.717 134.792 169.86 133.23C170.286 132.647 170.431 131.858 170.759 131.024C169.7 130.681 168.855 130.441 168.036 130.136C165.26 129.115 162.445 128.177 159.726 127.019C152.201 123.814 145.906 118.788 139.683 113.591C136.739 111.129 133.19 109.575 129.092 110.36L129.134 110.398C128.589 108.511 128.113 106.587 127.485 104.743C126.929 103.108 126.206 101.531 125.558 99.9265L125.973 99.774C127.222 102.868 128.474 105.961 129.728 109.053L130.174 109.011C130.197 108.485 130.368 107.913 130.223 107.441C129.576 105.387 128.803 103.371 128.148 101.317C127.839 100.353 127.691 99.3358 127.47 98.3413L127.409 98.3756L130.958 107.471L132.143 106.404L132.101 106.347Z" fill="black"/>
<path d="M202.196 147.767C206.873 150.979 211.98 153.235 217.593 154.001C220.297 154.382 223.1 154.039 225.853 154.001C226.493 153.944 227.129 153.848 227.758 153.715L221.801 163.1L223.367 162.105L223.58 162.368L220.183 165.44C217.692 163.249 215.232 161.115 212.81 158.962C210.125 156.565 207.478 154.13 204.782 151.722C204.557 151.528 204.146 151.539 203.914 151.478L201.515 148.148L202.196 147.767ZM213.918 159.636L217.677 154.763L217.148 154.275C215.445 155.258 214.482 157.026 213.282 158.444L213.926 159.636C214.566 159.712 215.537 160.093 215.788 159.815C217.151 158.31 218.34 156.645 219.596 155.037L219.075 154.538C218.603 154.871 218.153 155.234 217.727 155.624C216.436 156.942 215.179 158.299 213.918 159.636ZM220.202 162.46L224.673 154.965L224.33 154.717L221.824 157.525L223.035 154.946L222.609 154.671L216.896 161.854L217.361 162.441C217.803 162.178 218.359 162.006 218.667 161.633C219.787 160.28 220.819 158.859 221.889 157.464L218.416 163.256L218.835 163.561L220.267 162.391C220.091 162.967 219.92 163.534 219.745 164.117L220.16 164.338L226.489 154.896L225.903 154.477C225.473 155.048 225.027 155.62 224.616 156.195C223.119 158.28 221.672 160.372 220.202 162.46ZM215.662 161.019C216.001 161.145 216.481 161.4 216.546 161.336C218.206 159.324 219.821 157.274 221.554 155.098C221.036 154.919 220.705 154.744 220.659 154.801C218.998 156.828 217.369 158.882 215.662 161.019ZM211.694 157.792C212.456 157.712 213.031 157.826 213.244 157.594C214.173 156.599 214.988 155.506 215.883 154.401C214.581 154.016 214.581 154.016 211.694 157.792ZM211.443 157.369C212.323 155.944 213 154.835 213.682 153.73L213.099 153.299C212.296 154.241 211.466 155.163 210.723 156.15C210.628 156.26 211.047 156.74 211.428 157.369H211.443ZM210.731 152.991C209.668 152.099 208.983 151.756 208.476 152.876C208.342 153.328 208.269 153.796 208.259 154.267L210.731 152.991ZM211.492 152.911L209.207 154.999C210.476 155.891 211.226 155.304 211.489 152.911H211.492Z" fill="black"/>
<path d="M202.196 147.767L201.522 148.148C199.618 146.223 197.714 144.311 195.848 142.367C194.934 141.418 194.081 140.412 192.999 139.208C192.847 140.226 192.736 140.976 192.58 142.013C192.31 138.774 192.066 135.828 191.818 132.952C188.658 132.289 185.794 131.74 182.964 131.046C182.275 130.879 181.7 130.242 181.06 129.819V129.846C184.168 130.578 187.252 131.389 190.379 132.018C194.244 132.78 197.996 133.767 201.233 136.175C201.506 136.327 201.796 136.446 202.097 136.53L200.696 139.578L195.075 138.9L194.808 139.307C196.107 140.832 197.394 142.356 198.704 143.849C199.888 145.172 201.031 146.467 202.196 147.767ZM194.709 133.58L194.282 133.702C194.138 134.948 193.947 136.194 193.902 137.444C193.902 137.764 194.282 138.103 194.511 138.435C194.709 138.149 195.04 137.882 195.082 137.577C195.217 136.646 195.275 135.706 195.254 134.765C195.223 134.365 194.892 133.973 194.709 133.58ZM195.532 138.355L196.008 138.587C196.274 138.183 196.67 137.825 196.769 137.375C197.123 135.988 196.872 134.758 196.042 134.026C195.867 135.569 195.699 136.96 195.532 138.355ZM197.192 138.355C198.414 137.345 198.483 135.76 197.599 134.773L197.192 138.355ZM198.502 138.618L199.264 138.694C199.363 137.622 199.46 136.552 199.557 135.485L198.879 135.421C198.746 136.503 198.632 137.566 198.502 138.652V138.618Z" fill="black"/>
<path d="M210.292 299.713L226.287 215.997C222.167 244.13 215.921 271.862 210.784 299.804L210.292 299.713Z" fill="black"/>
<path d="M121.773 160.753C121.674 160.444 121.579 160.132 121.48 159.823L121.803 159.511C123.456 161.035 125.037 162.651 126.781 164.057C128.803 165.688 128.879 167.928 128.742 170.1C128.586 172.562 129.317 174.673 130.456 176.723C130.621 177.16 130.725 177.617 130.764 178.083C130.269 178.16 129.766 178.176 129.268 178.129C126.64 177.534 124.945 175.766 123.669 173.434C123.266 175.21 123.563 176.128 124.762 177.153C125.688 177.946 126.545 178.822 127.508 179.565C129.351 180.987 129.534 182.926 129.45 185.395C128.932 183.761 128.784 182.347 128.072 181.288C127.137 179.981 125.984 178.845 124.663 177.931C124.146 177.583 123.716 177.119 123.409 176.576C123.101 176.033 122.924 175.425 122.892 174.802C122.455 170.786 121.906 166.8 121.476 162.769C121.403 162.102 121.693 161.393 121.815 160.703C121.91 162.026 121.914 163.371 122.116 164.666C122.496 167.113 122.82 169.597 123.498 171.971C124.385 175.099 127.23 177.348 129.614 177.473C129.096 174.806 128.091 172.04 128.171 169.315C128.255 166.431 126.807 164.8 125.021 163.165C123.984 162.301 122.9 161.496 121.773 160.753Z" fill="black"/>
<path d="M236.189 159.404C235.458 163.601 234.726 167.792 233.992 171.979C233.063 177.262 232.127 182.544 231.185 187.823C230.215 193.223 229.235 198.619 228.245 204.009C227.579 207.584 226.867 211.146 226.025 214.728C226.139 213.307 226.116 211.859 226.406 210.468C227.312 205.857 228.417 201.289 229.27 196.67C230.576 189.598 231.73 182.499 232.964 175.416C233.847 170.35 234.747 165.289 235.664 160.231C235.717 159.934 236.045 159.678 236.212 159.404H236.189Z" fill="black"/>
<path d="M204.165 140.119C204.416 140.188 204.662 140.274 204.9 140.378C205.158 140.55 205.402 140.741 205.631 140.95C207.155 133.851 205.692 127.251 203.906 120.613C204.222 121.585 204.603 122.541 204.839 123.532C204.944 124.147 205.211 124.723 205.613 125.201C206.015 125.679 206.536 126.04 207.124 126.249C210.685 127.754 217.235 132.311 219.063 135.619C215.308 131.698 211.093 128.44 205.681 126.184C206.424 131.656 207.585 136.918 205.738 142.569L203.914 140.999L204.165 140.119Z" fill="black"/>
<path d="M50.9844 241.5C48.9851 243.703 46.3917 244.888 43.5621 245.421C40.3098 246.031 37.0194 246.393 33.7253 245.372C30.8843 244.488 28.3937 243.108 26.7904 240.567C25.1871 238.025 23.7437 235.392 24.3188 232.184C24.6768 230.24 26.0287 228.933 27.2436 227.55C26.4553 229.006 25.4346 230.385 24.9281 231.932C23.8618 235.19 25.5298 237.884 27.3197 240.365C30.9452 245.376 36.1626 245.802 41.7379 245.105C44.7634 244.776 47.651 243.663 50.1162 241.878C50.3945 241.724 50.6914 241.608 50.9997 241.531L50.9844 241.5Z" fill="black"/>
<path d="M243.619 129.092C243.044 131.332 242.541 133.588 241.879 135.802C241.101 138.506 240.1 141.141 238.886 143.678C239.876 140.432 240.862 137.181 241.932 133.619C241.304 133.738 240.682 133.891 240.07 134.076C235.774 135.692 231.49 137.345 227.19 138.942C226.442 139.161 225.678 139.323 224.905 139.426L224.94 139.468C227.495 138.439 230.046 137.395 232.606 136.381C235.165 135.368 237.758 134.32 240.371 133.394C241.867 132.86 242.743 131.961 242.987 130.38C243.052 129.938 243.398 129.538 243.615 129.118L243.619 129.092Z" fill="black"/>
<path d="M236.193 159.408C236.273 157.994 236.25 156.565 236.456 155.17C236.737 153.265 237.194 151.406 237.301 149.34L229.593 156.893L229.467 156.763C230.895 155.239 232.297 153.673 233.767 152.191C236.33 149.592 238.931 147.027 241.536 144.467C241.875 144.201 242.241 143.972 242.629 143.785L242.598 143.75C241.265 145.206 239.932 146.654 238.603 148.117C238.318 148.43 237.937 148.769 237.872 149.142C237.274 152.572 236.73 156.001 236.185 159.431L236.193 159.408Z" fill="black"/>
<path d="M184.842 231.837C183.516 233.27 182.206 234.722 180.854 236.128C179.503 237.534 178.189 238.825 176.829 240.171L176.86 240.201L182.107 233.834C182.675 233.148 183.25 232.47 183.821 231.799C182.477 230.698 181.73 231.22 180.95 232.161C179.628 233.758 178.212 235.282 176.833 236.833L176.863 236.863C178.059 235.247 179.244 233.624 180.455 232.02C180.931 231.395 181.376 230.812 180.527 230.153L180.496 230.187L184.842 231.837Z" fill="black"/>
<path d="M130.749 223.53C132.592 224.365 134.474 225.127 136.271 226.049C141.603 228.777 147.38 229.478 153.184 230.374C151.104 230.18 149.017 230.02 146.938 229.776C141.172 229.094 135.989 226.823 131.065 223.866C130.943 223.789 130.875 223.622 130.779 223.485L130.749 223.53Z" fill="black"/>
<path d="M163.142 176.814C154.025 173.385 151.992 172.981 139.691 171.948C143.453 171.514 147.263 171.786 150.925 172.748C154.68 173.682 158.374 174.852 162.076 175.972C162.476 176.09 162.769 176.547 163.108 176.852L163.142 176.814Z" fill="black"/>
<path d="M118.886 52.692C120.002 48.0547 127.878 43.1658 131.492 45.1511C125.558 45.033 122.055 48.4891 118.886 52.692Z" fill="black"/>
<path d="M99.186 124.965C99.5174 125.037 99.9934 124.999 100.153 125.205C102.518 128.219 104.838 131.267 107.008 134.468C105.523 132.78 104 131.123 102.572 129.389C101.387 127.96 100.321 126.436 99.2013 124.95L99.186 124.965Z" fill="black"/>
<path d="M204.165 140.119L203.914 140.992L201.72 139.932C201.861 138.728 201.987 137.646 202.12 136.526C202.709 137.15 203.253 137.816 203.746 138.519C204.009 138.972 204.028 139.582 204.165 140.119Z" fill="black"/>
<path d="M182.861 101.984C186.643 102.689 190.025 104.457 193.121 106.857L182.861 101.984Z" fill="black"/>
<path d="M115.379 196.861C115.406 196.697 115.436 196.529 115.463 196.362C118.822 197.421 122.131 198.823 125.791 197.886C122.123 199.509 118.772 197.989 115.379 196.861Z" fill="black"/>
<path d="M173.139 227.196L174.834 227.859L174.857 227.813C174.152 228.324 173.356 228.743 172.755 229.337C170.869 231.243 169.06 233.251 167.221 235.213L167.122 235.118C168.969 232.927 170.835 230.755 172.644 228.533C172.949 228.152 173.025 227.604 173.192 227.131L173.139 227.196Z" fill="black"/>
<path d="M243.65 129.126C243.844 128.173 243.966 127.202 244.247 126.276C244.967 123.944 245.771 121.631 246.51 119.306L246.46 119.261C246.258 120.511 246.205 121.81 245.832 123.014C245.2 125.076 244.369 127.072 243.619 129.111L243.65 129.126Z" fill="black"/>
<path d="M179.998 239.87L186.209 232.698C186.14 233.079 186.209 233.544 185.984 233.78C184.225 235.766 182.42 237.705 180.607 239.645C180.466 239.786 180.203 239.797 179.998 239.87Z" fill="black"/>
<path d="M224.939 139.414L222.989 140.668C223.545 141.933 224.105 143.209 224.661 144.478L224.391 144.596L221.839 139.643L224.974 139.429L224.939 139.414Z" fill="black"/>
<path d="M99.2086 124.934C97.9899 122.351 96.77 119.766 95.5488 117.18L96.0668 116.948C97.1102 119.613 98.1512 122.28 99.1896 124.95L99.2086 124.934Z" fill="black"/>
<path d="M225.431 145.755C226.192 148.102 226.963 150.451 227.742 152.8L227.361 152.93C226.6 150.583 225.828 148.234 225.046 145.884L225.431 145.755Z" fill="black"/>
<path d="M199.774 113.747C198.281 112.169 196.79 110.589 195.299 109.007L195.627 108.706L200.075 113.503L199.774 113.747Z" fill="black"/>
<path d="M181.079 129.82C180.367 129.724 179.582 129.789 178.962 129.5C177.713 128.925 176.557 128.166 175.534 127.248C177.37 128.121 179.21 128.99 181.056 129.854L181.079 129.82Z" fill="black"/>
<path d="M195.768 226.293L193.205 219.922L193.666 219.766C194.359 221.948 195.048 224.135 195.734 226.327L195.768 226.293Z" fill="black"/>
<path d="M133.899 143.122L131.438 138.214L131.796 138.042L134.127 143.015L133.899 143.122Z" fill="black"/>
<path d="M189.709 210.186L187.858 205.164L188.284 205.015L189.987 210.094L189.709 210.186Z" fill="black"/>
<path d="M125.113 108.058C125.494 109.434 125.901 110.809 126.255 112.192C126.301 112.564 126.301 112.941 126.255 113.313L125.737 113.435L121.415 103.596L121.091 103.737C122.306 106.686 123.548 109.624 124.705 112.593C124.899 113.095 124.732 113.736 124.732 114.311L124.164 114.364L118.863 102.133L118.532 102.266C119.469 104.621 120.375 106.984 121.343 109.323C121.978 110.847 122.744 112.341 123.349 113.896C123.532 114.361 123.376 114.963 123.372 115.5C122.991 115.138 122.405 114.856 122.23 114.406C120.943 111.4 119.758 108.351 118.494 105.337C118.194 104.765 117.843 104.221 117.447 103.71L117.504 103.771L116.814 102.072C118.521 101.504 120.185 100.978 121.826 100.395C123.106 99.9418 123.73 100.723 124.111 101.664C125.342 104.568 126.522 107.489 127.649 110.428C127.817 110.866 127.577 111.457 127.527 111.979L127.074 111.937L125.071 108.077C124.116 105.737 123.159 103.399 122.199 101.062L121.788 101.23C122.062 101.916 122.283 102.632 122.614 103.287C123.422 104.903 124.279 106.477 125.113 108.058Z" fill="white"/>
<path d="M127.47 98.3525C127.691 99.3471 127.851 100.364 128.148 101.329C128.803 103.382 129.576 105.398 130.223 107.452C130.368 107.924 130.197 108.496 130.174 109.022L129.728 109.064C128.477 105.97 127.225 102.877 125.973 99.7853L125.558 99.9377C126.206 101.542 126.929 103.119 127.485 104.754C128.114 106.614 128.59 108.523 129.134 110.409C128.799 110.272 128.262 110.226 128.159 109.994C126.693 106.663 125.284 103.314 123.814 99.8577L127.47 98.3525Z" fill="white"/>
<path d="M117.431 103.718C118.883 107.427 120.332 111.135 121.776 114.844C122.043 115.53 122.637 116.327 121.129 116.635L114.602 102.537C115.744 102.11 115.744 102.11 117.488 103.775L117.431 103.718Z" fill="white"/>
<path d="M114.164 102.64C116.256 107.258 118.34 111.879 120.417 116.502C120.505 116.708 120.36 117.013 119.96 117.439C119.374 116.441 118.719 115.481 118.216 114.441C116.754 111.392 115.318 108.344 113.958 105.296C113.623 104.533 113.616 103.634 113.459 102.796L114.164 102.64Z" fill="white"/>
<path d="M132.139 106.404L130.955 107.471L127.409 98.3872L128.822 97.4346C129.972 100.548 131.054 103.478 132.139 106.404Z" fill="white"/>
<path d="M118.521 118.121C117.881 117.009 117.203 115.915 116.616 114.78C115.535 112.73 114.43 110.691 113.486 108.58C113.174 107.879 113.326 106.968 113.265 106.153L113.798 106.035C115.611 109.957 117.423 113.879 119.233 117.801L118.521 118.121Z" fill="white"/>
<path d="M117.911 118.43C115.904 118.785 112.404 111.99 113.139 109.087L117.911 118.43Z" fill="white"/>
<path d="M133.815 93.7345L135.826 92.2446C136.382 93.9136 137.574 95.1177 136.934 97.2249C136.5 96.4628 136.225 95.9979 135.902 95.4302C136.043 96.6495 136.172 97.7546 136.283 98.8596L135.708 98.9549C134.976 97.3888 134.234 95.8303 133.537 94.2489C133.484 94.1346 133.727 93.8679 133.834 93.7002L133.815 93.7345Z" fill="white"/>
<path d="M133.624 104.225L132.341 105.368C131.301 102.613 130.288 99.9568 129.34 97.2819C129.298 97.1599 129.846 96.8322 130.36 96.394C131.484 99.149 132.531 101.729 133.586 104.27L133.624 104.225Z" fill="white"/>
<path d="M133.803 103.146C132.783 100.891 131.819 98.8024 130.909 96.6914C130.889 96.5488 130.902 96.4034 130.949 96.2671C130.995 96.1307 131.073 96.0072 131.176 95.9064C131.283 95.8417 131.406 95.8047 131.531 95.7987C131.657 95.7927 131.782 95.818 131.895 95.8721C132.703 96.3408 134.493 101.771 134.18 102.731C134.154 102.834 134.043 102.887 133.803 103.146Z" fill="white"/>
<path d="M112.942 113.175C113.875 114.905 114.819 116.605 115.714 118.365C115.771 118.505 115.792 118.657 115.776 118.807C115.76 118.957 115.707 119.101 115.623 119.226C115.459 119.371 114.861 119.341 114.777 119.226C113.795 117.367 112.389 115.648 112.492 113.389L112.942 113.175Z" fill="white"/>
<path d="M134.789 101.39C134.245 98.9891 132.546 97.1982 132.767 94.7861C134.546 96.356 135.631 99.8464 134.789 101.39Z" fill="white"/>
<path d="M147.148 127.388L146.87 127.049L147.113 127.43L147.148 127.388Z" fill="#231F20"/>
<path d="M132.139 106.404C132.127 106.377 132.117 106.349 132.108 106.32V106.347L132.139 106.404Z" fill="#231F20"/>
<path d="M127.47 98.3525H127.436L127.409 98.3716L127.47 98.3525Z" fill="#231F20"/>
<path d="M129.092 110.371V110.39L129.146 110.409L129.092 110.371Z" fill="#231F20"/>
<path d="M139.771 38.311C139.74 38.3911 139.71 38.4749 139.683 38.5587L139.816 38.372L139.771 38.311Z" fill="#231F20"/>
<path d="M125.075 108.092L125.181 108.294L125.113 108.058L125.075 108.092Z" fill="#231F20"/>
<path d="M175.23 39.1192C174.632 37.595 174.034 36.0975 173.386 34.4704C174.43 32.6147 174.704 30.5304 173.341 28.5375C172.335 27.0591 171.002 25.935 169.022 26.1636C167.019 21.9721 163.965 19.8535 159.102 20.2422C155.397 20.5459 151.673 20.514 147.974 20.1469C144.828 19.8268 142.642 20.9661 140.715 23.1953C142.17 22.155 143.587 21.0385 145.559 20.989C145.296 21.5911 145.072 22.094 144.851 22.5932C145.241 22.3611 145.603 22.0864 145.932 21.774C146.789 20.7947 147.799 20.6842 149.067 20.7337C152.833 20.8861 156.638 21.1148 160.37 20.7528C163.458 20.4517 165.416 22.094 167.034 23.9688C168.558 25.7368 169.35 28.0917 168.558 30.6676C167.925 32.7748 166.722 33.9751 164.437 34.0475C161.619 34.1351 158.801 34.0703 155.948 34.379C157.582 34.4971 159.223 34.7829 160.846 34.6952C163.413 34.554 165.988 34.7604 168.5 35.3087C169.738 35.5793 171.082 35.3545 172.545 35.3545C172.747 40.0375 172.99 45.0483 173.162 50.0628C173.185 50.7792 172.849 51.507 172.678 52.2272C171.688 51.9795 170.69 51.7471 169.708 51.4651C169.548 51.4194 169.445 51.1755 169.258 51.4651C168.497 51.5451 167.518 51.9567 167.023 51.6328C165.96 50.9469 166.642 50.0057 167.179 49.1979C167.491 48.7366 167.711 48.2189 167.826 47.6737C165.61 50.341 162.948 50.3601 160.21 48.9883C156.596 47.1707 154.973 44.0804 155.518 40.1328C157.864 41.4283 160.145 42.5715 162.301 43.9128C164.334 45.174 166.151 45.4027 168.013 43.6384C168.848 42.9366 169.725 42.2875 170.641 41.6951C168.139 40.43 165.915 39.0849 163.523 38.1933C162.319 37.8402 161.024 37.9772 159.92 38.5743C157.791 39.8241 155.971 40.2014 153.949 38.46C153.004 37.6522 151.816 37.1301 150.521 36.3337L153.286 34.0818C147.342 37.3854 142.916 43.265 135.524 44.3357C136.774 42.8725 137.973 41.5503 139.062 40.1442C139.352 39.6685 139.558 39.1465 139.672 38.601C137.699 41.4207 135.616 44.1147 131.72 44.6444L131.952 45.0254L133.201 45.616C131.72 47.6432 130.341 49.5751 128.909 51.4689C125.657 55.7709 121.731 59.2232 116.441 60.7588C112.29 61.9705 108.093 62.5764 103.908 60.7855C103.146 60.4616 102.354 60.2558 101.577 59.9967C101.509 60.1873 101.44 60.3778 101.375 60.5607C105.496 62.4888 109.453 64.7522 114.091 65.5143C118.981 66.3411 123.372 65.4495 127.306 62.3249C124.26 67.8768 119.827 72.6132 109.301 68.4217C109.057 68.8942 108.764 69.3552 108.566 69.8544C106.372 75.4062 105.9 81.1981 106.661 87.0396C107.332 92.3171 109.156 97.2173 112.553 101.447C112.939 102.036 113.128 102.733 113.09 103.436C113.09 104.926 112.907 106.42 112.774 107.909C111.992 116.755 111.205 125.599 110.413 134.442C110.344 135.204 110.173 135.966 110.032 136.728L109.537 136.911L108.592 135.223L108.169 135.638L110.074 137.829L110.656 137.677C110.919 134.11 111.151 130.54 111.46 126.977C111.757 123.529 112.473 120.118 112.56 116.632C113.036 117.859 114.845 118.792 113.071 120.614C116.651 120.187 119.362 118.327 122.211 116.982C122.972 119.592 123.711 122.065 124.442 124.538L124.804 124.447C124.157 121.922 123.511 119.397 122.866 116.872L123.281 116.792C124.423 119.078 125.402 121.418 126.708 123.586C128.734 126.966 130.985 130.212 134.07 132.75C136.926 135.097 139.736 137.513 142.722 139.685C146.599 142.501 150.628 145.103 154.821 147.954L157.369 148.495C157.316 148.375 157.244 148.264 157.156 148.167C152.947 144.482 149.436 140.276 146.923 135.231C145.331 131.99 143.561 128.84 141.621 125.796C140.205 123.601 139.516 120.873 137.112 119.345C135.528 118.335 134.066 117.1 132.421 116.224C130.562 115.241 128.551 114.547 126.068 113.503C127.139 113.179 127.874 112.707 128.532 112.798C133.632 113.522 137.771 116.003 141.043 119.954C142.992 122.313 144.923 124.683 146.858 127.049C146.005 125.708 145.186 124.336 144.249 123.056C143.244 121.684 142.052 120.454 141.012 119.105C138.255 115.534 133.533 112.92 128.361 111.975C128.601 111.434 128.837 110.912 129.069 110.39C128.734 110.268 128.247 110.219 128.148 110.009C126.682 106.679 125.273 103.329 123.803 99.8732L127.424 98.3833L128.81 97.4498C129.953 100.536 131.023 103.436 132.097 106.336L133.594 104.24C133.948 103.859 134.412 103.501 134.607 103.04C135.993 99.7932 137.486 96.5619 138.609 93.2316C139.245 91.3264 139.257 89.2268 139.546 87.2111L138.971 87.1425C138.857 88.3199 138.742 89.5011 138.59 90.9529L137.185 89.4516C137.63 90.69 137.924 91.5055 138.221 92.3209L137.813 92.4428C137.501 91.8331 137.189 91.2197 136.819 90.5033L136.092 91.4026L133.849 93.6888C133.352 93.9292 132.869 94.1963 132.402 94.489C127.07 98.1814 121.297 100.685 114.845 101.466C114.133 101.55 112.968 101.142 112.648 100.593C111.062 97.9637 109.651 95.232 108.425 92.4162C106.943 88.8496 106.688 85.0391 106.856 81.1829C107.042 76.9914 107.735 72.9447 109.62 68.9285C112.953 70.1478 116.239 71.4281 119.579 72.5446C120.798 72.9485 122.226 73.3067 123.418 73.059C124.941 72.7275 126.32 71.7825 127.721 71.028C129.823 69.8849 131.967 69.5038 134.279 70.3155C134.442 70.3649 134.615 70.3755 134.783 70.3464C134.951 70.3173 135.109 70.2493 135.246 70.1478C136.77 68.4598 138.293 66.787 139.683 64.9846C141.968 61.9782 144.158 58.8879 146.382 55.8395C146.728 59.57 146.717 63.0794 146.74 66.585C146.725 67.1066 146.818 67.6256 147.014 68.1092C149.543 73.5048 153.408 77.7459 158.332 81.0648C160.122 82.2613 161.958 83.3854 164.151 84.7876L162.026 84.6695C165.073 85.7783 167.811 86.7767 170.561 87.7178C170.702 87.7674 170.942 87.4968 171.17 87.3368L171.204 87.3139H171.174C171.494 84.6047 171.935 81.8993 172.107 79.1786C172.396 74.869 172.522 70.5517 172.705 66.223C172.876 62.2563 172.964 58.282 173.246 54.3229C173.31 53.4427 173.802 52.2882 174.479 51.8157C176.071 50.703 176.81 49.4113 176.528 47.4984C176.475 47.1174 176.681 46.7363 176.696 46.3553C176.802 43.8404 177.168 41.2416 175.23 39.1192ZM168.436 41.6036L164.959 44.37L164.536 43.8518L168.005 41.1387L168.436 41.6036ZM165.934 40.369L163.961 41.4398C164.109 41.6189 164.262 41.7941 164.414 41.9732L166.623 40.6243C166.695 40.7272 166.764 40.8339 166.836 40.9406L163.451 43.6079L163.1 43.3793L163.458 42.5639L162.175 42.8839L161.943 42.5029L165.45 39.8356L165.934 40.369ZM164.106 39.1192L164.536 39.5803L161.044 42.3505L160.617 41.8284L164.106 39.1192ZM162.837 38.2999C162.978 38.4562 163.123 38.6086 163.268 38.7648L159.791 41.5312L159.364 41.013L162.837 38.2999ZM137.813 94.4738L137.345 94.691L136.145 91.4026C137.695 91.9246 137.672 93.243 137.813 94.4738ZM133.837 93.7117L135.825 92.2371C136.381 93.906 137.573 95.1102 136.933 97.2173C136.499 96.4552 136.225 95.9904 135.901 95.4226C136.042 96.6419 136.168 97.747 136.282 98.852L135.707 98.9473C134.976 97.3812 134.233 95.8227 133.536 94.2414C133.502 94.1385 133.727 93.9022 133.837 93.7193V93.7117ZM132.767 94.7786C134.546 96.3295 135.631 99.8389 134.789 101.382C134.245 98.9892 132.546 97.183 132.767 94.7863V94.7786ZM131.175 95.8989C131.283 95.8342 131.405 95.7972 131.531 95.7912C131.657 95.7852 131.782 95.8104 131.895 95.8646C132.702 96.3333 134.492 101.763 134.18 102.723C134.15 102.819 134.039 102.883 133.799 103.143C132.779 100.887 131.815 98.7987 130.905 96.6877C130.886 96.5454 130.9 96.4006 130.947 96.2649C130.994 96.1293 131.072 96.0065 131.175 95.9065V95.8989ZM130.341 96.379C131.465 99.134 132.512 101.695 133.563 104.251L132.322 105.353C131.282 102.598 130.269 99.9418 129.321 97.2669C129.279 97.1526 129.816 96.8249 130.341 96.3866V96.379ZM115.622 119.219C115.459 119.364 114.861 119.333 114.777 119.219C113.794 117.359 112.389 115.641 112.492 113.381L112.953 113.187C113.886 114.917 114.83 116.616 115.725 118.377C115.777 118.515 115.795 118.664 115.777 118.81C115.759 118.957 115.706 119.097 115.622 119.219ZM121.818 100.407C123.098 99.9532 123.723 100.734 124.103 101.676C125.335 104.579 126.514 107.501 127.641 110.44C127.809 110.878 127.569 111.468 127.519 111.991L127.066 111.949L125.162 108.291C125.524 109.586 125.901 110.882 126.232 112.189C126.278 112.561 126.278 112.937 126.232 113.309L125.714 113.431L121.415 103.596L121.091 103.737C122.306 106.686 123.547 109.624 124.705 112.593C124.899 113.096 124.732 113.736 124.732 114.311L124.164 114.364L118.863 102.133L118.532 102.266C119.469 104.621 120.375 106.984 121.342 109.323C121.978 110.847 122.744 112.341 123.349 113.896C123.532 114.361 123.376 114.963 123.372 115.5C122.991 115.138 122.405 114.856 122.23 114.406C120.942 111.4 119.758 108.352 118.494 105.337C118.197 104.769 117.849 104.23 117.454 103.726L117.504 103.771L116.814 102.072C118.52 101.516 120.185 100.99 121.818 100.407ZM117.424 103.726C118.876 107.434 120.324 111.141 121.769 114.845C122.035 115.53 122.63 116.327 121.121 116.635L114.594 102.537C115.725 102.121 115.756 102.118 117.431 103.726H117.424ZM114.156 102.64C116.248 107.258 118.333 111.879 120.409 116.502C120.497 116.708 120.352 117.013 119.952 117.439C119.366 116.441 118.711 115.481 118.208 114.441C116.746 111.392 115.31 108.344 113.95 105.296C113.615 104.533 113.608 103.634 113.452 102.796L114.156 102.64ZM113.775 106.035C115.588 109.957 117.399 113.879 119.21 117.801L118.509 118.122C117.869 117.009 117.191 115.915 116.605 114.78C115.523 112.73 114.419 110.691 113.474 108.58C113.162 107.879 113.314 106.968 113.254 106.153L113.775 106.035ZM117.9 118.43C115.893 118.785 112.393 111.991 113.128 109.087L117.9 118.43ZM167.293 55.0393L167.674 55.4928L162.697 60.111L162.373 59.7681C163.287 58.7291 164.2 57.6863 165.111 56.6397L164.707 56.2587L160.56 60.9189L160.096 60.4502L166.166 53.9267L166.657 54.2848L165.431 56.3044L167.293 55.0393ZM157.335 60.694L159.867 57.9886L165.023 53.4885C164.806 55.4813 159.319 60.7207 157.335 60.694ZM164.753 52.7226C163.671 53.9038 162.468 54.9669 161.356 56.1215C160.837 56.7055 160.349 57.316 159.894 57.9505C158.983 58.6326 158.081 59.3299 157.156 59.9929C156.694 60.3616 156.124 60.569 155.533 60.5835L165.202 51.2974C165.062 51.7737 165.058 52.391 164.753 52.7226ZM152.848 38.5629C152.536 39.1573 152.224 39.7555 151.908 40.3462C151.531 40.9246 151.32 41.5955 151.298 42.2857C151.637 41.7408 151.969 41.1883 152.323 40.651C152.665 40.0468 153.167 39.5486 153.774 39.2106L152.087 43.0211L150.426 44.671C149.699 41.5998 150.103 40.4643 152.848 38.5629ZM152.148 42.9754L152.09 43.0325C152.597 42.3505 153.096 41.6608 153.614 40.9825C153.964 40.5176 154.337 40.0642 154.699 39.6069L155.152 39.9575L150.259 47.8909L149.684 47.5594L152.148 42.9754ZM149.071 37.6026C149.68 40.9063 150.004 44.0804 149.158 47.2279C148.979 47.8871 148.316 48.8321 147.799 48.8816C147.136 48.9502 146.051 48.4167 145.765 47.8375C145.201 46.6944 145.057 45.3645 144.76 44.1033C143.906 40.51 146.511 39.1992 149.071 37.6026ZM144.999 56.9788C143.743 58.2134 142.768 59.73 141.595 61.0637C141.44 61.2317 141.249 61.3629 141.037 61.4473C140.825 61.5317 140.596 61.5673 140.369 61.5514C136.534 60.5111 133.605 62.3402 130.76 64.4778C128.239 66.3831 125.809 68.3988 123.174 70.1211C122.089 70.8299 120.584 70.8832 119.267 71.2643L119.099 70.5936C124.1 68.8561 127.059 65.0875 129.405 60.5988C131.625 56.3425 134.778 52.8712 139.028 50.5353C140.671 49.6669 142.362 48.8934 144.093 48.2186C144.881 47.8985 147.052 49.4532 147.121 50.2915C147.334 52.8026 146.93 55.0774 144.999 56.9788ZM148.465 69.0466L147.962 69.1304C147.787 68.2045 147.467 67.2785 147.456 66.3526C147.41 60.9798 147.433 55.6071 147.433 50.1124C150.594 49.9257 151.302 47.2126 152.723 45.254C153.29 44.4919 153.743 43.6117 154.356 42.6058C156.188 47.2431 159.216 50.0667 164.441 50.7678C162.045 53.1722 159.917 55.4013 157.651 57.4894C157.312 57.8019 156.272 57.5999 155.682 57.3446C152.475 55.9653 150.316 53.5647 149.154 50.1391C147.92 51.0307 148.134 52.2272 148.157 53.336C148.259 58.3239 148.389 63.3156 148.503 68.3035C148.511 68.5398 148.476 68.7989 148.476 69.0466H148.465ZM149.916 70.6775C149.888 70.9468 149.832 71.2124 149.748 71.47L149.055 71.4205L148.549 51.8957L149.238 51.7737C149.508 52.8712 150 53.9648 150 55.0622C150.064 60.2749 149.973 65.4914 149.916 70.6775ZM152.963 75.7492C152.744 75.1808 152.576 74.5942 152.46 73.9964C152.416 73.2769 152.416 72.5553 152.46 71.8358C152.491 71.0607 152.432 70.2846 152.285 69.5229C152.136 71.028 151.991 72.5331 151.835 74.1526C150.59 73.28 150.339 72.3007 150.377 70.9099C150.514 65.64 150.43 60.3702 150.434 55.1003C150.453 54.8598 150.486 54.6206 150.533 54.3839C151.847 55.3975 152.189 56.4187 152.056 58C151.801 61.2123 151.98 64.4778 151.98 67.6939H152.418V56.5902C154.524 56.7502 154.181 58.4154 154.703 59.669C154.772 59.1279 154.844 58.5869 154.939 57.8324L156.798 58.5602L153.892 61.0294C154.043 62.0797 154.127 63.1386 154.143 64.1997C153.976 68.0101 153.724 71.7939 153.503 75.593L152.963 75.7492ZM154.528 77.5973C154.299 76.9152 153.854 76.2255 153.88 75.551C154.04 71.4243 154.311 67.2976 154.543 63.1708C154.543 63.0603 154.524 62.927 154.577 62.8431C154.802 62.4621 155.053 62.1268 155.297 61.7686C155.468 62.1496 155.781 62.485 155.788 62.8508C155.83 64.2873 155.823 65.7239 155.754 67.1604C155.583 70.5898 155.373 73.9926 155.175 77.4067L154.528 77.5973ZM155.67 76.7247C155.994 72.3541 155.994 67.9606 156.127 63.5786C156.127 63.1365 156.028 62.565 156.257 62.2868C156.424 62.1007 156.627 61.9499 156.853 61.8432C157.079 61.7365 157.325 61.6762 157.574 61.6657C157.891 61.6657 158.481 62.203 158.473 62.485C158.325 68.1778 158.092 73.8668 157.894 79.8302C156.318 79.0567 155.518 78.466 155.644 76.7247H155.67ZM161.527 82.3108C158.344 81.1219 158.184 80.6456 158.344 77.9364C158.626 73.1886 158.725 68.4102 158.884 63.67C158.884 63.1785 158.804 62.5269 159.067 62.2335C159.481 61.805 160.033 61.5354 160.625 61.4714C160.895 61.4485 161.486 62.1268 161.489 62.4926C161.516 68.9932 161.501 75.5129 161.501 82.3108H161.527ZM172.271 61.2656C171.89 69.3552 171.558 77.4486 171.216 85.5383C171.193 86.1365 171.216 86.7347 171.197 87.3292C169.673 87.3101 169.559 86.186 169.361 85.0429L169.079 86.3004C167.651 86.2318 167.282 85.5954 167.4 84.2427C167.536 82.2618 167.48 80.2723 167.232 78.3022C167.122 80.619 167.008 82.9357 166.893 85.3782C165.328 84.9972 164.403 84.5247 164.456 82.6652C164.612 77.0943 164.536 71.5158 164.578 65.941C164.578 65.0151 164.745 64.093 164.837 63.1708L164.224 63.148V83.995C162.396 83.2672 161.615 82.7109 161.687 80.9467C161.904 75.7911 161.798 70.6241 161.847 65.4647C161.847 64.2454 161.805 62.9651 162.16 61.8296C162.411 61.0217 163.302 60.4083 164.14 59.4061C164.281 60.5988 164.361 61.2885 164.441 61.982C164.993 60.4578 164.3 58.5297 166.897 57.8248V76.7513L167.358 76.778C167.418 76.4853 167.456 76.1886 167.472 75.8902C167.404 69.9052 167.329 63.9202 167.247 57.9353C167.247 57.1008 167.187 56.0034 168.287 56.0719C168.782 56.0986 169.27 57.1427 169.647 57.7867C169.856 58.1448 169.833 58.6402 169.993 59.4556C170.111 58.5564 170.184 58.0229 170.256 57.478C171.981 58.2172 172.328 59.5661 172.244 61.2656H172.271ZM172.568 58.3697C169.963 56.3006 167.388 54.7764 165.808 52.2348L172.541 52.9169L172.568 58.3697ZM167.183 34.4933L169.182 31.0639L169.452 31.0867L168.858 33.9941L167.183 34.4933ZM170.694 32.287C170.591 32.9411 170.411 33.5806 170.157 34.1923C170.008 34.4933 169.502 34.619 169.159 34.8286C169.075 34.5428 168.995 34.2609 168.912 33.9789C170.306 32.8853 169.875 31.3878 169.727 29.9665C169.614 29.4099 169.586 28.8396 169.643 28.2746C170.766 29.4139 170.999 30.7819 170.667 32.287H170.694ZM171.185 34.4704C171.033 32.1384 170.881 29.7759 170.743 27.6573C172.286 28.4613 172.758 32.5881 171.159 34.4704H171.185ZM172.575 34.0398C172.461 32.047 172.354 30.157 172.252 28.3242C174.026 29.3835 174.274 32.2642 172.549 34.0398H172.575ZM173.177 36.3757L173.535 36.2766L175.249 39.1078L175.226 39.0811C175.435 39.7555 175.645 40.4262 175.923 41.3293L173.577 41.6722C173.409 39.7822 173.28 38.0789 173.15 36.3757H173.177ZM173.836 51.3241C173.493 44.6253 173.493 44.6253 176.06 43.2231C176.201 48.2834 176.414 50.2762 173.809 51.3241H173.836Z" fill="#231F20"/>
<path d="M144.817 22.6506L144.851 22.5742L144.782 22.6239L144.817 22.6506Z" fill="#231F20"/>
<path d="M136.092 91.4025C137.699 91.8978 137.672 93.2315 137.813 94.4775L137.345 94.6947C136.936 93.5871 136.53 92.4783 136.126 91.3682L136.092 91.4025Z" fill="white"/>
<path d="M153.518 225.576C153.716 224.94 153.774 224.205 154.147 223.694C154.95 222.589 155.914 221.598 156.885 220.478L158.443 221.126C157.148 222.684 156.009 224.132 154.764 225.489C154.558 225.71 153.903 225.515 153.458 225.515L153.518 225.576Z" fill="white"/>
<path d="M221.881 157.468C220.815 158.859 219.783 160.28 218.663 161.633C218.355 162.014 217.799 162.178 217.357 162.441L216.893 161.854L222.605 154.671L223.032 154.946L221.821 157.525L221.881 157.468Z" fill="white"/>
<path d="M220.202 162.46C221.672 160.372 223.134 158.268 224.612 156.196C225.023 155.609 225.469 155.052 225.899 154.477L226.486 154.896L220.156 164.339L219.741 164.118C219.916 163.542 220.088 162.974 220.263 162.395L220.202 162.46Z" fill="white"/>
<path d="M221.824 157.525L224.33 154.717L224.673 154.965L220.202 162.46L220.263 162.395L218.831 163.561L218.412 163.256L221.885 157.464L221.824 157.525Z" fill="white"/>
<path d="M213.907 159.64C215.179 158.299 216.435 156.946 217.715 155.632C218.141 155.242 218.591 154.879 219.063 154.546L219.585 155.045C218.332 156.653 217.144 158.318 215.777 159.823C215.525 160.101 214.554 159.72 213.914 159.644L213.907 159.64Z" fill="white"/>
<path d="M215.663 161.02C217.369 158.882 218.999 156.828 220.659 154.801C220.705 154.744 221.04 154.919 221.554 155.098C219.821 157.274 218.207 159.324 216.546 161.336C216.481 161.412 216.002 161.134 215.663 161.02Z" fill="white"/>
<path d="M213.926 159.644L213.282 158.466C214.497 157.049 215.445 155.281 217.148 154.298L217.677 154.778C216.423 156.401 215.167 158.026 213.911 159.652L213.926 159.644Z" fill="white"/>
<path d="M211.694 157.792C214.596 154.016 214.596 154.016 215.883 154.401C214.989 155.506 214.174 156.599 213.244 157.594C213.016 157.826 212.426 157.704 211.694 157.792Z" fill="white"/>
<path d="M211.427 157.369C211.047 156.74 210.628 156.26 210.708 156.15C211.469 155.163 212.281 154.245 213.084 153.3L213.667 153.73C212.985 154.835 212.307 155.944 211.427 157.369Z" fill="white"/>
<path d="M210.715 152.991L208.244 154.275C208.254 153.804 208.327 153.336 208.461 152.884C208.967 151.756 209.653 152.099 210.715 152.991Z" fill="white"/>
<path d="M211.489 152.911C211.226 155.304 210.476 155.891 209.204 154.999L211.489 152.911Z" fill="white"/>
<path d="M194.709 133.581C194.892 133.962 195.223 134.366 195.239 134.766C195.26 135.706 195.202 136.647 195.067 137.578C195.025 137.883 194.686 138.149 194.496 138.435C194.283 138.104 193.871 137.764 193.887 137.444C193.948 136.195 194.138 134.949 194.267 133.703L194.709 133.581Z" fill="white"/>
<path d="M195.532 138.355C195.699 136.96 195.867 135.57 196.053 134.026C196.884 134.758 197.135 135.989 196.781 137.376C196.67 137.814 196.274 138.184 196.019 138.587L195.532 138.355Z" fill="white"/>
<path d="M197.192 138.37L197.6 134.789C198.483 135.775 198.415 137.361 197.192 138.37Z" fill="white"/>
<path d="M198.502 138.652C198.632 137.585 198.758 136.522 198.883 135.455L199.561 135.52C199.467 136.587 199.369 137.656 199.268 138.728L198.502 138.652Z" fill="white"/>
<path d="M169.346 82.3447V74.3428H169.57V82.3447H169.346Z" fill="black"/>
<path d="M125.113 108.058C124.279 106.477 123.422 104.903 122.618 103.302C122.287 102.647 122.066 101.931 121.792 101.245L122.203 101.077C123.163 103.412 124.12 105.75 125.075 108.092L125.113 108.058Z" fill="black"/>
<path d="M195.395 238.166C193.11 240.517 190.825 242.876 188.513 245.212C187.428 246.313 186.32 247.395 185.177 248.435C184.755 248.739 184.3 248.994 183.821 249.198C187.249 245.738 190.676 242.27 194.104 238.833C194.435 238.524 194.961 238.391 195.395 238.166Z" fill="black"/>
<path d="M203.922 151.474L202.943 205.937" stroke="#231F20" stroke-miterlimit="10"/>
<path d="M199.69 236.699L182.245 189.556" stroke="#231F20" stroke-miterlimit="10"/>
<path d="M48.8022 243.158C48.8022 243.158 73.2477 227.535 67.6419 212.499" stroke="#231F20" stroke-miterlimit="10"/>
<path d="M136.363 104.144C140.357 107.768 149.89 115.389 164.121 117.481C170.074 118.348 176.132 118.162 182.02 116.932C182.401 113.053 182.572 105.398 178.551 97.3809C177.187 94.6638 175.467 92.1406 173.436 89.8781C144.722 80.028 124.911 73.4321 124.736 73.9237" stroke="#231F20" stroke-miterlimit="10"/>
<path d="M154.806 149.051C157.506 152.351 162.293 159.404 163.847 165.748C165.945 174.303 164.433 176.684 164.433 176.684C164.433 176.684 182.884 167.966 188.718 149.752C190.623 143.785 193.117 136.583 191.826 132.948" stroke="#231F20" stroke-miterlimit="10"/>
<path d="M181.068 100.872C181.068 100.872 198.384 107.73 202.943 118.48C207.501 129.229 205.631 140.961 205.631 140.961C205.631 140.961 203.373 135.394 190.398 132.03C177.423 128.665 178.212 129.397 174.354 126.543" stroke="#231F20" stroke-miterlimit="10"/>
<path d="M135.247 70.1592L130.806 75.5853" stroke="#231F20" stroke-miterlimit="10"/>
<path d="M161.15 231.99L167.156 224.795" stroke="#231F20" stroke-miterlimit="10"/>
<path d="M174.788 241.672L184.842 231.837" stroke="#231F20" stroke-miterlimit="10"/>
<path d="M223.587 162.361L229.464 156.763" stroke="#231F20" stroke-miterlimit="10"/>
<path d="M169.231 85.5079L170.229 57.4819" stroke="#231F20" stroke-miterlimit="10"/>
<path d="M166.863 85.378L167.221 57.9351" stroke="#231F20" stroke-miterlimit="10"/>
<path d="M164.113 59.4097L164.197 83.9948" stroke="#231F20" stroke-miterlimit="10"/>
<path d="M152.411 56.5898L152.178 74.7619" stroke="#231F20" stroke-miterlimit="10"/>
<path d="M109.552 136.892C109.552 136.892 101.936 130.345 98.3862 122.888C94.8369 115.431 94.3037 111.384 94.3037 111.384" stroke="#231F20" stroke-miterlimit="10"/>
<path d="M124.435 124.523C124.435 124.523 132.379 137.197 135.753 148.647C139.127 160.097 135.787 172.337 135.787 172.337" stroke="#231F20" stroke-miterlimit="10"/>
<path d="M77.7451 176.673C77.7451 176.673 75.7076 167.76 69.561 166.148" stroke="#231F20" stroke-miterlimit="10"/>
<path d="M115.462 196.362C115.462 196.362 123.125 201.117 130.779 196.362C138.434 191.606 140.479 186.912 139.717 181.329" stroke="#231F20" stroke-miterlimit="10"/>
<path d="M139.717 191.183C139.717 191.183 141.721 179.253 136.29 173.708" stroke="#231F20" stroke-miterlimit="10"/>
<path d="M24.9202 231.936C25.0772 231.004 25.401 230.108 25.8761 229.292C26.3682 228.474 27.0585 227.794 27.8831 227.314C28.7158 226.85 29.6299 226.552 30.5755 226.434C31.0456 226.362 31.5205 226.327 31.996 226.327C32.4725 226.336 32.9476 226.383 33.4165 226.468C34.3517 226.64 35.2523 226.964 36.0823 227.428C36.9525 227.88 37.6557 228.599 38.0893 229.478C38.2884 229.934 38.3722 230.431 38.333 230.926C38.3226 231.414 38.2326 231.897 38.0664 232.355C37.7395 233.297 37.0726 234.083 36.1966 234.558L36.0785 234.226C36.7231 234.035 37.3401 233.761 37.9141 233.411C38.4859 233.088 38.9577 232.613 39.2775 232.039C39.4171 231.75 39.4925 231.434 39.4984 231.113C39.525 230.78 39.525 230.444 39.4984 230.111C39.4453 229.44 39.2926 228.782 39.0452 228.156C38.5491 226.906 37.6603 225.851 36.5127 225.15C35.3441 224.465 34.0482 224.027 32.7044 223.862C31.3616 223.633 29.9882 223.652 28.6523 223.919C27.3212 224.216 26.0918 224.859 25.0878 225.782C24.0879 226.721 23.2908 227.854 22.7457 229.113C22.4552 229.739 22.2194 230.389 22.0412 231.056C21.9605 231.389 21.8969 231.726 21.8507 232.066C21.7917 232.405 21.7917 232.752 21.8507 233.091C21.7803 232.752 21.7687 232.404 21.8165 232.062C21.8521 231.719 21.9068 231.378 21.9802 231.041C22.1289 230.365 22.3379 229.705 22.6048 229.067C23.1255 227.775 23.9117 226.606 24.9126 225.637C25.933 224.672 27.1881 223.99 28.5533 223.66C29.9206 223.366 31.3303 223.326 32.712 223.542C34.1067 223.708 35.453 224.156 36.6688 224.86C37.893 225.593 38.846 226.705 39.3841 228.027C39.6486 228.683 39.8129 229.375 39.8716 230.08C39.9001 230.434 39.9001 230.79 39.8716 231.144C39.8584 231.512 39.7689 231.874 39.6088 232.207C39.2522 232.846 38.7247 233.374 38.0855 233.731C37.4806 234.097 36.8301 234.381 36.1509 234.577L36.0328 234.241C36.8235 233.808 37.4269 233.099 37.7275 232.249C37.8831 231.822 37.9693 231.373 37.9827 230.919C38.0198 230.473 37.9465 230.026 37.7694 229.616C37.3651 228.798 36.7171 228.125 35.9148 227.691C35.1125 227.23 34.2404 226.903 33.3327 226.723C32.8781 226.634 32.4172 226.58 31.9541 226.563C31.4907 226.559 31.0275 226.587 30.5679 226.647C29.6574 226.748 28.7732 227.016 27.9592 227.436C27.138 227.89 26.446 228.545 25.9485 229.341C25.4564 230.139 25.1084 231.018 24.9202 231.936Z" fill="#231F20"/>
<path d="M112.918 244.888C112.918 244.888 117.827 242.301 120.767 239.424C122.546 237.686 124.991 234.158 124.991 234.158" stroke="#231F20" stroke-miterlimit="10"/>
</g>
<defs>
<clipPath id="clip0_358_258">
<rect width="258.667" height="287.907" fill="white" transform="translate(20.6665 12)"/>
</clipPath>
</defs>
</svg>
